<svg id="Layer_1" data-name="Layer 1" xmlns="http://www.w3.org/2000/svg" viewBox="0 0 291.91 106.93"><defs><style>.cls-1{fill:#ed1c24;}.cls-2{fill:#fff;}</style></defs><title>smart-dubai-gov-logo</title><g id="_Group_" data-name="&lt;Group&gt;"><path id="_Compound_Path_" data-name="&lt;Compound Path&gt;" class="cls-1" d="M158.08,62.84h-.22c-2.53,0-4.41-.62-5.62-1.84-1,4.22-5.41,7-10.5,7-6.25,0-11.18-4.59-11.18-10.66V53.62h4.37V57c0,4.19,2.47,7,6.9,7,3.38,0,6.59-2.13,6.59-5a2.81,2.81,0,0,0-2.9-2.75,3.09,3.09,0,0,0-.75.1V52.46a17.77,17.77,0,0,1,1.91,0,7.41,7.41,0,0,1,7,4.31c.75,1.44,1.84,1.91,3.72,1.91h.69Zm-18.8,10.59h-3.91V69.84h3.91Zm5.88,0h-3.88V69.84h3.88Z" transform="translate(-8.1 -9.02)"/></g><g id="_Group_2" data-name="&lt;Group&gt;"><rect id="_Path_" data-name="&lt;Path&gt;" class="cls-1" x="148.71" y="49.63" width="9.21" height="4.19"/></g><g id="_Group_3" data-name="&lt;Group&gt;"><rect id="_Path_2" data-name="&lt;Path&gt;" class="cls-1" x="148.14" y="49.63" width="6.69" height="4.19"/></g><g id="_Group_4" data-name="&lt;Group&gt;"><rect id="_Path_3" data-name="&lt;Path&gt;" class="cls-1" x="154.49" y="49.63" width="6.69" height="4.19"/></g><g id="_Group_5" data-name="&lt;Group&gt;"><rect id="_Path_4" data-name="&lt;Path&gt;" class="cls-1" x="160.83" y="49.63" width="6.69" height="4.19"/></g><g id="_Group_6" data-name="&lt;Group&gt;"><path id="_Compound_Path_2" data-name="&lt;Compound Path&gt;" class="cls-1" d="M184.61,56.81a6.26,6.26,0,0,1-1.38,4.13A5.19,5.19,0,0,1,179,62.84h-3.72V58.65H178c1.47,0,2.22-1,2.22-3.06v-6.9h4.37ZM184.36,68h-3.87V64.4h3.87Z" transform="translate(-8.1 -9.02)"/></g><g id="_Group_7" data-name="&lt;Group&gt;"><path id="_Path_5" data-name="&lt;Path&gt;" class="cls-1" d="M203.42,62.84H187.7V58.65H199c0-4.37-2.37-6.31-7.94-6.31V48.68a19.69,19.69,0,0,1,5.84.6c4.25,1.5,6.47,4.62,6.47,9.34Z" transform="translate(-8.1 -9.02)"/></g><g id="_Group_8" data-name="&lt;Group&gt;"><path id="_Compound_Path_3" data-name="&lt;Compound Path&gt;" class="cls-1" d="M134.75,44.37h-4.41q-3.75,0-5.25-3.84c-.78,1.22-2.28,1.88-4.44,1.88-3.75,0-6.16-3.25-6.16-7.56,0-4.65,2.34-7.66,6.47-7.66,0,0,2.78,0,8.34,0V37a2.84,2.84,0,0,0,3.19,3.19h2.25Zm-11.13-19h-3.87V21.71h3.87Zm1.19,9.15V30.37h-2.87c-1.78,0-3.09,2-3.09,4.41,0,2.19,1.25,4,3,4s3-1.72,3-4.28m4.69-9.15h-3.88V21.71h3.88Z" transform="translate(-8.1 -9.02)"/></g><g id="_Group_9" data-name="&lt;Group&gt;"><path id="_Compound_Path_4" data-name="&lt;Compound Path&gt;" class="cls-1" d="M147,39.93a6.77,6.77,0,0,1-7.18,7.12,6.85,6.85,0,0,1-5.94-2.69h-1.25V40.18h0c0-4.47,2.56-7.31,7.06-7.31S147,35.65,147,39.93m-4.34.16c0-2.47-.94-3.72-2.78-3.72h-.31c-1.6,0-2.69,1.47-2.69,3.53s1.07,3.59,2.94,3.59c1.72,0,2.84-1.38,2.84-3.41" transform="translate(-8.1 -9.02)"/></g><g id="_Group_10" data-name="&lt;Group&gt;"><path id="_Compound_Path_5" data-name="&lt;Compound Path&gt;" class="cls-1" d="M167.05,44.37h-4.13q-.75,5.16-7.12,5.16h-.47V46h.38c1.69,0,2.69-.62,3-1.84a10.84,10.84,0,0,1-2.69.19A6.87,6.87,0,0,1,149,37.24a6.75,6.75,0,0,1,7.09-7.06A6.82,6.82,0,0,1,163,37.34v2.84h4.06Zm-8.44-4.19v-3c0-1.84-1.1-3-2.69-3s-2.53,1.28-2.53,2.93,1.07,3.13,2.69,3.13Z" transform="translate(-8.1 -9.02)"/></g><g id="_Group_11" data-name="&lt;Group&gt;"><path id="_Path_6" data-name="&lt;Path&gt;" class="cls-1" d="M187.62,44.37H161.84V40.18H179A7.05,7.05,0,0,0,177,36a5.87,5.87,0,0,0-4.31-1.78h-7.87l6.19-10h5.22l-3.9,5.94h2.34a9.89,9.89,0,0,1,4.06,1.25c2.78,1.66,4.41,4.56,4.87,8.75h4Z" transform="translate(-8.1 -9.02)"/></g><g id="_Group_12" data-name="&lt;Group&gt;"><path id="_Path_7" data-name="&lt;Path&gt;" class="cls-1" d="M203.44,44.37H181.1V40.18h17.69a6.46,6.46,0,0,0-6.53-6.28A7.9,7.9,0,0,0,187,36.15l-2.19-3a10.31,10.31,0,0,1,7.75-3.31c7.15,0,10.87,4.91,10.87,13.06Z" transform="translate(-8.1 -9.02)"/></g><g id="_Group_13" data-name="&lt;Group&gt;"><path id="_Compound_Path_6" data-name="&lt;Compound Path&gt;" class="cls-1" d="M135.79,88.17h-5.42q-3.75,0-5.25-3.84c-.78,1.22-2.28,1.87-4.44,1.87-3.75,0-6.16-3.25-6.16-7.56C114.53,74,116.87,71,121,71c0,0,2.78,0,8.34,0V80.8A2.84,2.84,0,0,0,132.52,84h3.27ZM123.41,69h-3.88V65.33h3.88Zm1.42,9.35V74.18H122c-1.78,0-3.09,2-3.09,4.41,0,2.19,1.25,4,3,4s3-1.72,3-4.28M129.28,69h-3.88V65.33h3.88Z" transform="translate(-8.1 -9.02)"/></g><g id="_Group_14" data-name="&lt;Group&gt;"><path id="_Compound_Path_7" data-name="&lt;Compound Path&gt;" class="cls-1" d="M139.29,93.36h-3.88V89.74h3.88Zm10.52-5.19H135.75V84h2.88c1.47,0,2.19-1,2.19-3V77.3h4.41v3.53a9.32,9.32,0,0,1-.5,3.15h5.09Zm-4.64,5.19h-3.88V89.74h3.88Z" transform="translate(-8.1 -9.02)"/></g><g id="_Group_15" data-name="&lt;Group&gt;"><path id="_Path_8" data-name="&lt;Path&gt;" class="cls-1" d="M167.48,88.18H144.73V84h18a6.51,6.51,0,0,0-6.34-6h-7.87l6.25-10h5.18L156,74h2.41c6,.62,9.06,5.22,9.06,12.56Z" transform="translate(-8.1 -9.02)"/></g><g id="_Group_16" data-name="&lt;Group&gt;"><path id="_Compound_Path_8" data-name="&lt;Compound Path&gt;" class="cls-1" d="M190.82,88.17H170.57V84h11.34c0-4.37-2.37-6.31-7.94-6.31V74a19.63,19.63,0,0,1,5.84.6c4.31,1.53,6.47,4.62,6.47,9.34h4.53ZM178,71.65h-3.91V68.05H178Z" transform="translate(-8.1 -9.02)"/></g><g id="_Group_17" data-name="&lt;Group&gt;"><path id="_Path_9" data-name="&lt;Path&gt;" class="cls-1" d="M195.59,82.15a6.26,6.26,0,0,1-1.37,4.12,5.22,5.22,0,0,1-4.31,1.91h-4.12V84H189c1.47,0,2.22-1,2.22-3.06V68.05h4.37Z" transform="translate(-8.1 -9.02)"/></g><g id="_Group_18" data-name="&lt;Group&gt;"><rect id="_Path_10" data-name="&lt;Path&gt;" class="cls-1" x="190.83" y="59.01" width="4.37" height="20.15"/></g><g id="_Group_19" data-name="&lt;Group&gt;"><path id="_Path_11" data-name="&lt;Path&gt;" class="cls-2" d="M222.7,44.82c-3.31,0-6.07-1.77-6.44-5.24H221A1.65,1.65,0,0,0,222.75,41c.71,0,1.65-.4,1.65-1.22,0-1.14-1.28-1.48-2.14-1.82-.68-.23-1.37-.46-2.05-.71-1.88-.68-3.76-1.91-3.76-4.13,0-3.31,3.08-5.22,6.13-5.22s5.76,1.62,6.07,5H224c0-.88-.66-1.2-1.48-1.2-.63,0-1.34.34-1.34,1.05,0,2.48,8,1.08,8,6.67,0,3.56-3.22,5.39-6.44,5.39" transform="translate(-8.1 -9.02)"/></g><g id="_Group_20" data-name="&lt;Group&gt;"><path id="_Path_12" data-name="&lt;Path&gt;" class="cls-1" d="M251,44.28V35.87c0-1.74-.23-3.5-2.42-3.5S246,33.85,246,35.64v8.64h-4.73V35.67c0-1.63-.37-3.31-2.36-3.31-2.19,0-2.68,1.65-2.68,3.5v8.41H231.5V28.46h4.42v1.68H236a4.67,4.67,0,0,1,4.36-2.22,5,5,0,0,1,4.56,2.82,5.76,5.76,0,0,1,5-2.82,5.62,5.62,0,0,1,4.16,1.6c1.8,1.82,1.71,3.7,1.71,6.13v8.64Z" transform="translate(-8.1 -9.02)"/></g><g id="_Group_21" data-name="&lt;Group&gt;"><path id="_Compound_Path_9" data-name="&lt;Compound Path&gt;" class="cls-1" d="M271,44.28V42.56h-.06c-.86,1.62-2.91,2.25-4.62,2.25-4.87,0-8-3.76-8-8.46s3.19-8.43,8-8.43a5.31,5.31,0,0,1,4.62,2.22H271V28.46h4.73V44.28Zm-4-11.94a4,4,0,1,0,4,4,3.9,3.9,0,0,0-4-4" transform="translate(-8.1 -9.02)"/></g><g id="_Group_22" data-name="&lt;Group&gt;"><path id="_Path_13" data-name="&lt;Path&gt;" class="cls-1" d="M283.88,35.58v8.69h-4.73V28.46h4.44v1.68h.06a4,4,0,0,1,4-2.22v4.76c-2.08.06-3.73.46-3.73,2.91" transform="translate(-8.1 -9.02)"/></g><g id="_Group_23" data-name="&lt;Group&gt;"><polygon id="_Path_14" data-name="&lt;Path&gt;" class="cls-1" points="289.63 23.03 289.63 35.26 284.9 35.26 284.9 23.03 282.57 23.03 282.57 19.44 284.9 19.44 284.9 14.17 289.63 14.17 289.63 19.44 291.91 19.44 291.91 23.03 289.63 23.03"/></g><g id="_Group_24" data-name="&lt;Group&gt;"><path id="_Path_15" data-name="&lt;Path&gt;" class="cls-1" d="M222.7,44.82c-3.31,0-6.07-1.77-6.44-5.24H221A1.65,1.65,0,0,0,222.75,41c.71,0,1.65-.4,1.65-1.22,0-1.14-1.28-1.48-2.14-1.82-.68-.23-1.37-.46-2.05-.71-1.88-.68-3.76-1.91-3.76-4.13,0-3.31,3.08-5.22,6.13-5.22s5.76,1.62,6.07,5H224c0-.88-.66-1.2-1.48-1.2-.63,0-1.34.34-1.34,1.05,0,2.48,8,1.08,8,6.67,0,3.56-3.22,5.39-6.44,5.39" transform="translate(-8.1 -9.02)"/></g><g id="_Group_25" data-name="&lt;Group&gt;"><path id="_Path_16" data-name="&lt;Path&gt;" class="cls-1" d="M251,44.28V35.87c0-1.74-.23-3.5-2.42-3.5S246,33.85,246,35.64v8.64h-4.73V35.67c0-1.63-.37-3.31-2.36-3.31-2.19,0-2.68,1.65-2.68,3.5v8.41H231.5V28.46h4.42v1.68H236a4.67,4.67,0,0,1,4.36-2.22,5,5,0,0,1,4.56,2.82,5.76,5.76,0,0,1,5-2.82,5.62,5.62,0,0,1,4.16,1.6c1.8,1.82,1.71,3.7,1.71,6.13v8.64Z" transform="translate(-8.1 -9.02)"/></g><g id="_Group_26" data-name="&lt;Group&gt;"><path id="_Compound_Path_10" data-name="&lt;Compound Path&gt;" class="cls-1" d="M271,44.28V42.56h-.06c-.86,1.62-2.91,2.25-4.62,2.25-4.87,0-8-3.76-8-8.46s3.19-8.43,8-8.43a5.31,5.31,0,0,1,4.62,2.22H271V28.46h4.73V44.28Zm-4-11.94a4,4,0,1,0,4,4,3.9,3.9,0,0,0-4-4" transform="translate(-8.1 -9.02)"/></g><g id="_Group_27" data-name="&lt;Group&gt;"><path id="_Path_17" data-name="&lt;Path&gt;" class="cls-1" d="M283.88,35.58v8.69h-4.73V28.46h4.44v1.68h.06a4,4,0,0,1,4-2.22v4.76c-2.08.06-3.73.46-3.73,2.91" transform="translate(-8.1 -9.02)"/></g><g id="_Group_28" data-name="&lt;Group&gt;"><polygon id="_Path_18" data-name="&lt;Path&gt;" class="cls-1" points="289.63 23.03 289.63 35.26 284.9 35.26 284.9 23.03 282.57 23.03 282.57 19.44 284.9 19.44 284.9 14.17 289.63 14.17 289.63 19.44 291.91 19.44 291.91 23.03 289.63 23.03"/></g><g id="_Group_29" data-name="&lt;Group&gt;"><path id="_Compound_Path_11" data-name="&lt;Compound Path&gt;" class="cls-1" d="M232.44,91.16c-1.57,2.65-5.13,3.74-8,3.74-2.68,0-5.36-.83-6.92-3.11a5.54,5.54,0,0,1-1-2.45H222a2.8,2.8,0,0,0,2.76,1.57c2.59,0,3.85-1.8,3.85-4.3v-.48h-.05a4.84,4.84,0,0,1-4.33,2.25c-4.73,0-8-3.7-8-8.32s3.16-8.52,8-8.52a5,5,0,0,1,4.36,2h.06V72h4.73V85.95a10.17,10.17,0,0,1-.94,5.21m-7.64-15.21a4,4,0,0,0,0,8A3.76,3.76,0,0,0,228.65,80a3.82,3.82,0,0,0-3.85-4.07" transform="translate(-8.1 -9.02)"/></g><g id="_Group_30" data-name="&lt;Group&gt;"><path id="_Compound_Path_12" data-name="&lt;Compound Path&gt;" class="cls-1" d="M244.53,88.34A8.41,8.41,0,1,1,253,79.93a8.26,8.26,0,0,1-8.52,8.41m0-12.4a4,4,0,1,0,3.79,4,3.87,3.87,0,0,0-3.79-4" transform="translate(-8.1 -9.02)"/></g><g id="_Group_31" data-name="&lt;Group&gt;"><polygon id="_Path_19" data-name="&lt;Path&gt;" class="cls-1" points="256.03 78.84 251.5 78.84 245.83 63.02 250.73 63.02 253.75 72.88 253.81 72.88 256.83 63.02 261.73 63.02 256.03 78.84"/></g><g id="_Group_32" data-name="&lt;Group&gt;"><path id="_Compound_Path_13" data-name="&lt;Compound Path&gt;" class="cls-1" d="M232.44,91.16c-1.57,2.65-5.13,3.74-8,3.74-2.68,0-5.36-.83-6.92-3.11a5.54,5.54,0,0,1-1-2.45H222a2.8,2.8,0,0,0,2.76,1.57c2.59,0,3.85-1.8,3.85-4.3v-.48h-.05a4.84,4.84,0,0,1-4.33,2.25c-4.73,0-8-3.7-8-8.32s3.16-8.52,8-8.52a5,5,0,0,1,4.36,2h.06V72h4.73V85.95a10.17,10.17,0,0,1-.94,5.21m-7.64-15.21a4,4,0,0,0,0,8A3.76,3.76,0,0,0,228.65,80a3.82,3.82,0,0,0-3.85-4.07" transform="translate(-8.1 -9.02)"/></g><g id="_Group_33" data-name="&lt;Group&gt;"><path id="_Compound_Path_14" data-name="&lt;Compound Path&gt;" class="cls-1" d="M244.53,88.34A8.41,8.41,0,1,1,253,79.93a8.26,8.26,0,0,1-8.52,8.41m0-12.4a4,4,0,1,0,3.79,4,3.87,3.87,0,0,0-3.79-4" transform="translate(-8.1 -9.02)"/></g><g id="_Group_34" data-name="&lt;Group&gt;"><polygon id="_Path_20" data-name="&lt;Path&gt;" class="cls-1" points="256.03 78.84 251.5 78.84 245.83 63.02 250.73 63.02 253.75 72.88 253.81 72.88 256.83 63.02 261.73 63.02 256.03 78.84"/></g><g id="_Group_35" data-name="&lt;Group&gt;"><path id="_Compound_Path_15" data-name="&lt;Compound Path&gt;" class="cls-1" d="M229,68V66.32h-.06a5.18,5.18,0,0,1-4.73,2.23c-4.84,0-7.92-3.79-7.92-8.47s3.08-8.41,7.84-8.41a6.17,6.17,0,0,1,4.64,1.88V46.94h4.73V68Zm-4-11.94a4,4,0,0,0-.06,8A3.93,3.93,0,0,0,229,60a3.87,3.87,0,0,0-4-4" transform="translate(-8.1 -9.02)"/></g><g id="_Group_36" data-name="&lt;Group&gt;"><path id="_Path_21" data-name="&lt;Path&gt;" class="cls-1" d="M247.06,68V66.35H247c-.82,1.71-2.33,2.2-4.1,2.2a5.89,5.89,0,0,1-4.64-2,6.7,6.7,0,0,1-1.42-4.87V52.21h4.73V61c0,1.8.4,3.16,2.54,3.16,2,0,2.71-1.39,2.71-3.22V52.21h4.73V68Z" transform="translate(-8.1 -9.02)"/></g><g id="_Group_37" data-name="&lt;Group&gt;"><path id="_Compound_Path_16" data-name="&lt;Compound Path&gt;" class="cls-1" d="M264.22,68.57c-1.63,0-3.7-.68-4.53-2.23h-.06V68H255.1V46.94h4.73v6.52a6,6,0,0,1,4.59-1.8,8.08,8.08,0,0,1,3.33.77c3,1.42,4.44,4.3,4.44,7.58,0,4.76-3.05,8.55-8,8.55m-.63-12.48a3.9,3.9,0,0,0-3.93,4,3.85,3.85,0,0,0,3.84,4.07,4,4,0,0,0,.09-8.06" transform="translate(-8.1 -9.02)"/></g><g id="_Group_38" data-name="&lt;Group&gt;"><path id="_Compound_Path_17" data-name="&lt;Compound Path&gt;" class="cls-1" d="M286.73,68V66.32h-.06c-.86,1.63-2.91,2.25-4.62,2.25-4.87,0-8-3.77-8-8.47s3.19-8.44,8-8.44a5.31,5.31,0,0,1,4.62,2.22h.06V52.21h4.73V68Zm-4-11.94a3.89,3.89,0,0,0-3.9,4.07,3.95,3.95,0,1,0,7.89-.06,3.89,3.89,0,0,0-4-4" transform="translate(-8.1 -9.02)"/></g><g id="_Group_39" data-name="&lt;Group&gt;"><path id="_Compound_Path_18" data-name="&lt;Compound Path&gt;" class="cls-1" d="M294.91,46.94h4.73v3.59h-4.73Zm0,5.27h4.73V68h-4.73Z" transform="translate(-8.1 -9.02)"/></g><g id="_Group_40" data-name="&lt;Group&gt;"><path id="_Compound_Path_19" data-name="&lt;Compound Path&gt;" class="cls-1" d="M229,68V66.32h-.06a5.18,5.18,0,0,1-4.73,2.23c-4.84,0-7.92-3.79-7.92-8.47s3.08-8.41,7.84-8.41a6.17,6.17,0,0,1,4.64,1.88V46.94h4.73V68Zm-4-11.94a4,4,0,0,0-.06,8A3.93,3.93,0,0,0,229,60a3.87,3.87,0,0,0-4-4" transform="translate(-8.1 -9.02)"/></g><g id="_Group_41" data-name="&lt;Group&gt;"><path id="_Path_22" data-name="&lt;Path&gt;" class="cls-1" d="M247.06,68V66.35H247c-.82,1.71-2.33,2.2-4.1,2.2a5.89,5.89,0,0,1-4.64-2,6.7,6.7,0,0,1-1.42-4.87V52.21h4.73V61c0,1.8.4,3.16,2.54,3.16,2,0,2.71-1.39,2.71-3.22V52.21h4.73V68Z" transform="translate(-8.1 -9.02)"/></g><g id="_Group_42" data-name="&lt;Group&gt;"><path id="_Compound_Path_20" data-name="&lt;Compound Path&gt;" class="cls-1" d="M264.22,68.57c-1.63,0-3.7-.68-4.53-2.23h-.06V68H255.1V46.94h4.73v6.52a6,6,0,0,1,4.59-1.8,8.08,8.08,0,0,1,3.33.77c3,1.42,4.44,4.3,4.44,7.58,0,4.76-3.05,8.55-8,8.55m-.63-12.48a3.9,3.9,0,0,0-3.93,4,3.85,3.85,0,0,0,3.84,4.07,4,4,0,0,0,.09-8.06" transform="translate(-8.1 -9.02)"/></g><g id="_Group_43" data-name="&lt;Group&gt;"><path id="_Compound_Path_21" data-name="&lt;Compound Path&gt;" class="cls-1" d="M286.73,68V66.32h-.06c-.86,1.63-2.91,2.25-4.62,2.25-4.87,0-8-3.77-8-8.47s3.19-8.44,8-8.44a5.31,5.31,0,0,1,4.62,2.22h.06V52.21h4.73V68Zm-4-11.94a3.89,3.89,0,0,0-3.9,4.07,3.95,3.95,0,1,0,7.89-.06,3.89,3.89,0,0,0-4-4" transform="translate(-8.1 -9.02)"/></g><g id="_Group_44" data-name="&lt;Group&gt;"><path id="_Compound_Path_22" data-name="&lt;Compound Path&gt;" class="cls-1" d="M294.91,46.94h4.73v3.59h-4.73Zm0,5.27h4.73V68h-4.73Z" transform="translate(-8.1 -9.02)"/></g><path id="_Compound_Path_23" data-name="&lt;Compound Path&gt;" class="cls-1" d="M99.92,51.53A46,46,0,0,0,19.23,25,46,46,0,0,0,88.92,85,45.67,45.67,0,0,0,99.92,51.53Zm-3.77.28c.1,1.33.13,2.65.11,4l-31,8-6.55,1.69L56.26,37.36l-.77-8.76,19.92-10A42.09,42.09,0,0,1,96.15,51.81ZM71.24,16.43,55.12,24.55l-1-11.74A42.15,42.15,0,0,1,71.24,16.43ZM17.38,75.83,32,40.42l19.81-10,3.18,36L22.48,74.85l-4.92,1.27ZM42.83,14.32A42.49,42.49,0,0,1,50.3,13l1.19,13.4L34.25,35.06l6.81-16.45ZM22.1,27.45A41.91,41.91,0,0,1,38.06,16l-9,21.71-16.2,8.16A42,42,0,0,1,22.1,27.45Zm-10,23L26.86,43h0L15.17,71.29a42.31,42.31,0,0,1-3-20.86ZM26.56,86.95a42.47,42.47,0,0,1-6.84-7.47l35.65-9.22L57.73,97A42,42,0,0,1,26.56,86.95Zm59.49-4.46a42,42,0,0,1-24.57,14L59.08,69.29,96,59.75A41.88,41.88,0,0,1,86.05,82.48Z" transform="translate(-8.1 -9.02)"/><g id="_Group_45" data-name="&lt;Group&gt;"><g id="_Group_46" data-name="&lt;Group&gt;"><path id="_Compound_Path_24" data-name="&lt;Compound Path&gt;" class="cls-1" d="M116.95,110.35h.58l2.49,5.51h-.66l-.64-1.45h-3l-.65,1.45h-.63Zm1.52,3.51-1.24-2.79L116,113.86Z" transform="translate(-8.1 -9.02)"/></g></g><g id="_Group_47" data-name="&lt;Group&gt;"><g id="_Group_48" data-name="&lt;Group&gt;"><path id="_Compound_Path_25" data-name="&lt;Compound Path&gt;" class="cls-1" d="M125.12,115.93a3.62,3.62,0,0,1-1.23-.21,3.24,3.24,0,0,1-1.09-.66l.71-.85a3.57,3.57,0,0,0,.77.48,2.06,2.06,0,0,0,.86.18,1.05,1.05,0,0,0,.58-.14.43.43,0,0,0,.21-.38v0a.48.48,0,0,0,0-.21.44.44,0,0,0-.16-.17,1.73,1.73,0,0,0-.34-.16l-.56-.16a6.85,6.85,0,0,1-.75-.23,2.12,2.12,0,0,1-.57-.31,1.25,1.25,0,0,1-.36-.46A1.59,1.59,0,0,1,123,112v0a1.59,1.59,0,0,1,.14-.68,1.54,1.54,0,0,1,.39-.52,1.76,1.76,0,0,1,.6-.34,2.41,2.41,0,0,1,.77-.12,3.27,3.27,0,0,1,1.11.18,3.21,3.21,0,0,1,.93.52l-.63.91a4,4,0,0,0-.72-.39,1.84,1.84,0,0,0-.7-.14.85.85,0,0,0-.53.14.42.42,0,0,0-.18.34v0a.49.49,0,0,0,.05.23.46.46,0,0,0,.18.18,1.74,1.74,0,0,0,.36.15l.58.16a5.67,5.67,0,0,1,.74.25,2.08,2.08,0,0,1,.55.33,1.25,1.25,0,0,1,.34.45,1.53,1.53,0,0,1,.11.62v0a1.69,1.69,0,0,1-.15.72,1.48,1.48,0,0,1-.41.53,1.85,1.85,0,0,1-.63.33A2.74,2.74,0,0,1,125.12,115.93Z" transform="translate(-8.1 -9.02)"/></g><g id="_Group_49" data-name="&lt;Group&gt;"><path id="_Compound_Path_26" data-name="&lt;Compound Path&gt;" class="cls-1" d="M128.09,110.39h1.3l1.44,2.31,1.44-2.31h1.3v5.47h-1.19v-3.57l-1.54,2.34h0l-1.52-2.31v3.55h-1.19Z" transform="translate(-8.1 -9.02)"/></g><g id="_Group_50" data-name="&lt;Group&gt;"><path id="_Compound_Path_27" data-name="&lt;Compound Path&gt;" class="cls-1" d="M136.68,110.35h1.11l2.34,5.51h-1.26l-.5-1.23h-2.31l-.5,1.23h-1.23Zm1.27,3.22-.73-1.77-.73,1.77Z" transform="translate(-8.1 -9.02)"/></g><g id="_Group_51" data-name="&lt;Group&gt;"><path id="_Compound_Path_28" data-name="&lt;Compound Path&gt;" class="cls-1" d="M140.91,110.39h2.5a2.16,2.16,0,0,1,1.59.55,1.69,1.69,0,0,1,.47,1.25v0a1.72,1.72,0,0,1-.32,1.08,1.88,1.88,0,0,1-.85.61l1.34,2h-1.41l-1.17-1.75h-.95v1.75h-1.2Zm2.42,2.66a1,1,0,0,0,.68-.21.71.71,0,0,0,.24-.56v0a.7.7,0,0,0-.25-.59,1.11,1.11,0,0,0-.7-.2h-1.2V113Z" transform="translate(-8.1 -9.02)"/></g><g id="_Group_52" data-name="&lt;Group&gt;"><path id="_Compound_Path_29" data-name="&lt;Compound Path&gt;" class="cls-1" d="M147.76,111.5h-1.66v-1.11h4.53v1.11H149v4.36h-1.2Z" transform="translate(-8.1 -9.02)"/></g><g id="_Group_53" data-name="&lt;Group&gt;"><path id="_Compound_Path_30" data-name="&lt;Compound Path&gt;" class="cls-1" d="M153.75,110.39h2.13a3.24,3.24,0,0,1,1.18.21,2.78,2.78,0,0,1,.92.57,2.56,2.56,0,0,1,.6.86,2.72,2.72,0,0,1,.21,1.07v0a2.75,2.75,0,0,1-.21,1.08,2.55,2.55,0,0,1-.6.87,2.83,2.83,0,0,1-.92.58,3.18,3.18,0,0,1-1.18.21h-2.13Zm2.13,4.38a1.86,1.86,0,0,0,.67-.12,1.45,1.45,0,0,0,.52-.34,1.58,1.58,0,0,0,.34-.52,1.74,1.74,0,0,0,.12-.66v0a1.78,1.78,0,0,0-.12-.66,1.56,1.56,0,0,0-.34-.52,1.49,1.49,0,0,0-.52-.34,1.8,1.8,0,0,0-.67-.12H155v3.3Z" transform="translate(-8.1 -9.02)"/></g><g id="_Group_54" data-name="&lt;Group&gt;"><path id="_Compound_Path_31" data-name="&lt;Compound Path&gt;" class="cls-1" d="M162.07,115.94a2.17,2.17,0,0,1-2.37-2.43v-3.13h1.2v3.09a1.45,1.45,0,0,0,.31,1,1.12,1.12,0,0,0,.87.34,1.14,1.14,0,0,0,.87-.33,1.38,1.38,0,0,0,.31-1v-3.13h1.2v3.09a3.17,3.17,0,0,1-.17,1.09,2.05,2.05,0,0,1-.48.77,2,2,0,0,1-.76.46A3.06,3.06,0,0,1,162.07,115.94Z" transform="translate(-8.1 -9.02)"/></g><g id="_Group_55" data-name="&lt;Group&gt;"><path id="_Compound_Path_32" data-name="&lt;Compound Path&gt;" class="cls-1" d="M165.62,110.39h2.54a1.93,1.93,0,0,1,1.43.48,1.26,1.26,0,0,1,.37.93v0a1.34,1.34,0,0,1-.06.41,1.27,1.27,0,0,1-.16.32,1.23,1.23,0,0,1-.23.25,1.5,1.5,0,0,1-.28.19,1.84,1.84,0,0,1,.75.49,1.25,1.25,0,0,1,.27.86v0a1.42,1.42,0,0,1-.14.66,1.27,1.27,0,0,1-.41.47,1.94,1.94,0,0,1-.65.28,3.49,3.49,0,0,1-.84.09h-2.6Zm2.28,2.21a1.26,1.26,0,0,0,.63-.14.47.47,0,0,0,.23-.44v0a.48.48,0,0,0-.2-.42,1,1,0,0,0-.59-.14h-1.19v1.16Zm.32,2.2a1.16,1.16,0,0,0,.62-.14.5.5,0,0,0,.23-.45v0a.52.52,0,0,0-.21-.43,1.14,1.14,0,0,0-.68-.16h-1.39v1.2Z" transform="translate(-8.1 -9.02)"/></g><g id="_Group_56" data-name="&lt;Group&gt;"><path id="_Compound_Path_33" data-name="&lt;Compound Path&gt;" class="cls-1" d="M173.07,110.35h1.11l2.34,5.51h-1.26l-.5-1.23h-2.31l-.5,1.23h-1.23Zm1.27,3.22-.73-1.77-.73,1.77Z" transform="translate(-8.1 -9.02)"/></g><g id="_Group_57" data-name="&lt;Group&gt;"><path id="_Compound_Path_34" data-name="&lt;Compound Path&gt;" class="cls-1" d="M177.35,110.39h1.2v5.47h-1.2Z" transform="translate(-8.1 -9.02)"/></g></g><g id="_Group_58" data-name="&lt;Group&gt;"><g id="_Group_59" data-name="&lt;Group&gt;"><path id="_Compound_Path_35" data-name="&lt;Compound Path&gt;" class="cls-1" d="M182,110.39h4v.55H182.6v1.88h3v.56h-3v1.92H186v.55h-4Z" transform="translate(-8.1 -9.02)"/></g><g id="_Group_60" data-name="&lt;Group&gt;"><path id="_Compound_Path_36" data-name="&lt;Compound Path&gt;" class="cls-1" d="M189,115.93a3.23,3.23,0,0,1-1.2-.21,3.41,3.41,0,0,1-1-.66l.38-.45a3.22,3.22,0,0,0,.87.58,2.5,2.5,0,0,0,1,.19,1.39,1.39,0,0,0,.89-.26.81.81,0,0,0,.33-.67v0a.89.89,0,0,0-.06-.34.7.7,0,0,0-.22-.28,1.56,1.56,0,0,0-.43-.23,5.54,5.54,0,0,0-.71-.2,5.68,5.68,0,0,1-.82-.23,2,2,0,0,1-.58-.32,1.18,1.18,0,0,1-.34-.44,1.45,1.45,0,0,1-.11-.59v0a1.34,1.34,0,0,1,.13-.59,1.4,1.4,0,0,1,.38-.47,1.82,1.82,0,0,1,.57-.31,2.19,2.19,0,0,1,.72-.11,3,3,0,0,1,1.05.17,3.21,3.21,0,0,1,.87.5l-.36.48a2.68,2.68,0,0,0-.77-.45,2.35,2.35,0,0,0-.81-.14,1.31,1.31,0,0,0-.85.25.78.78,0,0,0-.31.63v0a.91.91,0,0,0,.06.35.7.7,0,0,0,.23.28,1.65,1.65,0,0,0,.45.23,5.43,5.43,0,0,0,.74.2,3.23,3.23,0,0,1,1.35.56,1.21,1.21,0,0,1,.43,1v0a1.44,1.44,0,0,1-.14.64,1.46,1.46,0,0,1-.38.49,1.72,1.72,0,0,1-.59.31A2.47,2.47,0,0,1,189,115.93Z" transform="translate(-8.1 -9.02)"/></g><g id="_Group_61" data-name="&lt;Group&gt;"><path id="_Compound_Path_37" data-name="&lt;Compound Path&gt;" class="cls-1" d="M193.52,111h-1.84v-.57H196V111h-1.84v4.9h-.62Z" transform="translate(-8.1 -9.02)"/></g><g id="_Group_62" data-name="&lt;Group&gt;"><path id="_Compound_Path_38" data-name="&lt;Compound Path&gt;" class="cls-1" d="M199.09,110.35h.58l2.49,5.51h-.66l-.64-1.45h-3l-.65,1.45h-.63Zm1.52,3.51-1.24-2.79-1.25,2.79Z" transform="translate(-8.1 -9.02)"/></g><g id="_Group_63" data-name="&lt;Group&gt;"><path id="_Compound_Path_39" data-name="&lt;Compound Path&gt;" class="cls-1" d="M203.17,110.39h2.32a2.48,2.48,0,0,1,.83.13,1.63,1.63,0,0,1,.6.35,1.22,1.22,0,0,1,.35.87v0a1.4,1.4,0,0,1-.07.47,1.19,1.19,0,0,1-.2.36,1.35,1.35,0,0,1-.28.26,1.8,1.8,0,0,1-.32.18,2.42,2.42,0,0,1,.46.18,1.53,1.53,0,0,1,.37.27,1.19,1.19,0,0,1,.25.37,1.24,1.24,0,0,1,.09.5v0a1.38,1.38,0,0,1-.14.63,1.31,1.31,0,0,1-.4.47,1.92,1.92,0,0,1-.63.29,3,3,0,0,1-.81.1h-2.43Zm2.23,2.43a1.54,1.54,0,0,0,.91-.25.83.83,0,0,0,.35-.73v0a.78.78,0,0,0-.31-.65,1.44,1.44,0,0,0-.9-.24h-1.66v1.88Zm.22,2.49a1.65,1.65,0,0,0,1-.26.83.83,0,0,0,.36-.72v0a.79.79,0,0,0-.37-.69,2,2,0,0,0-1.08-.25h-1.72v1.93Z" transform="translate(-8.1 -9.02)"/></g><g id="_Group_64" data-name="&lt;Group&gt;"><path id="_Compound_Path_40" data-name="&lt;Compound Path&gt;" class="cls-1" d="M208.74,110.39h.62v4.9h3.08v.57h-3.7Z" transform="translate(-8.1 -9.02)"/></g><g id="_Group_65" data-name="&lt;Group&gt;"><path id="_Compound_Path_41" data-name="&lt;Compound Path&gt;" class="cls-1" d="M213.56,110.39h.62v5.47h-.62Z" transform="translate(-8.1 -9.02)"/></g><g id="_Group_66" data-name="&lt;Group&gt;"><path id="_Compound_Path_42" data-name="&lt;Compound Path&gt;" class="cls-1" d="M217.59,115.93a3.23,3.23,0,0,1-1.2-.21,3.41,3.41,0,0,1-1-.66l.38-.45a3.22,3.22,0,0,0,.87.58,2.5,2.5,0,0,0,1,.19,1.39,1.39,0,0,0,.89-.26.81.81,0,0,0,.33-.67v0a.89.89,0,0,0-.06-.34.7.7,0,0,0-.22-.28,1.56,1.56,0,0,0-.43-.23,5.54,5.54,0,0,0-.71-.2,5.68,5.68,0,0,1-.82-.23,2,2,0,0,1-.58-.32,1.18,1.18,0,0,1-.34-.44,1.45,1.45,0,0,1-.11-.59v0a1.34,1.34,0,0,1,.13-.59,1.4,1.4,0,0,1,.38-.47,1.82,1.82,0,0,1,.57-.31,2.19,2.19,0,0,1,.72-.11,3,3,0,0,1,1.05.17,3.21,3.21,0,0,1,.87.5l-.36.48a2.68,2.68,0,0,0-.77-.45,2.35,2.35,0,0,0-.81-.14,1.31,1.31,0,0,0-.85.25.78.78,0,0,0-.31.63v0a.9.9,0,0,0,.06.35.7.7,0,0,0,.23.28,1.65,1.65,0,0,0,.45.23,5.43,5.43,0,0,0,.74.2,3.23,3.23,0,0,1,1.35.56,1.21,1.21,0,0,1,.43,1v0a1.44,1.44,0,0,1-.14.64,1.46,1.46,0,0,1-.38.49,1.72,1.72,0,0,1-.59.31A2.47,2.47,0,0,1,217.59,115.93Z" transform="translate(-8.1 -9.02)"/></g><g id="_Group_67" data-name="&lt;Group&gt;"><path id="_Compound_Path_43" data-name="&lt;Compound Path&gt;" class="cls-1" d="M220.64,110.39h.62v2.43h3.16v-2.43H225v5.47h-.62V113.4h-3.16v2.46h-.62Z" transform="translate(-8.1 -9.02)"/></g><g id="_Group_68" data-name="&lt;Group&gt;"><path id="_Compound_Path_44" data-name="&lt;Compound Path&gt;" class="cls-1" d="M226.5,110.39h.63l2,3,2-3h.63v5.47h-.62v-4.43l-2,2.93h0l-2-2.92v4.42h-.6Z" transform="translate(-8.1 -9.02)"/></g><g id="_Group_69" data-name="&lt;Group&gt;"><path id="_Compound_Path_45" data-name="&lt;Compound Path&gt;" class="cls-1" d="M233.21,110.39h4v.55h-3.34v1.88h3v.56h-3v1.92h3.38v.55h-4Z" transform="translate(-8.1 -9.02)"/></g><g id="_Group_70" data-name="&lt;Group&gt;"><path id="_Compound_Path_46" data-name="&lt;Compound Path&gt;" class="cls-1" d="M238.38,110.39H239l3.45,4.38v-4.38h.6v5.47h-.49L239,111.37v4.49h-.6Z" transform="translate(-8.1 -9.02)"/></g><g id="_Group_71" data-name="&lt;Group&gt;"><path id="_Compound_Path_47" data-name="&lt;Compound Path&gt;" class="cls-1" d="M245.93,111h-1.84v-.57h4.29V111h-1.84v4.9h-.62Z" transform="translate(-8.1 -9.02)"/></g></g></svg>