<svg id="Layer_1" data-name="Layer 1" xmlns="http://www.w3.org/2000/svg" viewBox="0 0 149.37 53.72"><defs><style>.cls-1{fill:#e00;}</style></defs><title>rta-logo-red</title><path class="cls-1" d="M1013.82,343.13a1.93,1.93,0,0,0,.4-1.23,2.21,2.21,0,0,0-.37-1.27c-.48-.74-1.22-.81-2.28-.82h-4.68V344h4C1011.88,344,1013.11,344,1013.82,343.13Z" transform="translate(-930.17 -322.78)"/><path class="cls-1" d="M1050.39,353.55l-1.82-4h-8.86l-1.86,4h-4l8.25-16.47h4.57l7.79,16-1.93.21c8.82-.94,17.78-1.79,27-2.63a231.66,231.66,0,0,0-38.2-27.91c-10.8,4-22.32,8.93-34.15,14.36h4.69a6.33,6.33,0,0,1,4.45,1.33,4.49,4.49,0,0,1,1.56,3.56,4.32,4.32,0,0,1-3.52,4.4c1.22,2,3.5,5.93,4.21,7.19h-4.45c-.78-1.5-3.37-6.53-3.68-7h-3.56v7h-3.74V339c-24.23,11.29-49.62,24.65-73,37.49,47.28-13.18,83.27-19,121.85-23.13Zm-20.17.07h-3.79V340H1020v-2.84h16.61V340h-6.42Z" transform="translate(-930.17 -322.78)"/><polygon class="cls-1" points="110.92 23.95 117.1 23.95 114.17 17.38 110.92 23.95"/></svg>