<?xml version="1.0" encoding="utf-8"?>
<!-- Generator: Adobe Illustrator 21.0.2, SVG Export Plug-In . SVG Version: 6.00 Build 0)  -->
<svg version="1.1" id="text" xmlns="http://www.w3.org/2000/svg" xmlns:xlink="http://www.w3.org/1999/xlink" x="0px" y="0px"
	 viewBox="0 0 916 378" style="enable-background:new 0 0 916 378;" xml:space="preserve">
<style type="text/css">
	.st0{enable-background:new    ;}
	.st1{fill:#EE0000;}
</style>
<g class="st0">
	<g>
		<path class="st1" d="M348.9,251.4c7,1.9,11,6.2,11,13c0,9.4-6.2,16.5-21.1,16.5h-22.9v-55.4h19.7c14.2,0,20.5,4.9,20.5,13.9
			C356.1,244.9,353.3,249.3,348.9,251.4z M335.3,248.4c6.5,0,9.3-2.3,9.3-6.8s-2.8-6.9-9.3-6.9h-8.1v13.7H335.3z M327.2,271.9h9.8
			c7.3,0,11.2-1.8,11.2-7.5c0-5.8-3.9-7.6-11.2-7.6h-9.8V271.9z"/>
	</g>
	<g>
		<path class="st1" d="M376.2,263.8c0.5,7.3,6.5,9.3,12.7,9.3c4.6,0,8.5-1.1,11.9-2.7v9.4c-4,1.5-8.7,2.4-13.5,2.4
			c-12.9,0-21.8-7.1-21.8-20.5c0-12.9,8.3-20.4,19.6-20.4c11.2,0,18.3,7.3,18.2,22.6h-27.1V263.8z M384.8,249.2
			c-4.1,0-7.8,2.3-8.6,7.7H393C392.6,251.7,389.4,249.2,384.8,249.2z"/>
	</g>
	<g>
		<path class="st1" d="M441.5,272.7c7.4,0,12.3-2.6,12.3-6.9c0-3.7-2.5-6-9-7.6l-4.3-1.1c-9.5-2.4-15.6-7.6-15.6-16.9
			c0-10.1,10-15.8,22.2-15.8c4.8,0,9.4,0.7,14,2.2v9.8c-4.2-1.6-9.4-2.4-14.1-2.4c-7.3,0-10.8,2.5-10.8,6.2s2.7,5.8,8.8,7.3l4.3,1.1
			c10.5,2.6,15.8,7.3,15.8,16.1c0,10.8-9.2,17.4-22.7,17.4c-5.1,0-11.2-0.9-16.9-2.9v-10C430.5,271.6,436.3,272.7,441.5,272.7z"/>
	</g>
	<g>
		<path class="st1" d="M474.6,253v-9.1c3.6-1.6,8.8-2.7,14-2.7c9.8,0,18.5,3.7,18.5,16.2V281h-9.9v-4.8c-2.3,3.9-6.6,6-11.5,6
			c-8.7,0-14.5-5.3-14.5-12.5c0-10.4,13-13.1,22.7-13.1c0.9,0,1.9,0,2.7,0.1v-0.2c0-4.8-4.6-6.3-9.4-6.3
			C483,250.1,478.2,251.1,474.6,253z M488.3,274.1c3.8,0,8.7-2.4,8.7-9.2v-1.3c-1.1-0.1-2.3-0.2-3.6-0.2c-5.3,0-11.7,1.1-11.7,5.6
			C481.7,272.2,484.4,274.1,488.3,274.1z"/>
	</g>
	<g>
		<path class="st1" d="M541.6,224v8.9c-0.6-0.1-1.6-0.2-2.6-0.2c-5.8,0-10.2,2.6-10.2,8.3v1.3h11.7v8.7h-11.7v30h-10.6v-29.9H513
			v-8.7h5.2v-1.6c0-10.1,7.4-17,19.7-17C539,223.8,540.4,223.9,541.6,224z"/>
	</g>
	<g>
		<path class="st1" d="M552.2,263.8c0.5,7.3,6.5,9.3,12.7,9.3c4.6,0,8.5-1.1,11.9-2.7v9.4c-4,1.5-8.7,2.4-13.5,2.4
			c-12.9,0-21.8-7.1-21.8-20.5c0-12.9,8.3-20.4,19.6-20.4c11.2,0,18.3,7.3,18.2,22.6h-27.1V263.8z M560.9,249.2
			c-4.1,0-7.8,2.3-8.6,7.7h16.8C568.6,251.7,565.5,249.2,560.9,249.2z"/>
	</g>
	<g>
		<path class="st1" d="M587.2,275.5c0-3.7,3-6.8,6.8-6.8c3.7,0,6.8,3,6.8,6.8s-3.1,6.7-6.8,6.7C590.2,282.2,587.2,279.2,587.2,275.5
			z M588,242.5v-16.9h11.8v16.9l-2.7,21.5h-6.5L588,242.5z"/>
	</g>
</g>
<g class="st0">
	<g>
		<path class="st1" d="M36.7,337.2H18.6l-5.5,13.4H9.2l16.9-41.2h3L46,350.6h-3.9L36.7,337.2z M35.4,333.8L27.6,315l-7.7,18.8H35.4z
			"/>
	</g>
	<g>
		<path class="st1" d="M50,322.4l10.6,23.1l10.6-23.1h3.7L62,350.6h-3l-12.9-28.2H50z"/>
	</g>
	<g>
		<path class="st1" d="M76.6,336.5c0-9.7,6.1-14.9,13.9-14.9s13.9,5.2,13.9,14.9s-6.1,14.9-13.9,14.9S76.6,346.2,76.6,336.5z
			 M80.3,336.5c0,7.8,4.8,11.7,10.2,11.7s10.2-3.9,10.2-11.7s-4.8-11.7-10.2-11.7S80.3,328.7,80.3,336.5z"/>
	</g>
	<g>
		<path class="st1" d="M112.4,308.9c1.6,0,2.8,1.3,2.8,2.9c0,1.5-1.3,2.8-2.8,2.8c-1.6,0-2.9-1.3-2.9-2.8
			C109.5,310.2,110.8,308.9,112.4,308.9z M110.6,350.6v-28.2h3.5v28.2H110.6z"/>
	</g>
	<g>
		<path class="st1" d="M120.2,337.5c0-11.1,8.8-15.9,18-15.9c1.3,0,2.6,0.1,3.9,0.3v-13.3h3.5v42h-3.5v-4.4c-1.6,3-5.2,5.2-9.6,5.2
			C125.3,351.4,120.2,346,120.2,337.5z M142.1,339.4v-14.3c-1.3-0.2-2.6-0.3-3.8-0.3c-7.6,0-14.5,3.7-14.5,12.6
			c0,6.3,3.7,10.8,9.2,10.8C138.3,348.2,142.1,344.3,142.1,339.4z"/>
	</g>
	<g>
		<path class="st1" d="M164.8,322.4h3.5V339c0,5.6,2.8,9.2,8.1,9.2c5.2,0,8.2-3.5,8.2-9.2v-16.6h3.5v28.2h-3.5v-3.9
			c-1.6,3-4.5,4.8-9,4.8c-6,0-10.7-3.5-10.7-11.9v-17.2H164.8z"/>
	</g>
	<g>
		<path class="st1" d="M194.8,349.4V346c2.1,1.2,5.7,2.2,9.3,2.2c2.7,0,8-0.6,8-5c0-3-2.7-4.2-6.2-5l-3.1-0.8
			c-5.1-1.2-8.2-3.7-8.2-8.2c0-4.6,4.8-7.6,11.3-7.6c2.4,0,5.6,0.4,7.6,1.2v3.4c-2.4-1-5.2-1.4-7.8-1.4c-3.8,0-7.4,1.3-7.4,4.3
			c0,2.6,2,4,5.2,4.8l3.4,0.8c6.3,1.5,9,3.9,9,8.2c0,6-5.9,8.4-11.3,8.4C201.4,351.4,197.3,350.7,194.8,349.4z"/>
	</g>
	<g>
		<path class="st1" d="M224.1,308.9c1.6,0,2.8,1.3,2.8,2.9c0,1.5-1.3,2.8-2.8,2.8c-1.6,0-2.9-1.3-2.9-2.8
			C221.2,310.2,222.5,308.9,224.1,308.9z M222.3,350.6v-28.2h3.5v28.2H222.3z"/>
	</g>
	<g>
		<path class="st1" d="M237.4,322.4v4.1c1.6-3,4.8-4.9,9.3-4.9c6,0,11,3.5,11,11.9v17.1h-3.5V334c0-5.6-3.1-9.2-8.4-9.2
			c-5.2,0-8.5,3.5-8.5,9.2v16.6h-3.5v-28.2H237.4z"/>
	</g>
	<g>
		<path class="st1" d="M264.9,360.5v-3.4c2.4,1.4,5.6,2.2,9.6,2.2c6.2,0,10.7-2.6,10.7-10.1v-3c-1.6,3-5.3,5.2-9.6,5.2
			c-7.6,0-12.4-5.5-12.4-13.9c0-10.4,8-15.9,18-15.9c2.4,0,4.9,0.3,7.4,0.9v26.2c0,10.3-7.1,13.7-14,13.7
			C270.8,362.5,267.2,361.7,264.9,360.5z M285.2,339.4v-14.3c-1.3-0.2-2.6-0.3-3.8-0.3c-7.6,0-14.5,3.7-14.5,12.6
			c0,6.3,3.5,10.8,9.2,10.8C281.2,348.2,285.2,344.3,285.2,339.4z"/>
	</g>
	<g>
		<path class="st1" d="M304.9,322.4h3.9l10.6,23.1l10.6-23.1h3.7l-18.2,39.5h-3.7l5.6-12.2L304.9,322.4z"/>
	</g>
	<g>
		<path class="st1" d="M335.4,336.5c0-9.7,6.1-14.9,13.9-14.9s13.9,5.2,13.9,14.9s-6.1,14.9-13.9,14.9S335.4,346.2,335.4,336.5z
			 M339,336.5c0,7.8,4.8,11.7,10.2,11.7s10.2-3.9,10.2-11.7s-4.8-11.7-10.2-11.7S339,328.7,339,336.5z"/>
	</g>
	<g>
		<path class="st1" d="M368.9,322.4h3.5V339c0,5.6,2.8,9.2,8.1,9.2c5.2,0,8.2-3.5,8.2-9.2v-16.6h3.5v28.2h-3.5v-3.9
			c-1.6,3-4.5,4.8-9,4.8c-6,0-10.7-3.5-10.7-11.9v-17.2H368.9z"/>
	</g>
	<g>
		<path class="st1" d="M403.8,322.4v4.4c1.6-3,4.8-4.8,9.3-4.8h0.6v3.3c-0.5-0.1-0.9-0.1-1.4-0.1c-5.2,0-8.5,3.5-8.5,9.2v16.2h-3.5
			v-28.2H403.8z"/>
	</g>
	<g>
		<path class="st1" d="M429.9,322.4h3.5v4.4c1.6-3,5.2-5.2,9.6-5.2c7.2,0,12.4,5.5,12.4,13.9c0,11.1-8.8,15.9-18,15.9
			c-1.3,0-2.6-0.1-3.9-0.3v10.8H430v-39.5H429.9z M451.7,335.6c0-6.3-3.8-10.8-9.2-10.8c-5.3,0-9.1,3.9-9.1,8.8v14.3
			c1.3,0.2,2.6,0.3,3.8,0.3C444.8,348.2,451.7,344.6,451.7,335.6z"/>
	</g>
	<g>
		<path class="st1" d="M464.9,308.6v17.9c1.6-3,4.8-4.9,9.3-4.9c6,0,11,3.5,11,11.9v17.1h-3.5V334c0-5.6-3.1-9.2-8.4-9.2
			s-8.5,3.5-8.5,9.2v16.6h-3.5v-42H464.9z"/>
	</g>
	<g>
		<path class="st1" d="M491.1,336.5c0-9.7,6.1-14.9,13.9-14.9s13.9,5.2,13.9,14.9s-6.1,14.9-13.9,14.9S491.1,346.2,491.1,336.5z
			 M494.7,336.5c0,7.8,4.8,11.7,10.2,11.7s10.2-3.9,10.2-11.7s-4.8-11.7-10.2-11.7S494.7,328.7,494.7,336.5z"/>
	</g>
	<g>
		<path class="st1" d="M528.6,322.4v4.1c1.6-3,4.8-4.9,9.3-4.9c6,0,11,3.5,11,11.9v17.1h-3.5V334c0-5.6-3.1-9.2-8.4-9.2
			s-8.5,3.5-8.5,9.2v16.6H525v-28.2H528.6z"/>
	</g>
	<g>
		<path class="st1" d="M570.3,348.2c4.8,0,7.1-0.9,10.2-2.6v3.5c-2.4,1.1-5.5,2.3-10.2,2.3c-8.6,0-15.5-5.2-15.5-14.9
			s6.4-14.9,13.9-14.9s13.2,5,13.2,15h-23.4C558.5,344.3,564,348.2,570.3,348.2z M558.7,333.4H578c-0.9-5.9-4.6-8.6-9.3-8.6
			C564.1,324.8,559.6,327.6,558.7,333.4z"/>
	</g>
	<g>
		<path class="st1" d="M636.4,322.4h3.9l-9.5,28.2h-2.9l-9.3-23.3l-9.3,23.3h-2.8l-9.5-28.2h3.8l7.4,22.3l8.9-22.3h2.9l8.9,22.3
			L636.4,322.4z"/>
	</g>
	<g>
		<path class="st1" d="M649,308.6v17.9c1.6-3,4.8-4.9,9.3-4.9c6,0,11,3.5,11,11.9v17.1h-3.5V334c0-5.6-3.1-9.2-8.4-9.2
			s-8.5,3.5-8.5,9.2v16.6h-3.5v-42H649z"/>
	</g>
	<g>
		<path class="st1" d="M678.6,308.9c1.6,0,2.8,1.3,2.8,2.9c0,1.5-1.3,2.8-2.8,2.8c-1.6,0-2.9-1.3-2.9-2.8
			C675.7,310.2,677,308.9,678.6,308.9z M676.8,350.6v-28.2h3.5v28.2H676.8z"/>
	</g>
	<g>
		<path class="st1" d="M688.4,308.6h3.5v35c0,3.9,2.1,4.5,5.6,4.3v3.1c-0.6,0.1-1.3,0.1-1.9,0.1c-5,0-7.2-2.3-7.2-7.6L688.4,308.6
			L688.4,308.6z"/>
	</g>
	<g>
		<path class="st1" d="M717.1,348.2c4.8,0,7.1-0.9,10.2-2.6v3.5c-2.4,1.1-5.5,2.3-10.2,2.3c-8.6,0-15.5-5.2-15.5-14.9
			s6.4-14.9,13.9-14.9s13.2,5,13.2,15h-23.4C705.3,344.3,710.8,348.2,717.1,348.2z M705.5,333.4h19.3c-0.9-5.9-4.6-8.6-9.3-8.6
			C710.9,324.8,706.4,327.6,705.5,333.4z"/>
	</g>
	<g>
		<path class="st1" d="M744.6,337.5c0-11.1,8.8-15.9,18-15.9c1.3,0,2.6,0.1,3.9,0.3v-13.3h3.5v42h-3.5v-4.4c-1.6,3-5.2,5.2-9.6,5.2
			C749.6,351.4,744.6,346,744.6,337.5z M766.5,339.4v-14.3c-1.3-0.2-2.6-0.3-3.8-0.3c-7.6,0-14.5,3.7-14.5,12.6
			c0,6.3,3.7,10.8,9.2,10.8C762.7,348.2,766.5,344.3,766.5,339.4z"/>
	</g>
	<g>
		<path class="st1" d="M781.6,322.4v4.4c1.6-3,4.8-4.8,9.3-4.8h0.6v3.3c-0.5-0.1-0.9-0.1-1.4-0.1c-5.2,0-8.5,3.5-8.5,9.2v16.2h-3.5
			v-28.2H781.6z"/>
	</g>
	<g>
		<path class="st1" d="M797.9,308.9c1.6,0,2.8,1.3,2.8,2.9c0,1.5-1.3,2.8-2.8,2.8c-1.6,0-2.9-1.3-2.9-2.8
			C795,310.2,796.3,308.9,797.9,308.9z M796.1,350.6v-28.2h3.5v28.2H796.1z"/>
	</g>
	<g>
		<path class="st1" d="M808.1,322.4l10.6,23.1l10.6-23.1h3.7l-13,28.2h-2.9l-12.9-28.2H808.1z"/>
	</g>
	<g>
		<path class="st1" d="M839.3,308.9c1.6,0,2.8,1.3,2.8,2.9c0,1.5-1.3,2.8-2.8,2.8c-1.6,0-2.9-1.3-2.9-2.8
			C836.4,310.2,837.7,308.9,839.3,308.9z M837.5,350.6v-28.2h3.5v28.2H837.5z"/>
	</g>
	<g>
		<path class="st1" d="M852.6,322.4v4.1c1.6-3,4.8-4.9,9.3-4.9c6,0,11,3.5,11,11.9v17.1h-3.5V334c0-5.6-3.1-9.2-8.4-9.2
			s-8.5,3.5-8.5,9.2v16.6H849v-28.2H852.6z"/>
	</g>
	<g>
		<path class="st1" d="M880.1,360.5v-3.4c2.4,1.4,5.6,2.2,9.6,2.2c6.2,0,10.7-2.6,10.7-10.1v-3c-1.6,3-5.3,5.2-9.6,5.2
			c-7.6,0-12.4-5.5-12.4-13.9c0-10.4,8-15.9,18-15.9c2.4,0,4.9,0.3,7.4,0.9v26.2c0,10.3-7.1,13.7-14,13.7
			C886,362.5,882.5,361.7,880.1,360.5z M900.4,339.4v-14.3c-1.3-0.2-2.6-0.3-3.8-0.3c-7.6,0-14.5,3.7-14.5,12.6
			c0,6.3,3.5,10.8,9.2,10.8C896.5,348.2,900.4,344.3,900.4,339.4z"/>
	</g>
</g>
<g id="_" class="st0">
	<g>
		<path class="st1" d="M390.1,41.3c0,0.5-0.2,3-0.5,7.3l-1.2,13h-2.3l-1.1-13c-0.4-4.3-0.6-6.8-0.6-7.3V21.5h5.7V41.3z M390.1,72
			h-5.7v-6h5.7V72z"/>
		<path class="st1" d="M443.2,72h-3.6c-7.7,0-12.6-3.8-14.9-11.4c-2.3,4-6.3,6-11.9,6c-8,0-13.9-8.2-13.9-18.6
			c0-11.1,5.9-18.9,14.8-18.9h16.5v25c0,7.8,3.7,12.4,10,12.4h3V72z M424.6,47V33.2h-9.9c-6.2,0-10.4,6.3-10.4,14.5
			c0,8,4.1,14.6,10.2,14.6C421.1,62.3,424.4,57.3,424.6,47z"/>
		<path class="st1" d="M468.7,72h-26.9v-5.4h5c3.4,0,5.5-1.1,6.6-3.2c0.8-1.5,1.2-4,1.2-7.6V36.6h5.5v21.7c0,3.4-0.5,6.2-1.5,8.3
			h10.1V72z M460,83.9h-5.5v-6.6h5.5V83.9z"/>
		<path class="st1" d="M494.2,72h-26.9v-5.4h5c3.4,0,5.5-1.1,6.6-3.2c0.8-1.5,1.2-4,1.2-7.6V36.6h5.5v21.7c0,3.4-0.5,6.2-1.5,8.3
			h10.1V72z M475.3,31h-5.5v-6.6h5.5V31z M485.5,31H480v-6.6h5.5V31z"/>
		<path class="st1" d="M511.2,36.6v21.7c0,9.1-3.8,13.7-11.5,13.7h-6.8v-5.4h5c3.4,0,5.5-1.1,6.6-3.3c0.8-1.4,1.2-3.9,1.2-7.5V36.6
			H511.2z M511.2,31h-5.5v-6.6h5.5V31z"/>
		<path class="st1" d="M531.4,80.2l-3,0.4c-0.4-1.8-1.3-2.7-3-2.7c-2.1,0-3.2,1.4-3.2,4.2c0,1.1,0.2,2,0.8,2.7h8.4v3.1h-15v-3.1h3
			c-0.3-0.8-0.5-1.7-0.5-2.7c0-2,0.5-3.6,1.4-4.8c1.2-1.3,2.8-2,4.9-2C528.6,75.3,530.7,76.9,531.4,80.2z M527.9,72h-5.5V21.5h5.5
			V72z"/>
	</g>
</g>
<g>
	<path class="st1" d="M40.9,134.1c0,4-1.1,7.3-3.4,9.8c-2.3,2.7-5.5,4.1-9.4,4.1c-4,0-7.1-1.3-9.5-4c-2.2-2.5-3.4-5.8-3.4-9.9
		c0-4,1.1-7.3,3.5-9.8c2.3-2.7,5.5-4,9.4-4c4,0,7.1,1.3,9.5,4C39.8,126.8,40.9,130.1,40.9,134.1z M36.1,133.7c0-2.8-0.5-5.2-1.6-6.9
		c-1.4-2-3.4-3-6.1-3c-2.9,0-5,1.1-6.5,3.2c-1.2,1.9-1.8,4.3-1.8,7.4c0,2.8,0.6,5.2,1.8,6.9c1.4,2.1,3.5,3.1,6.2,3.1
		C33.5,144.5,36.1,140.9,36.1,133.7z M26.6,116.4h-4.3v-5.1h4.3V116.4z M34.5,116.4h-4.3v-5.1h4.3V116.4z"/>
	<path class="st1" d="M73.2,148H46.6v-4.2h22.2c0-5.3-1-9.7-2.9-12.9c-2.4-3.9-6.1-5.9-11.1-6.2h-1.6v-4c8.5,0,14.3,3.4,17.3,10.1
		C72.3,134.8,73.2,140.5,73.2,148z"/>
	<path class="st1" d="M94.5,148h-4.7c-2.2,0-4-0.8-5.5-2.3c-1.7-1.7-2.6-4.1-2.6-7.3v-29.3H86v26.8c0,2.8,0.4,4.7,1.2,5.9
		c0.7,1,1.8,1.6,3.4,1.9c0.4,0.1,0.9,0.1,3.8,0.1V148z"/>
	<path class="st1" d="M114.2,148H93.5v-4.1h3.8c2.6,0,4.3-0.8,5.1-2.5c0.6-1.1,0.9-3.1,0.9-5.8v-14.8h4.2v16.7
		c0,2.6-0.4,4.7-1.1,6.4h7.8V148z M99.7,157.2h-4.3v-5.1h4.3V157.2z M107.6,157.2h-4.3v-5.1h4.3V157.2z"/>
	<path class="st1" d="M152.3,148h-5.9c-3.4,0-5.6-0.1-6.9-0.4c-2.2-0.4-4.6-1.4-7.1-2.9c-2.6,1.5-5,2.5-7.2,2.9
		c-1.3,0.2-3.5,0.4-7,0.4h-5.9v-4.2h9.5c2.2,0,4.3-0.5,6.1-1.4c-2.7-1.3-4.9-3.1-6.4-5.6c-1.4-2.3-2.2-4.9-2.2-7.6
		c0-3.4,1.1-6.3,3.3-8.6c2.4-2.6,5.6-3.8,9.7-3.8c4.1,0,7.3,1.3,9.7,3.8c2.2,2.3,3.2,5.2,3.2,8.6c0,2.7-0.7,5.2-2.2,7.6
		c-1.5,2.5-3.7,4.3-6.4,5.6c1.9,1,3.9,1.4,6.1,1.4h9.5V148z M132.3,139.8c2.7-1.1,4.7-2.8,6.2-4.9c1.4-2,2.1-4.1,2.1-6.3
		c0-2.3-0.7-4.3-2.2-5.8c-1.5-1.6-3.6-2.5-6.2-2.5c-5.2,0-8.3,3.6-8.3,8.2c0,2.2,0.7,4.3,2,6.3C127.4,137.1,129.6,138.7,132.3,139.8
		z M130.7,111.7h-4.3v-5.1h4.3V111.7z M138.5,111.7h-4.3v-5.1h4.3V111.7z"/>
	<path class="st1" d="M164.9,109.2v28.3c0,7-2.9,10.6-8.8,10.6h-5.2v-4.1h3.8c2.6,0,4.3-0.8,5.1-2.5c0.6-1.1,0.9-3,0.9-5.8v-26.4
		H164.9z"/>
	<path class="st1" d="M177.1,148h-4.2v-38.8h4.2V148z"/>
	<path class="st1" d="M214.2,137.6l-4.1,0.5c-0.4-2.5-1.7-3.7-3.9-3.7c-2.8,0-4.3,1.9-4.3,5.7c0,1.5,0.3,2.7,1,3.7h11.3v4.2h-20
		v-4.2h4.2c-0.5-1.1-0.7-2.3-0.7-3.7c0-2.6,0.7-4.7,2-6.4c1.5-1.8,3.7-2.7,6.5-2.7C210.6,131.1,213.3,133.2,214.2,137.6z"/>
	<path class="st1" d="M235.5,148h-4.7c-2.2,0-4-0.8-5.5-2.3c-1.7-1.7-2.6-4.1-2.6-7.3v-29.3h4.3v26.8c0,2.8,0.4,4.7,1.2,5.9
		c0.7,1,1.8,1.6,3.4,1.9c0.4,0.1,0.9,0.1,3.8,0.1V148z"/>
	<path class="st1" d="M255.2,148h-20.7v-4.1h3.8c2.6,0,4.3-0.8,5.1-2.5c0.6-1.1,0.9-3.1,0.9-5.8v-14.8h4.2v16.7
		c0,2.6-0.4,4.7-1.1,6.4h7.8V148z M248.6,116.4h-4.3v-5.1h4.3V116.4z"/>
	<path class="st1" d="M268.5,120.8v16.7c0,7-2.9,10.6-8.8,10.6h-5.3v-4.1h3.9c2.6,0,4.3-0.8,5.1-2.5c0.6-1.1,0.9-3,0.9-5.8v-14.8
		H268.5z M260.7,116.4h-4.3v-5.1h4.3V116.4z M264.6,109.8h-4.3v-5.1h4.3V109.8z M268.5,116.4h-4.3v-5.1h4.3V116.4z"/>
	<path class="st1" d="M284.6,100.5l-2.5,0.2c-0.2-1.4-1-2.1-2.2-2.1c-1.6,0-2.5,1.1-2.5,3.2c0,0.8,0.2,1.6,0.6,2.2h6.4v2.4H273v-2.4
		h2.4c-0.3-0.7-0.4-1.4-0.4-2.1c0-3.1,1.6-5.3,4.9-5.3C282.5,96.7,284,98,284.6,100.5z M280.8,148h-4.2v-38.8h4.2V148z"/>
	<path class="st1" d="M300.8,136.5c0,4.7,1,8.6,2.9,11.8c2.3,3.8,5.6,5.6,9.9,5.6c4.4,0,7.7-1.9,9.9-5.6c1.9-3.1,2.8-7,2.8-11.8
		v-27.3h4.2v28.1c0,6.1-1.7,11-5,14.9c-3.2,3.8-7.1,5.7-11.9,5.7s-8.8-1.9-12.1-5.8c-3.2-3.8-4.9-8.8-4.9-14.9v-5.8h4.2V136.5z"/>
	<path class="st1" d="M351.8,148H347c-2.2,0-4-0.8-5.5-2.3c-1.7-1.7-2.6-4.1-2.6-7.3v-29.3h4.3v26.8c0,2.8,0.4,4.7,1.2,5.9
		c0.7,1,1.8,1.6,3.4,1.9c0.4,0.1,0.9,0.1,3.8,0.1V148z"/>
	<path class="st1" d="M389.9,148h-5.9c-3.4,0-5.6-0.1-6.9-0.4c-2.2-0.4-4.6-1.4-7.1-2.9c-2.6,1.5-5,2.5-7.2,2.9
		c-1.3,0.2-3.5,0.4-7,0.4h-5.9v-4.2h9.5c2.2,0,4.3-0.5,6.1-1.4c-2.7-1.3-4.9-3.1-6.4-5.6c-1.4-2.3-2.2-4.9-2.2-7.6
		c0-3.4,1.1-6.3,3.3-8.6c2.4-2.6,5.6-3.8,9.7-3.8c4.1,0,7.3,1.3,9.7,3.8c2.2,2.3,3.2,5.2,3.2,8.6c0,2.7-0.7,5.2-2.2,7.6
		c-1.5,2.5-3.7,4.3-6.4,5.6c1.9,1,3.9,1.4,6.1,1.4h9.5V148z M369.9,139.8c2.7-1.1,4.7-2.8,6.2-4.9c1.4-2,2.1-4.1,2.1-6.3
		c0-2.3-0.7-4.3-2.2-5.8c-1.5-1.6-3.6-2.5-6.2-2.5c-5.2,0-8.3,3.6-8.3,8.2c0,2.2,0.7,4.3,2,6.3C365,137.1,367.2,138.7,369.9,139.8z
		 M368.3,111.7H364v-5.1h4.3V111.7z M376.1,111.7h-4.3v-5.1h4.3V111.7z"/>
	<path class="st1" d="M409.1,148h-20.7v-4.1h3.8c2.6,0,4.3-0.8,5.1-2.5c0.6-1.1,0.9-3.1,0.9-5.8v-14.8h4.2v16.7
		c0,2.6-0.4,4.7-1.1,6.4h7.8V148z M402.5,116.4h-4.3v-5.1h4.3V116.4z"/>
	<path class="st1" d="M422.1,109.2v28.3c0,7-2.9,10.6-8.8,10.6h-5.2v-4.1h3.8c2.6,0,4.3-0.8,5.1-2.5c0.6-1.1,0.9-3,0.9-5.8v-26.4
		H422.1z"/>
	<path class="st1" d="M434.4,148h-4.2v-38.8h4.2V148z"/>
	<path class="st1" d="M504.7,148h-37.2c-11.5,0-17.3-5.8-17.3-17.5v-9.8h4.2v9.8c0,8.9,4.3,13.3,12.7,13.3h17.4
		c4.4,0,5.9-1.7,5.9-8.2v-26.4h4.2v28.3c0,2.6-0.4,4.7-1.1,6.4h11.2V148z M479.7,120.3l-3,0.2c-0.3-1.7-1.2-2.5-2.8-2.5
		c-2,0-3,1.3-3,4c0,1.1,0.2,2,0.7,2.6h7.9v2.9h-14.2v-2.9h2.9c-0.3-0.8-0.5-1.7-0.5-2.6c0-3.9,2.2-6.5,6-6.5
		C477,115.6,479,117.2,479.7,120.3z"/>
	<path class="st1" d="M542.6,148h-5.9c-3.4,0-5.6-0.1-6.9-0.4c-2.2-0.4-4.6-1.4-7.1-2.9c-2.6,1.5-5,2.5-7.2,2.9
		c-1.3,0.2-3.5,0.4-7,0.4h-5.9v-4.2h9.5c2.2,0,4.3-0.5,6.1-1.4c-2.7-1.3-4.9-3.1-6.4-5.6c-1.4-2.3-2.2-4.9-2.2-7.6
		c0-3.4,1.1-6.3,3.3-8.6c2.4-2.6,5.6-3.8,9.7-3.8c4.1,0,7.3,1.3,9.7,3.8c2.2,2.3,3.2,5.2,3.2,8.6c0,2.7-0.7,5.2-2.2,7.6
		c-1.5,2.5-3.7,4.3-6.4,5.6c1.9,1,3.9,1.4,6.1,1.4h9.5V148z M522.6,139.8c2.7-1.1,4.7-2.8,6.2-4.9c1.4-2,2.1-4.1,2.1-6.3
		c0-2.3-0.7-4.3-2.2-5.8c-1.5-1.6-3.6-2.5-6.2-2.5c-5.2,0-8.3,3.6-8.3,8.2c0,2.2,0.7,4.3,2,6.3C517.8,137.1,519.9,138.7,522.6,139.8
		z M524.8,111.6h-4.3v-5.1h4.3V111.6z"/>
	<path class="st1" d="M555.6,120.8v16.7c0,7-2.9,10.6-8.8,10.6h-5.3v-4.1h3.9c2.6,0,4.3-0.8,5.1-2.5c0.6-1.1,0.9-3,0.9-5.8v-14.8
		H555.6z M547.7,116.4h-4.3v-5.1h4.3V116.4z M555.6,116.4h-4.3v-5.1h4.3V116.4z"/>
	<path class="st1" d="M576.8,148h-4.7c-2.2,0-4-0.8-5.5-2.3c-1.7-1.7-2.6-4.1-2.6-7.3v-29.3h4.3v26.8c0,2.8,0.4,4.7,1.2,5.9
		c0.7,1,1.8,1.6,3.4,1.9c0.4,0.1,0.9,0.1,3.8,0.1V148z"/>
	<path class="st1" d="M614.6,148h-38.8v-4.1h10.3c-1.8-2.2-2.7-4.9-2.7-8.3c0-6.7,4.3-11.7,10.9-11.7c6.4,0,10.6,4.6,10.6,11.6
		c0,3.4-1,6.1-2.8,8.3h8.8c0.4-1.6,0.5-3.2,0.5-4.9c0-10-6.4-17.5-14.1-19.7v-4.3c4.7,0.8,10.7,4.9,13.9,9.7
		c2.8,4.1,4.3,9.2,4.3,15.2C615.5,142.5,615.2,145.2,614.6,148z M600.5,135.3c0-5.2-2.2-7.9-6.1-7.9c-4.3,0-6.7,3.1-6.7,8.5
		c0,4.7,2.3,8,6.4,8C598.4,143.8,600.5,141,600.5,135.3z"/>
	<path class="st1" d="M673.2,134.3c0,8-5,13.6-12.5,13.6c-8,0-12.6-5.6-12.6-13.6c0-4,1.2-7.3,3.5-9.8h-8.2c-5.5,0-8.6,5-8.6,13.2
		v20.1h-4.2v-20.3c0-11.2,4.3-16.6,12.8-16.6h17.3C668.4,120.8,673.2,126.1,673.2,134.3z M668.2,133.9c0-5.8-2.6-9.3-7.2-9.3
		c-4.9,0-7.7,3.8-7.7,10c0,5.6,2.8,9.4,7.4,9.4C665.7,143.9,668.2,140.6,668.2,133.9z"/>
	<path class="st1" d="M713.8,148h-36.1v-4.2h22.2c0-5.3-1-9.7-2.9-12.9c-2.4-3.9-6.1-5.9-11.1-6.2h-1.6v-4c12.7,0,19.3,7.7,20,23.1
		h9.5V148z"/>
	<path class="st1" d="M760.3,148h-48.2v-4.2h36.5c0.1-0.8,0.1-1.5,0.1-2.2c0-10.1-5.3-16-14.8-16c-5.1,0-8.9,2-11.3,5.9
		c-0.6-0.7-1.8-1.9-3.7-3.7c3.4-4.3,8.3-6.4,14.9-6.4c11.9,0,19.8,7.9,19.8,20.4v1.9h6.6V148z M735.9,116.4h-4.3v-5.1h4.3V116.4z"/>
	<path class="st1" d="M779.7,148H759v-4.1h3.8c2.6,0,4.3-0.8,5.1-2.5c0.6-1.1,0.9-3.1,0.9-5.8v-14.8h4.2v16.7c0,2.6-0.4,4.7-1.1,6.4
		h7.8V148z M765.1,116.4h-4.3v-5.1h4.3V116.4z M773,116.4h-4.3v-5.1h4.3V116.4z"/>
	<path class="st1" d="M835.3,148h-57v-4.2h5.6c3.8,0,6.3-2.6,6.3-7.7v-15.4h4.3v16.7c0,2.5-0.4,4.5-1,6.1v0.2h7.9
		c3.8,0,5.1-1.9,5.1-8.2v-14.8h4.2v16.7c0,2.6-0.4,4.7-1.1,6.4h7.2c4.5,0,6-1.9,6-8.2v-14.8h4.2v16.7c0,2.6-0.4,4.7-1.2,6.4h9.7V148
		z"/>
	<path class="st1" d="M848.6,120.8v16.7c0,7-2.9,10.6-8.8,10.6h-5.3v-4.1h3.9c2.6,0,4.3-0.8,5.1-2.5c0.6-1.1,0.9-3,0.9-5.8v-14.8
		H848.6z M840.7,116.4h-4.3v-5.1h4.3V116.4z M848.6,116.4h-4.3v-5.1h4.3V116.4z"/>
	<path class="st1" d="M892.1,109.2v28.3c0,7-2.9,10.6-8.8,10.6h-17.3v-4.1h9.8l-7.7-30.1h4.6l7.6,30.1h1.8c2.5,0,4.2-0.8,5.1-2.5
		c0.6-1.1,0.9-3,0.9-5.8v-26.4H892.1z"/>
</g>
</svg>
