<?xml version="1.0" encoding="UTF-8"?>
<svg width="687px" height="194px" viewBox="0 0 687 194" version="1.1" xmlns="http://www.w3.org/2000/svg" xmlns:xlink="http://www.w3.org/1999/xlink">
    <!-- Generator: Sketch 53.1 (72631) - https://sketchapp.com -->
    <title>logo</title>
    <desc>Created with Sketch.</desc>
    <defs>
        <path d="M57.2015826,1.83963 L57.5168012,1.83963 C57.7511586,1.83999211 57.9857252,1.84116176 58.2205,1.84314 C76.5778,1.7953 93.79695,6.313385 110.0554,14.779375 C113.26445,16.449745 115.89565,18.55425 114.1309,22.41746 C112.1172,26.825175 108.62215,25.642305 105.21745,23.93885 C74.56735,8.614775 43.8971,7.288385 13.24635,23.933325 C10.0984,25.642305 6.8653,26.687245 4.69755,22.949095 C2.249,18.721625 5.3261,16.53249 8.5878,14.718665 C23.7291452,6.29998524 39.8977717,1.86638116 57.2016072,1.83962999 L57.2015826,1.83963 Z" id="path-1"></path>
        <path d="M9.81045,0.24037 C12.66395,0.24037 14.9838,2.571205 14.9838,5.437315 C14.9838,8.301605 12.66395,10.632375 9.81045,10.632375 C6.955,10.632375 4.63515,8.301605 4.63515,5.437315 C4.63515,2.571205 6.955,0.24037 9.81045,0.24037 Z" id="path-3"></path>
        <path d="M29.4125,20.3620004 L29.4125,20.4637313 C29.4064578,21.0365684 29.2982154,21.617616 29.07645,22.181861 C28.3266572,24.0877828 26.5073381,25.2548992 24.5825177,25.264148 L24.5364171,25.264148 C23.953125,25.2613449 23.3608661,25.1520856 22.7864,24.9247375 C22.7864,24.9247375 12.60285,20.599787 6.18735,11.900213 L6.1191,11.6463425 C5.72351313,10.9027698 5.50362656,10.0676273 5.4977,9.21333522 L5.4977,9.14241332 C5.5019389,8.53168507 5.61581225,7.91220774 5.85325,7.310355 C6.8978,4.64477 9.9112,3.33125 12.56645,4.383535 C13.026,4.565665 13.4277,4.823195 13.80145,5.113875 L13.80535,5.10835 C13.81055,5.115695 13.8164,5.12304 13.8216,5.128565 C14.32925,5.52591 22.29565,13.535639 27.09525,16.2601205 C27.14855,16.291392 27.2051,16.320824 27.26035,16.355781 C27.27465,16.366818 27.29285,16.377855 27.30975,16.385213 L27.30585,16.392571 C28.615917,17.2989367 29.395967,18.7940239 29.4125,20.3620004 L29.4125,20.3620004 Z" id="path-5"></path>
        <path d="M12.17255,10.395125 C12.17255,13.259415 9.85075,15.590185 6.99725,15.590185 C4.1444,15.590185 1.82585,13.259415 1.82585,10.395125 C1.82585,7.52895 4.1444,5.2 6.99725,5.2 C9.85075,5.2 12.17255,7.52895 12.17255,10.395125 Z" id="path-7"></path>
        <path d="M9.28395,1.388075 C12.1394,1.388075 14.45925,3.718845 14.45925,6.583135 C14.45925,9.447425 12.1394,11.77826 9.28395,11.77826 C6.4311,11.77826 4.10865,9.447425 4.10865,6.583135 C4.10865,3.718845 6.4311,1.388075 9.28395,1.388075 Z" id="path-9"></path>
        <path d="M9.347,6.30136 C12.19985,6.30136 14.5223,8.632195 14.5223,11.496485 C14.5223,14.360775 12.19985,16.691545 9.347,16.691545 C6.4896,16.691545 4.1717,14.360775 4.1717,11.496485 C4.1717,8.632195 6.4896,6.30136 9.347,6.30136 Z" id="path-11"></path>
        <path d="M9.347,6.30136 C12.19985,6.30136 14.5223,8.632195 14.5223,11.496485 C14.5223,14.360775 12.19985,16.691545 9.347,16.691545 C6.4896,16.691545 4.1717,14.360775 4.1717,11.496485 C4.1717,8.632195 6.4896,6.30136 9.347,6.30136 Z" id="path-13"></path>
        <path d="M11.88005,9.74490963 L11.88005,9.91083039 C11.8357366,12.7370304 9.53130045,15.022995 6.7054,15.022995 C3.84995,15.022995 1.5301,12.69216 1.5301,9.82787 C1.5301,6.96358 3.84995,4.63281 6.7054,4.63281 C9.53130045,4.63281 11.8357366,6.91871082 11.88005,9.74490963 L11.88005,9.74490963 Z" id="path-15"></path>
        <path d="M10.7068,5.81009 C10.7068,8.67438 8.385,11.00515 5.5315,11.00515 C2.6767,11.00515 0.35815,8.67438 0.35815,5.81009 C0.35815,2.9458 2.6767,0.614965 5.5315,0.614965 C8.385,0.614965 10.7068,2.9458 10.7068,5.81009 Z" id="path-17"></path>
        <path d="M5.8643,12.841595 C3.00885,12.841595 0.689,10.512645 0.689,7.646535 C0.689,4.782245 3.00885,2.45141 5.8643,2.45141 C8.7178,2.45141 11.03765,4.782245 11.03765,7.646535 C11.03765,10.512645 8.7178,12.841595 5.8643,12.841595 Z" id="path-19"></path>
        <path d="M12.70815,0.001625 C15.56295,0.001625 17.88345,2.332395 17.88345,5.196685 C17.88345,5.92332 17.73135,6.61323 17.46355,7.242365 L17.4655,7.244185 C17.4655,7.244185 14.01075,15.66968 13.3198,27.338415 C13.3419,27.51502 13.37505,27.68792 13.37505,27.87005 C13.37505,28.267395 13.3198,28.65187 13.23595,29.025295 C13.23595,29.034525 13.234,29.04369 13.234,29.05292 L13.2262,29.056625 C12.688,31.3469 10.64635,33.06329 8.2017,33.06329 C5.34625,33.06329 3.02835,30.73434 3.02835,27.87005 C3.02835,27.87005 3.3033,15.665975 7.7142,3.91079 C7.813,3.52079 7.95795,3.15653 8.1432,2.807025 C8.16335,2.75548 8.1796,2.70582 8.2017,2.65434 L8.2199,2.663505 C9.10715,1.08329 10.7744,0.001625 12.70815,0.001625 Z" id="path-21"></path>
        <path d="M46.33915,6.752655 C91.5122,-11.35108 143.30355,18.842655 143.30355,67.65889 C143.30355,87.23611 137.4815,100.790495 121.27765,102.08003 C121.27765,102.08003 120.02965,102.0929 118.98835,102.061635 C118.9188,102.06534 118.85835,102.08003 118.79075,102.08003 C118.60745,102.08003 118.42935,102.04324 118.248,102.02673 C118.0868,102.011975 117.9568,102.000925 117.8489,101.984415 C117.80665,101.977005 117.7644,101.975185 117.7202,101.96784 C117.71305,101.964135 117.6968,101.962315 117.69095,101.962315 C117.5681,101.92923 117.4966,101.903425 117.4329,101.87398 C115.2411,101.270585 113.6174,99.27645 113.6174,96.88497 C113.6174,94.25429 115.58365,92.09642 118.11605,91.759785 C118.1401,91.737685 118.1544,91.713765 118.1765,91.689845 C118.3689,91.700895 118.56,91.689845 118.7524,91.69537 C118.76475,91.69537 118.77775,91.689845 118.79075,91.689845 C118.807,91.689845 118.82195,91.69537 118.84015,91.69537 C128.7052,91.905125 134.26725,84.921915 134.26725,70.90577 C134.26725,35.68253 109.16035,12.26966 71.82305,12.26966 C31.174,12.26966 3.47035,48.5654 11.7377,90.882285 C12.48325,94.701295 13.4654,98.479875 14.4846,102.241945 C14.5067,102.328395 14.53595,102.40932 14.5522,102.49577 C14.6146,102.8196 14.65295,103.15071 14.65295,103.48923 C14.65295,105.38034 13.6305,107.023085 12.1225,107.931915 C11.5947,108.24645 11.01555,108.481945 10.38505,108.590495 C10.0919,108.64568 9.7877,108.68429 9.4796,108.68429 C7.31185,108.68429 5.45935,107.337685 4.6878,105.43923 C4.5591,105.119105 4.46225,104.78247 4.3979,104.4329 C-7.15455,64.56463 3.8155,23.793055 46.33915,6.752655 Z" id="path-23"></path>
        <path d="M3.2409,5.74795 C3.237,5.74795 3.2318,5.74795 3.22595,5.74977 C3.34945,5.716685 3.4671,5.6836 3.5867,5.65227 C3.47035,5.681715 3.35855,5.727735 3.2409,5.74795 Z" id="path-25"></path>
        <path d="M65.84045,6.25027 C65.90285,6.566625 65.9399,6.892275 65.9399,7.22709 C65.9399,9.088755 64.93565,10.70394 63.4491,11.598015 C63.0292,11.8482 62.56965,12.026625 62.08735,12.15175 C61.9645,12.183015 61.8475,12.217985 61.7266,12.24925 C44.0128,16.960515 31.551,25.687675 18.65305,42.431935 C16.1993,45.61817 12.7062,53.337245 7.2046,49.25141 L7.2033,49.24959 C7.17925,49.233015 7.15715,49.218325 7.1318,49.20175 C6.9134,49.034375 6.71905,48.866935 6.53445,48.695855 C6.4831,48.648015 6.43175,48.600175 6.38365,48.548695 C5.0206,47.21314 4.69625,45.79107 4.9803,44.369065 C5.1012,43.274465 5.55555,42.286595 6.2465,41.506595 C7.62255,39.37817 9.7084,37.396905 10.8758,35.888385 C19.05085,25.3253 26.8008,18.70635 36.5339,12.841595 C43.5968,8.586565 50.4816,5.10965 58.7873,2.55996 C59.17015,2.442245 59.54585,2.320825 59.93585,2.20675 C60.2329,2.153385 60.53515,2.114775 60.84715,2.114775 C63.23265,2.114775 65.22295,3.774095 65.7748,6.00002 C65.7969,6.08465 65.8242,6.163755 65.84045,6.25027 Z" id="path-27"></path>
        <path d="M89.82935,44.32831 C90.22845,45.06229 90.4761,45.89377 90.4761,46.787845 C90.4761,49.64297 88.1634,51.964575 85.31705,51.964575 C83.6316,51.964575 82.14505,51.136735 81.2032,49.87658 C81.13885,49.79013 81.06735,49.711025 81.0108,49.61905 C81.00885,49.61723 81.0069,49.61723 81.0069,49.61723 C62.9304,25.777505 36.1907,14.74161 9.6473,16.161795 C6.79445,16.161795 4.47395,13.831025 4.47395,10.966735 C4.47395,8.102445 6.79445,5.77161 9.6473,5.77161 C10.0399,5.77161 13.42055,5.790005 14.7589,5.77161 C44.91955,6.40263 70.09015,18.365685 88.92585,43.095715 C89.28855,43.45263 89.58365,43.875715 89.82935,44.32831 Z" id="path-29"></path>
        <path d="M31.02645,38.419225 C31.21365,42.27873 31.4301,46.65336 26.14105,46.826325 C21.4825,46.97901 21.1068,43.13049 20.709,39.36114 C19.474,27.6133 12.47545,15.95009 4.19185,8.909875 C5.01475,9.44333 5.98585,9.75975 7.03625,9.75975 C7.3515,9.75975 7.65895,9.719255 7.9599,9.665955 C8.59755,9.55188 9.191,9.316385 9.7279,8.99262 C11.2658,8.069165 12.3045,6.39691 12.3045,4.46901 C12.3045,4.124965 12.26615,3.78833 12.20375,3.45904 C12.18555,3.37077 12.15435,3.28796 12.1342,3.199625 C11.856,2.075645 11.21835,1.09512 10.3532,0.381355 C20.449,7.92012 27.99355,20.08552 30.43105,33.531355 C30.7242,35.14472 30.9478,36.783825 31.02645,38.419225 Z" id="path-31"></path>
        <path d="M3.6543,6.73088 C3.7219,6.78054 3.7882,6.83202 3.85255,6.881745 C3.79015,6.82838 3.7219,6.78054 3.6543,6.73088 Z" id="path-33"></path>
        <path d="M4.1977,8.910785 C3.89285,8.65137 3.5854,8.39748 3.27795,8.151 C3.5542,8.437975 3.8597,8.693685 4.1977,8.910785 Z" id="path-35"></path>
        <path d="M7.95795,16.166085 C7.65765,16.21945 7.35345,16.259945 7.0343,16.259945 C5.9878,16.259945 5.01475,15.943525 4.1938,15.410005 C3.88765,15.150655 3.58345,14.896765 3.276,14.650285 C2.80475,14.162785 2.418,13.594295 2.15605,12.95411 C2.02605,12.628525 1.92725,12.28448 1.86485,11.93127 C1.80635,11.620375 1.7654,11.298495 1.7654,10.969205 C1.7654,8.05155 4.12815,5.680285 7.0343,5.680285 C8.20885,5.680285 9.2833,6.07581 10.15365,6.730685 C10.2193,6.780345 10.28755,6.83189 10.35515,6.88155 C11.2164,7.595315 11.856,8.57584 12.1329,9.69982 C12.155,9.788155 12.1875,9.8709 12.20245,9.959235 C12.2681,10.286705 12.3032,10.62516 12.3032,10.969205 C12.3032,12.897105 11.2658,14.569295 9.7305,15.492815 C9.19165,15.81658 8.5995,16.052075 7.95795,16.166085 Z" id="path-37"></path>
        <path d="M5.85195,8.40294 L5.8552,8.406645 C5.8461,8.40294 5.83505,8.40112 5.82595,8.39748 C5.83505,8.3993 5.84285,8.40112 5.85195,8.40294 Z" id="path-39"></path>
        <path d="M59.2007,86.9829415 C62.17185,88.06096 64.19855,89.957608 63.3061,93.3112375 C62.2908,97.1339785 59.3021,97.316102 55.9975,96.6354415 C26.99645,90.676898 1.9214,55.111485 5.8136,25.421825 C7.54195,12.239045 18.1415,2.533245 31.30335,1.683305 C31.4171,1.67414 31.52695,1.648335 31.64395,1.648335 C31.7031,1.648335 31.75965,1.66309 31.81815,1.66673 C32.656,1.694355 33.4347,1.93167 34.12175,2.31985 C35.6889,3.19917 36.76075,4.860375 36.76075,6.78457 C36.76075,8.7217 35.67395,10.39207 34.0925,11.26775 C33.57965,11.55102 33.01675,11.751545 32.4194,11.85093 L32.2764,11.90059 C22.4393,12.29059 15.4076,19.9563 15.9094,30.87994 C17.0365,55.308305 28.79825,72.990775 50.661,83.79488 C53.3715,85.1341205 56.342,85.945392 59.2007,86.9829415 Z" id="path-41"></path>
        <path d="M20.35345,17.306965 C20.38075,17.524065 20.39895,17.742985 20.39895,17.96743 C20.39895,20.03144 19.2426,21.81036 17.5565,22.741225 C16.77975,23.17172 15.89835,23.43848 14.9487,23.43848 C12.74065,23.43848 10.84395,22.106565 9.98985,20.206225 C9.79745,19.777615 9.6655,19.32138 9.5888,18.841225 C8.1939,14.1778 7.0044,11.160825 6.4675,9.880455 C6.38365,9.711195 6.30825,9.53823 6.2439,9.357985 C6.1893,9.236565 6.16135,9.17033 6.16135,9.17033 C6.16135,9.17033 6.1763,9.153755 6.1802,9.14823 C6.0242,8.65527 5.9176,8.140145 5.9176,7.593755 C5.9176,4.73135 8.2381,2.398695 11.0916,2.398695 C12.5593,2.398695 13.8788,3.022305 14.8187,4.010175 C14.82975,4.019405 14.8408,4.023045 14.8499,4.032275 C14.885,4.07459 14.91425,4.12425 14.9487,4.166565 C15.1489,4.39283 15.3322,4.63385 15.4895,4.8932 C17.6228,7.90283 19.11065,12.345515 20.0694,16.14067 C20.2033,16.514095 20.30405,16.900455 20.35345,17.306965 Z" id="path-43"></path>
        <path d="M3.75245,3.78612 C3.85905,3.96643 3.9546,4.14856 4.0612,4.326985 C3.96955,4.14115 3.8662,3.960905 3.75245,3.78612 Z" id="path-45"></path>
        <path d="M7.6791,8.722025 C7.7727,8.883875 7.8429,9.001655 7.85915,9.027395 C7.9547,9.204 8.06325,9.39718 8.1718,9.590295 C7.9807,9.318075 7.81495,9.027395 7.6791,8.722025 Z" id="path-47"></path>
        <path d="M40.20185,0.13949 C43.05535,0.13949 45.37715,2.470325 45.37715,5.334615 C45.37715,6.65912 44.86625,7.85486 44.05245,8.772855 C43.91855,9.14264 42.5516,10.029305 42.08945,10.159955 C41.80215,10.273965 41.50315,10.367825 41.1918,10.428535 C25.5853,15.222545 13.3874,29.481465 12.84725,47.103225 C12.3812,62.239645 16.0394,75.904335 23.25245,88.286835 C23.3571,88.465325 23.45395,88.647455 23.56055,88.8277 C23.8992,89.515725 24.1007,90.281035 24.1007,91.099645 C24.1007,93.06804 22.99765,94.76233 21.39215,95.647175 C20.6518,96.057455 19.81265,96.31128 18.90915,96.31128 C17.15545,96.31128 15.60845,95.428255 14.66855,94.08906 C14.56195,93.89588 14.45405,93.70452 14.3572,93.526095 C14.34225,93.502175 14.27075,93.38264 14.1791,93.220725 C13.96655,92.86199 13.624,92.26594 13.4277,91.86125 C9.1819,84.223165 2.7716,65.96122 2.34065,50.942515 C2.11705,26.933595 16.5269,7.13557 37.87095,0.702455 C37.88005,0.702455 39.37375,0.13949 40.20185,0.13949 Z" id="path-49"></path>
        <path d="M57.7226,48.732775 C59.319,49.62867 60.4097,51.319255 60.4097,53.280305 C60.4097,55.256045 59.30405,56.957745 57.68815,57.849935 C57.2975,58.067035 56.8763,58.23623 56.433,58.352125 C56.10085,58.40549 55.7713,58.45151 55.43915,58.497465 C53.76085,58.736665 52.07865,58.90222 50.4218,58.90222 C24.908,58.62623 3.86295,39.19799 2.24445,14.06327 C1.99355,10.172435 2.0358,5.258825 6.8978,4.896385 C12.17385,4.50086 12.05295,9.011665 12.38445,12.874875 C14.3052,35.130615 32.3232,50.0812 54.49925,48.14225 C54.78915,48.11651 55.08035,48.099935 55.37155,48.06867 L55.37545,48.06867 C56.2276,48.09623 57.0193,48.33725 57.7226,48.732775 Z" id="path-51"></path>
        <path d="M29.4132,23.98505 L29.4132,8.1473 L18.0934,8.1473 C11.052,8.1473 6.2379,15.394 6.2379,24.79165 C6.2379,33.919 10.9646,41.52375 17.91575,41.52375 C25.40125,41.52375 29.2356,35.70625 29.4132,23.98505 Z M50.62765,52.61805 L46.52685,52.61805 C37.7036,52.61805 32.0888,48.2327 29.50345,39.55535 C26.82785,44.1176 22.283,46.444 15.8661,46.444 C6.77355,46.444 0,37.0478 0,25.14825 C0,12.44355 6.77355,3.4959 16.93465,3.4959 L35.83155,3.4959 L35.83155,32.21805 C35.83155,41.1643 40.02115,46.444 47.2416,46.444 L50.62765,46.444 L50.62765,52.61805 Z" id="path-53"></path>
        <path d="M28.09785,42.6179 L1.24605,42.6179 L1.24605,36.44245 L3.05045,36.44245 C6.8834,36.44245 9.38,35.1901 10.62755,32.77455 C11.5199,31.075 11.96535,28.21225 11.96535,24.09575 L11.96535,1.9948 L18.20465,1.9948 L18.20465,26.86935 C18.20465,30.717 17.6704,33.93915 16.5102,36.3533 L28.09785,36.3533 L28.09785,42.6179 Z" id="path-55"></path>
        <path d="M42.24705,24.46535 C42.24705,20.43795 41.4435,17.2172 39.8407,14.80165 C37.96865,11.84695 35.20425,10.41625 31.3713,10.41625 C27.3593,10.41625 24.24105,12.02665 22.18995,15.15965 C20.4969,17.7521 19.6948,21.1554 19.6948,25.53795 C19.6948,29.5639 20.4969,32.87525 22.18995,35.37995 C24.24105,38.33465 27.18165,39.76535 31.01465,39.76535 C38.5043,39.76535 42.24705,34.66675 42.24705,24.46535 Z M59.62715,37.61865 L45.9912,37.61865 C42.6023,42.80635 37.61055,45.40305 31.01465,45.40305 C24.15225,45.40305 18.9829,42.80635 15.68565,37.61865 L2.49095,37.61865 L2.49095,31.354 L13.01005,31.354 C12.56315,29.47475 12.29675,27.4172 12.29675,25.18135 C12.29675,19.2762 13.9898,14.4422 17.28985,10.596 C20.67595,6.74835 25.3096,4.8691 31.10345,4.8691 C36.89725,4.8691 41.53375,6.8375 44.831,10.68515 C47.95205,14.35305 49.5563,19.18705 49.5563,25.0922 C49.5563,27.32665 49.28845,29.3856 48.7528,31.354 L59.62715,31.354 L59.62715,37.61865 Z" id="path-57"></path>
        <path d="M46.63375,21.6796 C46.63375,12.732 42.6218,7.2754 35.31255,7.2754 C27.3802,7.2754 23.2794,13.2683 23.2794,22.7537 C23.2794,31.7013 27.64805,37.4282 34.9573,37.4282 C42.712,37.4282 46.63375,32.1485 46.63375,21.6796 Z M53.49615,22.3079 C53.49615,33.94 46.2757,42.61735 34.9573,42.61735 L3.31395,42.61735 L3.31395,36.35415 L20.69545,36.35415 C17.7534,32.77395 16.238,28.12255 16.238,22.3971 C16.238,10.765 23.45845,2.0834 35.0447,2.0834 C46.3659,2.0834 53.49615,10.1381 53.49615,22.3079 Z" id="path-59"></path>
        <path d="M36.9291,42.6179 L21.5973,42.6179 C19.90425,51.833 13.84255,56.66555 3.5039,57.29105 L3.5039,51.2953 C11.7929,51.2953 15.9825,46.73445 15.9825,36.175 L15.9825,1.9948 L22.2218,1.9948 L22.2218,36.3533 L36.9291,36.3533 L36.9291,42.6179 Z" id="path-61"></path>
        <path d="M24.14265,4.7254 L24.14265,46.86975 C24.14265,57.33865 19.77545,62.61695 11.0396,62.61695 L3.28625,62.61695 L3.28625,56.4429 L8.9899,56.4429 C12.82285,56.4429 15.3194,55.19195 16.567,52.6858 C17.4593,51.0754 17.9048,48.2127 17.9048,44.0962 L17.9048,4.7254 L24.14265,4.7254 Z" id="path-63"></path>
        <polygon id="path-65" points="1.09165 4.7264 7.3295 4.7264 7.3295 62.6179 1.09165 62.6179"></polygon>
        <path d="M30.05235,20.98505 L30.05235,5.1473 L18.7325,5.1473 C11.6911,5.1473 6.877,12.394 6.877,21.79165 C6.877,30.919 11.6037,38.52375 18.5549,38.52375 C26.04175,38.52375 29.8747,32.70625 30.05235,20.98505 Z M51.2682,49.61805 L47.166,49.61805 C38.34415,49.61805 32.72795,45.2327 30.14255,36.55535 C27.46695,41.1176 22.9235,43.444 16.5038,43.444 C7.4141,43.444 0.64055,34.0478 0.64055,22.14825 C0.64055,9.44355 7.4141,0.4959 17.57515,0.4959 L36.47205,0.4959 L36.47205,29.21805 C36.47205,38.1643 40.65885,43.444 47.8821,43.444 L51.2682,43.444 L51.2682,49.61805 Z" id="path-67"></path>
        <path d="M17.3765,1.99465 L17.3765,26.8692 C17.3765,37.3395 13.00785,42.6178 4.2734,42.6178 L1.25525,42.6178 L1.25525,36.44375 L2.22515,36.44375 C6.05665,36.44375 8.55325,35.19135 9.8008,32.68525 C10.69175,31.07625 11.1358,28.21355 11.1358,24.09705 L11.1358,1.99465 L17.3765,1.99465 Z" id="path-69"></path>
        <path d="M32.14315,36.3536 L32.14315,17.4748 C32.14315,14.88095 31.33965,12.6437 29.7368,10.8536 C27.95355,8.79605 25.457,7.722 22.1597,7.722 C18.77365,7.722 16.0078,9.33095 13.87075,12.46395 C11.99865,15.23755 11.01895,18.37055 11.01895,21.7696 C11.01895,25.3484 11.8182,28.56915 13.51265,31.34415 C15.56235,34.7446 18.32675,36.44275 21.80305,36.44275 L32.14315,36.3536 Z M50.14775,42.6182 L37.8482,42.6182 C36.0649,51.8333 30.00325,56.66585 19.75195,57.2913 L19.75195,51.29555 L20.5555,51.29555 C26.2605,51.29555 29.91445,48.3437 31.42985,42.6182 L21.71425,42.6182 C16.72395,42.6182 12.62175,40.73895 9.4147,36.8913 C6.2034,33.0437 4.6006,28.21255 4.6006,22.3965 C4.6006,16.58045 6.29365,11.7479 9.6797,7.81115 C13.15885,3.87435 17.43445,1.90455 22.51635,1.90455 C32.4096,1.90455 38.56005,7.99085 38.56005,19.80125 L38.56005,36.44275 L50.14775,36.44275 L50.14775,42.6182 Z" id="path-71"></path>
        <path d="M41.1808,33.64885 C41.1808,25.955 37.8821,21.8371 32.0883,21.8371 C25.66995,21.8371 22.19505,26.4913 22.19505,34.45545 C22.19505,41.4333 25.66995,46.3536 31.73165,46.3536 C38.06115,46.3536 41.1808,42.1479 41.1808,33.64885 Z M66.02945,52.6182 L4.4555,52.6182 L4.4555,46.44415 L19.6971,46.44415 C17.02575,43.2234 15.6865,39.1069 15.6865,34.09605 C15.6865,24.1649 22.01605,16.6479 31.82045,16.6479 C41.3584,16.6479 47.5977,23.5366 47.5977,34.0069 C47.5977,39.0163 46.1697,43.13425 43.4081,46.3536 L56.5112,46.3536 C57.04685,44.03 57.3147,41.613 57.3147,39.1069 C57.3147,24.1649 47.77675,13.07055 36.3681,9.75785 L36.3681,3.31775 C43.3207,4.5687 52.3216,10.6536 57.04685,17.722 C61.2365,23.89605 63.37355,31.50075 63.37355,40.35925 C63.37355,42.4168 63.28475,44.3852 63.10715,46.3536 L66.02945,46.3536 L66.02945,52.6182 Z" id="path-73"></path>
        <path d="M21.6557,4.7254 L21.6557,46.86975 C21.6557,57.33865 17.2899,62.61695 8.55265,62.61695 L0.79935,62.61695 L0.79935,56.4429 L6.50435,56.4429 C10.3359,56.4429 12.83385,55.19195 14.08005,52.6858 C14.97235,51.0754 15.41785,48.2127 15.41785,44.0962 L15.41785,4.7254 L21.6557,4.7254 Z" id="path-75"></path>
        <polygon id="path-77" points="3.6045 4.725 9.8435 4.725 9.8435 62.6179 3.6045 62.6179"></polygon>
        <path d="M10.74995,7.90065 C10.74995,10.1266 8.9526,11.93085 6.73655,11.93085 C4.5191,11.93085 2.72175,10.1266 2.72175,7.90065 C2.72175,5.67615 4.5191,3.8719 6.73655,3.8719 C8.9526,3.8719 10.74995,5.67615 10.74995,7.90065 Z" id="path-79"></path>
        <path d="M8.34285,7.90065 C8.34285,10.1266 6.5455,11.93085 4.3295,11.93085 C2.11205,11.93085 0.3147,10.1266 0.3147,7.90065 C0.3147,5.67615 2.11205,3.8719 4.3295,3.8719 C6.5455,3.8719 8.34285,5.67615 8.34285,7.90065 Z" id="path-81"></path>
        <path d="M8.96995,7.90065 C8.96995,10.1266 7.1712,11.93085 4.9566,11.93085 C2.73915,11.93085 0.9418,10.1266 0.9418,7.90065 C0.9418,5.67615 2.73915,3.8719 4.9566,3.8719 C7.1712,3.8719 8.96995,5.67615 8.96995,7.90065 Z" id="path-83"></path>
        <path d="M11.5622,7.90065 C11.5622,10.1266 9.76485,11.93085 7.5488,11.93085 C5.33275,11.93085 3.5326,10.1266 3.5326,7.90065 C3.5326,5.67615 5.33275,3.8719 7.5488,3.8719 C9.76485,3.8719 11.5622,5.67615 11.5622,7.90065 Z" id="path-85"></path>
        <path d="M12.72745,6.9778 C12.72745,9.20375 10.9301,11.00795 8.71265,11.00795 C6.498,11.00795 4.69925,9.20375 4.69925,6.9778 C4.69925,4.75185 6.498,2.949 8.71265,2.949 C10.9301,2.949 12.72745,4.75185 12.72745,6.9778 Z" id="path-87"></path>
        <path d="M10.32105,6.9778 C10.32105,9.20375 8.5237,11.00795 6.30765,11.00795 C4.0902,11.00795 2.29285,9.20375 2.29285,6.9778 C2.29285,4.75185 4.0902,2.949 6.30765,2.949 C8.5237,2.949 10.32105,4.75185 10.32105,6.9778 Z" id="path-89"></path>
        <path d="M11.04795,7.2789 C11.04795,9.50345 9.25055,11.3077 7.03315,11.3077 C4.8171,11.3077 3.01975,9.50345 3.01975,7.2789 C3.01975,5.0544 4.8171,3.25015 7.03315,3.25015 C9.25055,3.25015 11.04795,5.0544 11.04795,7.2789 Z" id="path-91"></path>
        <path d="M8.64085,7.2789 C8.64085,9.50345 6.8421,11.3077 4.62745,11.3077 C2.41,11.3077 0.61125,9.50345 0.61125,7.2789 C0.61125,5.0544 2.41,3.25015 4.62745,3.25015 C6.8421,3.25015 8.64085,5.0544 8.64085,7.2789 Z" id="path-93"></path>
        <path d="M11.40595,7.2789 C11.40595,9.50345 9.6086,11.3077 7.39115,11.3077 C5.1751,11.3077 3.37635,9.50345 3.37635,7.2789 C3.37635,5.0544 5.1751,3.25015 7.39115,3.25015 C9.6086,3.25015 11.40595,5.0544 11.40595,7.2789 Z" id="path-95"></path>
        <path d="M8.99885,7.2789 C8.99885,9.50345 7.2015,11.3077 4.9855,11.3077 C2.76805,11.3077 0.96925,9.50345 0.96925,7.2789 C0.96925,5.0544 2.76805,3.25015 4.9855,3.25015 C7.2015,3.25015 8.99885,5.0544 8.99885,7.2789 Z" id="path-97"></path>
        <path d="M10.9505,49.9128 C10.9505,56.74315 17.3335,63.65775 29.532,63.65775 C38.487,63.65775 48.0055,58.80435 48.0055,49.80895 L48.0055,0.5918 L55.3045,0.5918 L55.3045,49.9128 C55.3045,59.97595 46.273,70.6719 29.532,70.6719 C16.9855,70.6719 3.6515,63.36025 3.6515,49.80895 L3.6515,0.5918 L10.9505,0.5918 L10.9505,49.9128 Z" id="path-99"></path>
        <path d="M28.8085,4.54925 L34.2695,4.54925 L62.8735,74.9423 L55.1945,74.9423 L46.217,53.469 L16.983,53.469 L16.5175,54.54235 C12.625,63.5504 9.823,70.2278 7.961,74.9423 L0.2045,74.9423 L28.8085,4.54925 Z M19.6855,47.0806 L43.373,47.0806 L31.664,14.2841 L19.6855,47.0806 Z" id="path-101"></path>
        <polygon id="path-103" points="9.6445 38.77555 9.6445 62.9288 44.38 62.9288 44.38 69.943 2.3455 69.943 2.3455 0.5925 44.2735 0.5925 44.2735 7.60525 9.6445 7.60525 9.6445 31.6561 43.5255 31.6561 43.5255 38.77555"></polygon>
        <path d="M26.1555,0.4878 C41.588,0.4878 48.615,12.2221 48.615,23.1229 C48.615,33.97465 41.588,45.6556 26.1555,45.6556 L7.895,45.6556 L7.895,69.94215 L0.596,69.94215 L0.596,0.4878 L26.1555,0.4878 Z M26.1555,38.74525 C33.5595,38.74525 41.5305,33.88905 41.5305,23.22675 C41.5305,15.7032 36.7195,7.60585 26.1555,7.60585 L7.895,7.60585 L7.895,38.74525 L26.1555,38.74525 Z" id="path-105"></path>
        <path d="M32.8225,4.54925 L38.2835,4.54925 L66.886,74.9423 L59.208,74.9423 L50.231,53.469 L20.9985,53.469 L20.5315,54.54235 C16.6375,63.5504 13.837,70.2278 11.975,74.9423 L4.2185,74.9423 L32.8225,4.54925 Z M23.6995,47.0806 L47.387,47.0806 L35.678,14.2841 L23.6995,47.0806 Z" id="path-107"></path>
        <path d="M30.8675,36.54275 C41.474,37.8364 52.6525,40.5318 55.16,50.67215 C55.4785,52.2212 55.6605,53.8418 55.6605,55.12005 C55.6605,67.91925 42.449,75.56765 29.675,75.56765 C14.6,75.56765 5.474,66.2678 4.5425,57.5306 L4.5325,57.365 L11.8695,57.2233 L11.9145,57.42535 L11.944,57.42535 C13.222,64.72295 22.031,68.6573 29.7815,68.6573 C38.9145,68.6573 48.3615,63.55415 48.3615,55.0162 C48.3615,54.1589 48.2395,53.18795 47.9985,52.1272 C46.3835,45.17615 37.277,44.28795 29.9625,43.57375 C18.478,42.44565 6.1365,40.087 5.0725,26.32385 L5.039,26.00815 C4.7375,21.47045 6.0225,17.24565 8.7645,13.76735 C13.1545,8.211 21.29,4.7579 29.9965,4.7579 C39.0705,4.7579 50.5465,8.8901 53.285,20.5051 L46.083,20.78715 C43.6205,13.9834 35.804,11.56165 29.8015,11.56165 L29.4225,11.56445 C23.048,11.69495 17.4565,14.0143 14.465,17.7662 C12.766,19.89475 12.007,22.6547 12.272,25.74295 C12.923,34.9039 23.2935,35.8524 30.8675,36.54275 Z" id="path-109"></path>
        <path d="M53.649,50.70625 C53.9615,52.24265 54.1415,53.85205 54.1415,55.12045 C54.1415,67.9197 40.9295,75.5681 28.1555,75.5681 C13.0805,75.5681 3.9545,66.2682 3.0215,57.5324 L3.013,57.36545 L10.35,57.2237 L10.395,57.42575 L10.4245,57.42575 C11.7025,64.7234 20.5115,68.65775 28.262,68.65775 C37.395,68.65775 46.8425,63.5546 46.8425,55.0166 C46.8425,54.1593 46.72,53.18835 46.479,52.1276 C44.864,45.17655 35.7575,44.2884 28.443,43.5742 C16.9585,42.4461 4.617,40.08745 3.5535,26.32425 L3.5195,26.00855 C3.218,21.47085 4.503,17.2461 7.245,13.76775 C11.635,8.2114 19.7705,4.75835 28.477,4.75835 C37.551,4.75835 49.027,8.8905 51.766,20.50555 L44.5635,20.78755 C42.1025,13.98385 34.2845,11.56205 28.282,11.56205 L27.9045,11.56485 C21.5285,11.69535 15.937,14.0147 12.9455,17.76665 C11.2465,19.89515 10.4875,22.6551 10.7525,25.74335 C11.405,34.90995 21.7645,35.85145 29.32,36.53895 C39.9265,37.83265 51.1105,40.5266 53.649,50.70625 Z" id="path-111"></path>
    </defs>
    <g id="Page-1" stroke="none" stroke-width="1" fill="none" fill-rule="evenodd">
        <g id="logo" transform="translate(-3.000000, -1.000000)">
            <g id="Group-2">
                <g id="Group">
                    <g id="Group-6" transform="translate(39.000000, 0.000000)">
                        <mask id="mask-2" fill="white">
                            <use xlink:href="#path-1"></use>
                        </mask>
                        <g id="Clip-5"></g>
                        <polygon id="Fill-4" fill="#1D1D1A" mask="url(#mask-2)" points="-28.68645 57.983965 147.19809 57.983965 147.19809 -30.6605 -28.68645 -30.6605"></polygon>
                    </g>
                    <g id="Group-9" transform="translate(32.500000, 162.500000)">
                        <mask id="mask-4" fill="white">
                            <use xlink:href="#path-3"></use>
                        </mask>
                        <g id="Clip-8"></g>
                        <polygon id="Fill-7" fill="#1D1D1A" mask="url(#mask-4)" points="-27.86485 43.1324075 47.483865 43.1324075 47.483865 -32.2595975 -27.86485 -32.2595975"></polygon>
                    </g>
                    <g id="Group-12" transform="translate(65.000000, 169.000000)">
                        <mask id="mask-6" fill="white">
                            <use xlink:href="#path-5"></use>
                        </mask>
                        <g id="Clip-11"></g>
                        <polygon id="Fill-10" fill="#E82227" mask="url(#mask-6)" points="-27.0023 57.7642065 61.912435 57.7642065 61.912435 -28.4795485 -27.0023 -28.4795485"></polygon>
                    </g>
                    <g id="Group-15" transform="translate(97.500000, 65.000000)">
                        <mask id="mask-8" fill="white">
                            <use xlink:href="#path-7"></use>
                        </mask>
                        <g id="Clip-14"></g>
                        <polygon id="Fill-13" fill="#1D1D1A" mask="url(#mask-8)" points="-30.67415 48.090185 44.67268 48.090185 44.67268 -27.3 -30.67415 -27.3"></polygon>
                    </g>
                    <g id="Group-18" transform="translate(156.000000, 149.500000)">
                        <mask id="mask-10" fill="white">
                            <use xlink:href="#path-9"></use>
                        </mask>
                        <g id="Clip-17"></g>
                        <polygon id="Fill-16" fill="#1D1D1A" mask="url(#mask-10)" points="-28.39135 44.278247 46.959185 44.278247 46.959185 -31.111938 -28.39135 -31.111938"></polygon>
                    </g>
                    <g id="Group-21" transform="translate(117.000000, 123.500000)">
                        <mask id="mask-12" fill="white">
                            <use xlink:href="#path-11"></use>
                        </mask>
                        <g id="Clip-20"></g>
                        <polygon id="Fill-19" fill="#1D1D1A" mask="url(#mask-12)" points="-28.3283 49.191545 47.022235 49.191545 47.022235 -26.19864 -28.3283 -26.19864"></polygon>
                    </g>
                    <g id="Group-24" transform="translate(117.000000, 123.500000)">
                        <mask id="mask-14" fill="white">
                            <use xlink:href="#path-13"></use>
                        </mask>
                        <g id="Clip-23"></g>
                        <polygon id="Fill-22" fill="#1D1D1A" mask="url(#mask-14)" points="-28.3283 49.191545 47.022235 49.191545 47.022235 -26.19864 -28.3283 -26.19864"></polygon>
                    </g>
                    <g id="Group-27" transform="translate(182.000000, 91.000000)">
                        <mask id="mask-16" fill="white">
                            <use xlink:href="#path-15"></use>
                        </mask>
                        <g id="Clip-26"></g>
                        <polygon id="Fill-25" fill="#1D1D1A" mask="url(#mask-16)" points="-30.9699 47.522995 44.380635 47.522995 44.380635 -27.86719 -30.9699 -27.86719"></polygon>
                    </g>
                    <g id="Group-30" transform="translate(175.500000, 78.000000)">
                        <mask id="mask-18" fill="white">
                            <use xlink:href="#path-17"></use>
                        </mask>
                        <g id="Clip-29"></g>
                        <polygon id="Fill-28" fill="#1D1D1A" mask="url(#mask-18)" points="-32.14185 43.50515 43.206865 43.50515 43.206865 -31.885035 -32.14185 -31.885035"></polygon>
                    </g>
                    <g id="Group-33" transform="translate(26.000000, 26.000000)">
                        <mask id="mask-20" fill="white">
                            <use xlink:href="#path-19"></use>
                        </mask>
                        <g id="Clip-32"></g>
                        <polygon id="Fill-31" fill="#1D1D1A" mask="url(#mask-20)" points="-31.811 45.341595 43.537715 45.341595 43.537715 -30.04859 -31.811 -30.04859"></polygon>
                    </g>
                    <g id="Group-36" transform="translate(0.000000, 84.500000)">
                        <mask id="mask-22" fill="white">
                            <use xlink:href="#path-21"></use>
                        </mask>
                        <g id="Clip-35"></g>
                        <polygon id="Fill-34" fill="#1D1D1A" mask="url(#mask-22)" points="-29.47165 65.56329 50.383385 65.56329 50.383385 -32.49844 -29.47165 -32.49844"></polygon>
                    </g>
                    <g id="Group-39" transform="translate(26.000000, 45.500000)">
                        <mask id="mask-24" fill="white">
                            <use xlink:href="#path-23"></use>
                        </mask>
                        <g id="Clip-38"></g>
                        <polygon id="Fill-37" fill="#1D1D1A" mask="url(#mask-24)" points="-32.40445 141.18429 175.803745 141.18429 175.803745 -31.051345 -32.40445 -31.051345"></polygon>
                    </g>
                    <g id="Group-42" transform="translate(71.500000, 32.500000)">
                        <mask id="mask-26" fill="white">
                            <use xlink:href="#path-25"></use>
                        </mask>
                        <g id="Clip-41"></g>
                        <polygon id="Fill-40" fill="#00AEEF" mask="url(#mask-26)" points="-29.27405 38.24977 36.086505 38.24977 36.086505 -26.84773 -29.27405 -26.84773"></polygon>
                    </g>
                    <g id="Group-45" transform="translate(13.000000, 26.000000)">
                        <mask id="mask-28" fill="white">
                            <use xlink:href="#path-27"></use>
                        </mask>
                        <g id="Clip-44"></g>
                        <polygon id="Fill-43" fill="#1D1D1A" mask="url(#mask-28)" points="-27.6146 82.917055 98.439575 82.917055 98.439575 -30.385225 -27.6146 -30.385225"></polygon>
                    </g>
                    <g id="Group-48" transform="translate(84.500000, 19.500000)">
                        <mask id="mask-30" fill="white">
                            <use xlink:href="#path-29"></use>
                        </mask>
                        <g id="Clip-47"></g>
                        <polygon id="Fill-46" fill="#1D1D1A" mask="url(#mask-30)" points="-28.02605 84.464575 122.97597 84.464575 122.97597 -26.728325 -28.02605 -26.728325"></polygon>
                    </g>
                    <g id="Group-51" transform="translate(117.000000, 78.000000)">
                        <mask id="mask-32" fill="white">
                            <use xlink:href="#path-31"></use>
                        </mask>
                        <g id="Clip-50"></g>
                        <polygon id="Fill-49" fill="#1D1D1A" mask="url(#mask-32)" points="-28.30815 79.33068 63.59834 79.33068 63.59834 -32.118645 -28.30815 -32.118645"></polygon>
                    </g>
                    <g id="Group-54" transform="translate(123.500000, 71.500000)">
                        <mask id="mask-34" fill="white">
                            <use xlink:href="#path-33"></use>
                        </mask>
                        <g id="Clip-53"></g>
                        <polygon id="Fill-52" fill="#00AEEF" mask="url(#mask-34)" points="-28.8457 39.381745 36.353005 39.381745 36.353005 -25.76912 -28.8457 -25.76912"></polygon>
                    </g>
                    <g id="Group-57" transform="translate(117.000000, 78.000000)">
                        <mask id="mask-36" fill="white">
                            <use xlink:href="#path-35"></use>
                        </mask>
                        <g id="Clip-56"></g>
                        <polygon id="Fill-55" fill="#00AEEF" mask="url(#mask-36)" points="-29.22205 41.410785 36.697765 41.410785 36.697765 -24.349 -29.22205 -24.349"></polygon>
                    </g>
                    <g id="Group-60" transform="translate(117.000000, 71.500000)">
                        <mask id="mask-38" fill="white">
                            <use xlink:href="#path-37"></use>
                        </mask>
                        <g id="Clip-59"></g>
                        <polygon id="Fill-58" fill="#1D1D1A" mask="url(#mask-38)" points="-30.7346 48.759945 44.802875 48.759945 44.802875 -26.819715 -30.7346 -26.819715"></polygon>
                    </g>
                    <g id="Group-63" transform="translate(97.500000, 84.500000)">
                        <mask id="mask-40" fill="white">
                            <use xlink:href="#path-39"></use>
                        </mask>
                        <g id="Clip-62"></g>
                        <polygon id="Fill-61" fill="#1D1D1A" mask="url(#mask-40)" points="-26.67405 40.906645 38.355395 40.906645 38.355395 -24.102585 -26.67405 -24.102585"></polygon>
                    </g>
                    <g id="Group-66" transform="translate(65.000000, 91.000000)">
                        <mask id="mask-42" fill="white">
                            <use xlink:href="#path-41"></use>
                        </mask>
                        <g id="Clip-65"></g>
                        <polygon id="Fill-64" fill="#1D1D1A" mask="url(#mask-42)" points="-27.0868 129.443476 96.018 129.443476 96.018 -30.8516585 -27.0868 -30.8516585"></polygon>
                    </g>
                    <g id="Group-69" transform="translate(104.000000, 97.500000)">
                        <mask id="mask-44" fill="white">
                            <use xlink:href="#path-43"></use>
                        </mask>
                        <g id="Clip-68"></g>
                        <polygon id="Fill-67" fill="#1D1D1A" mask="url(#mask-44)" points="-26.5824 55.93848 52.89882 55.93848 52.89882 -30.101305 -26.5824 -30.101305"></polygon>
                    </g>
                    <g id="Group-72" transform="translate(65.000000, 156.000000)">
                        <mask id="mask-46" fill="white">
                            <use xlink:href="#path-45"></use>
                        </mask>
                        <g id="Clip-71"></g>
                        <polygon id="Fill-70" fill="#E82227" mask="url(#mask-46)" points="-28.74755 36.8269785 36.561525 36.8269785 36.561525 -28.7138865 -28.74755 -28.7138865"></polygon>
                    </g>
                    <g id="Group-75" transform="translate(52.000000, 156.000000)">
                        <mask id="mask-48" fill="white">
                            <use xlink:href="#path-47"></use>
                        </mask>
                        <g id="Clip-74"></g>
                        <polygon id="Fill-73" fill="#E82227" mask="url(#mask-48)" points="-24.8209 42.090321 40.672125 42.090321 40.672125 -23.777949 -24.8209 -23.777949"></polygon>
                    </g>
                    <g id="Group-78" transform="translate(45.500000, 71.500000)">
                        <mask id="mask-50" fill="white">
                            <use xlink:href="#path-49"></use>
                        </mask>
                        <g id="Clip-77"></g>
                        <polygon id="Fill-76" fill="#00AC75" mask="url(#mask-50)" points="-30.16195 128.811299 77.877345 128.811299 77.877345 -32.3604905 -30.16195 -32.3604905"></polygon>
                    </g>
                    <g id="Group-81" transform="translate(91.000000, 110.500000)">
                        <mask id="mask-52" fill="white">
                            <use xlink:href="#path-51"></use>
                        </mask>
                        <g id="Clip-80"></g>
                        <polygon id="Fill-79" fill="#1D1D1A" mask="url(#mask-52)" points="-30.33615 91.4022005 92.909375 91.4022005 92.909375 -27.6278795 -30.33615 -27.6278795"></polygon>
                    </g>
                </g>
            </g>
            <g id="Group-84" transform="translate(230.000000, 25.000000)">
                <mask id="mask-54" fill="white">
                    <use xlink:href="#path-53"></use>
                </mask>
                <g id="Clip-83"></g>
                <polygon id="Fill-82" fill="#1D1D1A" mask="url(#mask-54)" points="-25 77.61805 75.62765 77.61805 75.62765 -21.5041 -25 -21.5041"></polygon>
            </g>
            <g id="Group-87" transform="translate(275.000000, 35.000000)">
                <mask id="mask-56" fill="white">
                    <use xlink:href="#path-55"></use>
                </mask>
                <g id="Clip-86"></g>
                <polygon id="Fill-85" fill="#1D1D1A" mask="url(#mask-56)" points="-23.75395 67.6179 53.09785 67.6179 53.09785 -23.0052 -23.75395 -23.0052"></polygon>
            </g>
            <g id="Group-90" transform="translate(290.000000, 40.000000)">
                <mask id="mask-58" fill="white">
                    <use xlink:href="#path-57"></use>
                </mask>
                <g id="Clip-89"></g>
                <polygon id="Fill-88" fill="#1D1D1A" mask="url(#mask-58)" points="-22.50905 70.403065 84.62715 70.403065 84.62715 -20.130885 -22.50905 -20.130885"></polygon>
            </g>
            <g id="Group-93" transform="translate(335.000000, 35.000000)">
                <mask id="mask-60" fill="white">
                    <use xlink:href="#path-59"></use>
                </mask>
                <g id="Clip-92"></g>
                <polygon id="Fill-91" fill="#1D1D1A" mask="url(#mask-60)" points="-21.68605 67.61735 78.49615 67.61735 78.49615 -22.9166 -21.68605 -22.9166"></polygon>
            </g>
            <g id="Group-96" transform="translate(385.000000, 35.000000)">
                <mask id="mask-62" fill="white">
                    <use xlink:href="#path-61"></use>
                </mask>
                <g id="Clip-95"></g>
                <polygon id="Fill-94" fill="#1D1D1A" mask="url(#mask-62)" points="-21.4961 82.29104 61.9291 82.29104 61.9291 -23.00521 -21.4961 -23.00521"></polygon>
            </g>
            <g id="Group-99" transform="translate(410.000000, 15.000000)">
                <mask id="mask-64" fill="white">
                    <use xlink:href="#path-63"></use>
                </mask>
                <g id="Clip-98"></g>
                <polygon id="Fill-97" fill="#1D1D1A" mask="url(#mask-64)" points="-21.71375 87.61695 49.14265 87.61695 49.14265 -20.27455 -21.71375 -20.27455"></polygon>
            </g>
            <g id="Group-157" transform="translate(240.000000, 10.000000)">
                <g id="Group-102" transform="translate(205.000000, 5.000000)">
                    <mask id="mask-66" fill="white">
                        <use xlink:href="#path-65"></use>
                    </mask>
                    <g id="Clip-101"></g>
                    <polygon id="Fill-100" fill="#1D1D1A" mask="url(#mask-66)" points="-23.90835 87.6179 32.32955 87.6179 32.32955 -20.2736 -23.90835 -20.2736"></polygon>
                </g>
                <g id="Group-105" transform="translate(233.000000, 18.000000)">
                    <mask id="mask-68" fill="white">
                        <use xlink:href="#path-67"></use>
                    </mask>
                    <g id="Clip-104"></g>
                    <polygon id="Fill-103" fill="#1D1D1A" mask="url(#mask-68)" points="-24.35945 74.61805 76.2682 74.61805 76.2682 -24.5041 -24.35945 -24.5041"></polygon>
                </g>
                <g id="Group-108" transform="translate(280.000000, 25.000000)">
                    <mask id="mask-70" fill="white">
                        <use xlink:href="#path-69"></use>
                    </mask>
                    <g id="Clip-107"></g>
                    <polygon id="Fill-106" fill="#1D1D1A" mask="url(#mask-70)" points="-23.74475 67.6178 42.3765 67.6178 42.3765 -23.0053 -23.74475 -23.0053"></polygon>
                </g>
                <g id="Group-114" transform="translate(300.000000, 25.000000)">
                    <mask id="mask-72" fill="white">
                        <use xlink:href="#path-71"></use>
                    </mask>
                    <g id="Clip-113"></g>
                    <polygon id="Fill-112" fill="#1D1D1A" mask="url(#mask-72)" points="-20.3994 82.29132 75.14775 82.29132 75.14775 -23.09548 -20.3994 -23.09548"></polygon>
                </g>
                <g id="Group-117" transform="translate(335.000000, 15.000000)">
                    <mask id="mask-74" fill="white">
                        <use xlink:href="#path-73"></use>
                    </mask>
                    <g id="Clip-116"></g>
                    <polygon id="Fill-115" fill="#1D1D1A" mask="url(#mask-74)" points="-20.5445 77.6182 91.0294 77.6182 91.0294 -21.68225 -20.5445 -21.68225"></polygon>
                </g>
                <g id="Group-120" transform="translate(395.000000, 5.000000)">
                    <mask id="mask-76" fill="white">
                        <use xlink:href="#path-75"></use>
                    </mask>
                    <g id="Clip-119"></g>
                    <polygon id="Fill-118" fill="#1D1D1A" mask="url(#mask-76)" points="-24.20065 87.61695 46.65575 87.61695 46.65575 -20.27455 -24.20065 -20.27455"></polygon>
                </g>
                <g id="Group-123" transform="translate(425.000000, 5.000000)">
                    <mask id="mask-78" fill="white">
                        <use xlink:href="#path-77"></use>
                    </mask>
                    <g id="Clip-122"></g>
                    <polygon id="Fill-121" fill="#1D1D1A" mask="url(#mask-78)" points="-21.3956 87.6179 34.8437 87.6179 34.8437 -20.275 -21.3956 -20.275"></polygon>
                </g>
                <g id="Group-126">
                    <mask id="mask-80" fill="white">
                        <use xlink:href="#path-79"></use>
                    </mask>
                    <g id="Clip-125"></g>
                    <polygon id="Fill-124" fill="#1D1D1A" mask="url(#mask-80)" points="-22.27825 36.93085 35.74995 36.93085 35.74995 -21.1281 -22.27825 -21.1281"></polygon>
                </g>
                <g id="Group-129" transform="translate(15.000000, 0.000000)">
                    <mask id="mask-82" fill="white">
                        <use xlink:href="#path-81"></use>
                    </mask>
                    <g id="Clip-128"></g>
                    <polygon id="Fill-127" fill="#1D1D1A" mask="url(#mask-82)" points="-24.6853 36.93085 33.3429 36.93085 33.3429 -21.1281 -24.6853 -21.1281"></polygon>
                </g>
                <g id="Group-132" transform="translate(245.000000, 0.000000)">
                    <mask id="mask-84" fill="white">
                        <use xlink:href="#path-83"></use>
                    </mask>
                    <g id="Clip-131"></g>
                    <polygon id="Fill-130" fill="#1D1D1A" mask="url(#mask-84)" points="-24.0582 36.93085 33.97 36.93085 33.97 -21.1281 -24.0582 -21.1281"></polygon>
                </g>
                <g id="Group-135" transform="translate(255.000000, 0.000000)">
                    <mask id="mask-86" fill="white">
                        <use xlink:href="#path-85"></use>
                    </mask>
                    <g id="Clip-134"></g>
                    <polygon id="Fill-133" fill="#1D1D1A" mask="url(#mask-86)" points="-21.4674 36.93085 36.5622 36.93085 36.5622 -21.1281 -21.4674 -21.1281"></polygon>
                </g>
                <g id="Group-138" transform="translate(115.000000, 10.000000)">
                    <mask id="mask-88" fill="white">
                        <use xlink:href="#path-87"></use>
                    </mask>
                    <g id="Clip-137"></g>
                    <polygon id="Fill-136" fill="#1D1D1A" mask="url(#mask-88)" points="-20.30075 36.00795 37.72745 36.00795 37.72745 -22.051 -20.30075 -22.051"></polygon>
                </g>
                <g id="Group-141" transform="translate(130.000000, 10.000000)">
                    <mask id="mask-90" fill="white">
                        <use xlink:href="#path-89"></use>
                    </mask>
                    <g id="Clip-140"></g>
                    <polygon id="Fill-139" fill="#1D1D1A" mask="url(#mask-90)" points="-22.70715 36.00795 35.32105 36.00795 35.32105 -22.051 -22.70715 -22.051"></polygon>
                </g>
                <g id="Group-144" transform="translate(275.000000, 70.000000)">
                    <mask id="mask-92" fill="white">
                        <use xlink:href="#path-91"></use>
                    </mask>
                    <g id="Clip-143"></g>
                    <polygon id="Fill-142" fill="#1D1D1A" mask="url(#mask-92)" points="-21.98025 36.30769 36.04795 36.30769 36.04795 -21.74986 -21.98025 -21.74986"></polygon>
                </g>
                <g id="Group-147" transform="translate(290.000000, 70.000000)">
                    <mask id="mask-94" fill="white">
                        <use xlink:href="#path-93"></use>
                    </mask>
                    <g id="Clip-146"></g>
                    <polygon id="Fill-145" fill="#1D1D1A" mask="url(#mask-94)" points="-24.38875 36.30769 33.64085 36.30769 33.64085 -21.74986 -24.38875 -21.74986"></polygon>
                </g>
                <g id="Group-153" transform="translate(30.000000, 70.000000)">
                    <mask id="mask-96" fill="white">
                        <use xlink:href="#path-95"></use>
                    </mask>
                    <g id="Clip-152"></g>
                    <polygon id="Fill-151" fill="#1D1D1A" mask="url(#mask-96)" points="-21.62365 36.30769 36.40595 36.30769 36.40595 -21.74986 -21.62365 -21.74986"></polygon>
                </g>
                <g id="Group-156" transform="translate(45.000000, 70.000000)">
                    <mask id="mask-98" fill="white">
                        <use xlink:href="#path-97"></use>
                    </mask>
                    <g id="Clip-155"></g>
                    <polygon id="Fill-154" fill="#1D1D1A" mask="url(#mask-98)" points="-24.03075 36.30769 33.99885 36.30769 33.99885 -21.74986 -24.03075 -21.74986"></polygon>
                </g>
            </g>
            <g id="Group-90" transform="translate(235.000000, 115.000000)">
                <mask id="mask-100" fill="white">
                    <use xlink:href="#path-99"></use>
                </mask>
                <g id="Clip-89"></g>
                <polygon id="Fill-88" fill="#231F20" mask="url(#mask-100)" points="-21.3485 95.67192 80.3045 95.67192 80.3045 -24.40823 -21.3485 -24.40823"></polygon>
            </g>
            <g id="Group-93" transform="translate(300.000000, 110.000000)">
                <mask id="mask-102" fill="white">
                    <use xlink:href="#path-101"></use>
                </mask>
                <g id="Clip-92"></g>
                <polygon id="Fill-91" fill="#231F20" mask="url(#mask-102)" points="-24.7955 99.9423 87.87335 99.9423 87.87335 -20.45075 -24.7955 -20.45075"></polygon>
            </g>
            <g id="Group-96" transform="translate(370.000000, 115.000000)">
                <mask id="mask-104" fill="white">
                    <use xlink:href="#path-103"></use>
                </mask>
                <g id="Clip-95"></g>
                <polygon id="Fill-94" fill="#231F20" mask="url(#mask-104)" points="-22.6545 94.943 69.3801 94.943 69.3801 -24.4075 -22.6545 -24.4075"></polygon>
            </g>
            <g id="Group-99" transform="translate(455.000000, 115.000000)">
                <mask id="mask-106" fill="white">
                    <use xlink:href="#path-105"></use>
                </mask>
                <g id="Clip-98"></g>
                <polygon id="Fill-97" fill="#231F20" mask="url(#mask-106)" points="-24.404 94.94215 73.6149 94.94215 73.6149 -24.5122 -24.404 -24.5122"></polygon>
            </g>
            <g id="Group-102" transform="translate(500.000000, 110.000000)">
                <mask id="mask-108" fill="white">
                    <use xlink:href="#path-107"></use>
                </mask>
                <g id="Clip-101"></g>
                <polygon id="Fill-100" fill="#231F20" mask="url(#mask-108)" points="-20.7815 99.9423 91.88595 99.9423 91.88595 -20.45075 -20.7815 -20.45075"></polygon>
            </g>
            <g id="Group-105" transform="translate(570.000000, 110.000000)">
                <mask id="mask-110" fill="white">
                    <use xlink:href="#path-109"></use>
                </mask>
                <g id="Clip-104"></g>
                <polygon id="Fill-103" fill="#231F20" mask="url(#mask-110)" points="-20.4675 100.567665 80.6607 100.567665 80.6607 -20.242085 -20.4675 -20.242085"></polygon>
            </g>
            <g id="Group-108" transform="translate(635.000000, 110.000000)">
                <mask id="mask-112" fill="white">
                    <use xlink:href="#path-111"></use>
                </mask>
                <g id="Clip-107"></g>
                <polygon id="Fill-106" fill="#231F20" mask="url(#mask-112)" points="-21.987 100.568085 79.1412 100.568085 79.1412 -20.241665 -21.987 -20.241665"></polygon>
            </g>
        </g>
    </g>
</svg>