<?xml version="1.0" encoding="UTF-8"?>
<svg width="250px" height="45px" viewBox="0 0 250 45" version="1.1" xmlns="http://www.w3.org/2000/svg" xmlns:xlink="http://www.w3.org/1999/xlink">
    <!-- Generator: Sketch 52.6 (67491) - http://www.bohemiancoding.com/sketch -->
    <title>UAE_PASS_Login_Button_Green_En</title>
    <desc>Created with Sketch.</desc>
    <defs>
        <path d="M12,0.5 L238,0.5 C244.3513,0.5 249.5,5.64873 249.5,12 L249.5,33 C249.5,39.351275 244.3513,44.5 238,44.5 L12,44.5 C5.648725,44.5 0.5,39.351275 0.5,33 L0.5,12 C0.5,5.64873 5.648725,0.5 12,0.5 Z" id="path-1"></path>
        <linearGradient x1="0%" y1="0%" x2="0%" y2="2275.55556%" id="linearGradient-3">
            <stop stop-color="#42E198" offset="0%"></stop>
            <stop stop-color="#3DBCB1" offset="100%"></stop>
        </linearGradient>
        <path d="M12,0.5 L238,0.5 C244.3513,0.5 249.5,5.64873 249.5,12 L249.5,33 C249.5,39.351275 244.3513,44.5 238,44.5 L12,44.5 C5.648725,44.5 0.5,39.351275 0.5,33 L0.5,12 C0.5,5.64873 5.648725,0.5 12,0.5 Z" id="path-4"></path>
        <linearGradient x1="-25.04928%" y1="-33.528%" x2="100%" y2="100%" id="linearGradient-6">
            <stop stop-color="#42E198" offset="0%"></stop>
            <stop stop-color="#3DBCB1" offset="100%"></stop>
        </linearGradient>
        <path d="M12,0 L238,0 C244.6274,0 250,5.37258 250,12 L250,33 C250,39.627417 244.6274,45 238,45 L12,45 C5.372583,45 0,39.627417 0,33 L0,12 C0,5.37258 5.372583,0 12,0 Z" id="path-7"></path>
        <path d="M2.84766,13.4668 L9.58594,13.4668 L9.58594,15 L0.96289,15 L0.96289,0.78125 L2.84766,0.78125 L2.84766,13.4668 Z M10.96289,9.61914 C10.96289,8.58398 11.16634,7.653 11.57324,6.82617 C11.98015,5.99934 12.54655,5.36133 13.27246,4.91211 C13.99838,4.46289 14.82682,4.23828 15.75781,4.23828 C17.19662,4.23828 18.36035,4.73632 19.24902,5.73242 C20.1377,6.72852 20.58203,8.05338 20.58203,9.70703 L20.58203,9.83398 C20.58203,10.86264 20.38509,11.78548 19.99121,12.60254 C19.59733,13.4196 19.03418,14.05599 18.30176,14.51172 C17.56933,14.96745 16.72787,15.19531 15.77734,15.19531 C14.34504,15.19531 13.18457,14.69727 12.2959,13.70117 C11.40722,12.70507 10.96289,11.38673 10.96289,9.74609 L10.96289,9.61914 Z M12.7793,9.83398 C12.7793,11.00587 13.0511,11.94661 13.59473,12.65625 C14.13835,13.36589 14.86588,13.7207 15.77734,13.7207 C16.69532,13.7207 17.42448,13.36101 17.96484,12.6416 C18.50521,11.9222 18.77539,10.91472 18.77539,9.61914 C18.77539,8.46028 18.50033,7.52116 17.9502,6.80176 C17.40006,6.08235 16.66928,5.72266 15.75781,5.72266 C14.86588,5.72266 14.14649,6.07747 13.59961,6.78711 C13.05273,7.49675 12.7793,8.51236 12.7793,9.83398 Z M22.41797,9.62891 C22.41797,7.98176 22.79882,6.67155 23.56055,5.69824 C24.32227,4.72493 25.33137,4.23828 26.58789,4.23828 C27.87696,4.23828 28.88281,4.69401 29.60547,5.60547 L29.69336,4.43359 L31.34375,4.43359 L31.34375,14.74609 C31.34375,16.11329 30.93848,17.19075 30.12793,17.97852 C29.31738,18.76628 28.22852,19.160156 26.86133,19.160156 C26.09961,19.160156 25.35417,18.9974 24.625,18.67188 C23.89583,18.34635 23.33919,17.90039 22.95508,17.33398 L23.89258,16.25 C24.66732,17.20704 25.61458,17.68555 26.73438,17.68555 C27.61329,17.68555 28.2985,17.43815 28.79004,16.94336 C29.28158,16.44857 29.52734,15.75196 29.52734,14.85352 L29.52734,13.94531 C28.80468,14.77865 27.81837,15.19531 26.56836,15.19531 C25.33137,15.19531 24.33041,14.69727 23.56543,13.70117 C22.80045,12.70507 22.41797,11.34766 22.41797,9.62891 Z M24.23438,9.83398 C24.23438,11.0254 24.47851,11.96126 24.9668,12.6416 C25.45508,13.32194 26.13867,13.66211 27.01758,13.66211 C28.15691,13.66211 28.99349,13.14454 29.52734,12.10938 L29.52734,7.28516 C28.97396,6.27604 28.14389,5.77148 27.03711,5.77148 C26.1582,5.77148 25.47136,6.11328 24.97656,6.79688 C24.48177,7.48047 24.23438,8.49283 24.23438,9.83398 Z M36.03125,15 L34.22461,15 L34.22461,4.43359 L36.03125,4.43359 L36.03125,15 Z M34.07812,1.63086 C34.07812,1.33789 34.16764,1.0905 34.34668,0.88867 C34.52572,0.68685 34.79101,0.58594 35.14258,0.58594 C35.49414,0.58594 35.76107,0.68685 35.94336,0.88867 C36.12565,1.0905 36.2168,1.33789 36.2168,1.63086 C36.2168,1.92383 36.12565,2.16797 35.94336,2.36328 C35.76107,2.55859 35.49414,2.65625 35.14258,2.65625 C34.79101,2.65625 34.52572,2.55859 34.34668,2.36328 C34.16764,2.16797 34.07812,1.92383 34.07812,1.63086 Z M40.63086,4.43359 L40.68945,5.76172 C41.49675,4.74609 42.55143,4.23828 43.85352,4.23828 C46.0866,4.23828 47.21289,5.49803 47.23242,8.01758 L47.23242,15 L45.42578,15 L45.42578,8.00781 C45.41927,7.24609 45.24512,6.68294 44.90332,6.31836 C44.56152,5.95377 44.0293,5.77148 43.30664,5.77148 C42.7207,5.77148 42.20638,5.92773 41.76367,6.24023 C41.32096,6.55274 40.97591,6.96289 40.72852,7.4707 L40.72852,15 L38.92188,15 L38.92188,4.43359 L40.63086,4.43359 Z M58.25781,10.51758 L58.53125,12.39258 L58.93164,10.70312 L61.74414,0.78125 L63.32617,0.78125 L66.07031,10.70312 L66.46094,12.42188 L66.76367,10.50781 L68.9707,0.78125 L70.85547,0.78125 L67.4082,15 L65.69922,15 L62.76953,4.63867 L62.54492,3.55469 L62.32031,4.63867 L59.2832,15 L57.57422,15 L54.13672,0.78125 L56.01172,0.78125 L58.25781,10.51758 Z M74.61523,15 L72.80859,15 L72.80859,4.43359 L74.61523,4.43359 L74.61523,15 Z M72.66211,1.63086 C72.66211,1.33789 72.75163,1.0905 72.93066,0.88867 C73.1097,0.68685 73.375,0.58594 73.72656,0.58594 C74.07813,0.58594 74.34505,0.68685 74.52734,0.88867 C74.70964,1.0905 74.80078,1.33789 74.80078,1.63086 C74.80078,1.92383 74.70964,2.16797 74.52734,2.36328 C74.34505,2.55859 74.07813,2.65625 73.72656,2.65625 C73.375,2.65625 73.1097,2.55859 72.93066,2.36328 C72.75163,2.16797 72.66211,1.92383 72.66211,1.63086 Z M79.95703,1.875 L79.95703,4.43359 L81.92969,4.43359 L81.92969,5.83008 L79.95703,5.83008 L79.95703,12.38281 C79.95703,12.80599 80.04492,13.12337 80.2207,13.33496 C80.39649,13.54655 80.69596,13.65234 81.11914,13.65234 C81.32747,13.65234 81.61393,13.61328 81.97852,13.53516 L81.97852,15 C81.50325,15.13021 81.04102,15.19531 80.5918,15.19531 C79.7845,15.19531 79.17578,14.95117 78.76562,14.46289 C78.35547,13.97461 78.15039,13.28125 78.15039,12.38281 L78.15039,5.83008 L76.22656,5.83008 L76.22656,4.43359 L78.15039,4.43359 L78.15039,1.875 L79.95703,1.875 Z M85.8457,5.71289 C86.6465,4.72981 87.6881,4.23828 88.9707,4.23828 C91.2038,4.23828 92.3301,5.49803 92.3496,8.01758 L92.3496,15 L90.543,15 L90.543,8.00781 C90.5365,7.24609 90.3623,6.68294 90.0205,6.31836 C89.6787,5.95377 89.1465,5.77148 88.4238,5.77148 C87.8379,5.77148 87.3236,5.92773 86.8809,6.24023 C86.4381,6.55274 86.0931,6.96289 85.8457,7.4707 L85.8457,15 L84.03906,15 L84.03906,0 L85.8457,0 L85.8457,5.71289 Z" id="path-9"></path>
        <path d="M1.654,3.33847 C1.1643,3.59664 0.6617,3.75435 0.3246,3.18946 C-0.0564,2.55076 0.422,2.22018 0.9297,1.94629 C3.3304,0.64925 5.897,-0.02172 8.6477,0.00073 C11.5024,-0.00657 14.1801,0.67619 16.7086,1.95527 C17.2072,2.20755 17.6167,2.52578 17.3422,3.1092 C17.029,3.77512 16.4858,3.59664 15.9559,3.33931 C11.1895,1.02388 6.4203,0.82324 1.654,3.33847 Z" id="path-11"></path>
        <path d="M1.1088,0.31098 C1.5527,0.31098 1.9136,0.66317 1.9136,1.09617 C1.9136,1.52889 1.5527,1.88107 1.1088,1.88107 C0.6651,1.88107 0.3039,1.52889 0.3039,1.09617 C0.3039,0.66317 0.6651,0.31098 1.1088,0.31098 Z" id="path-13"></path>
        <path d="M3.8833,2.733554 C4.1659,2.923256 4.2897,3.284138 4.1586,3.608258 C4.006,3.985697 3.5673,4.171469 3.1804,4.022739 C3.1804,4.022739 1.5968,3.369167 0.5992,2.054726 L0.5891,2.01628 C0.4819,1.820686 0.4575,1.583278 0.5473,1.361305 C0.71,0.95833 1.1784,0.76021 1.5912,0.91904 C1.6627,0.94654 1.725,0.98555 1.7831,1.029327 L1.784,1.028766 C1.7848,1.029608 1.7857,1.030449 1.7865,1.031572 C1.8654,1.091625 3.1043,2.301955 3.8505,2.713349 C3.8589,2.71812 3.8679,2.72261 3.876,2.727942 C3.8788,2.729625 3.8814,2.731029 3.8842,2.732432 L3.8833,2.733554 Z" id="path-15"></path>
        <path d="M2.5842,1.11373 C2.5842,1.54645 2.2233,1.89864 1.7794,1.89864 C1.3357,1.89864 0.9748,1.54645 0.9748,1.11373 C0.9748,0.68101 1.3357,0.32883 1.7794,0.32883 C2.2233,0.32883 2.5842,0.68101 2.5842,1.11373 Z" id="path-17"></path>
        <path d="M1.2321,0.52021 C1.6758,0.52021 2.0367,0.8724 2.0367,1.30512 C2.0367,1.73784 1.6758,2.09002 1.2321,2.09002 C0.7882,2.09002 0.4273,1.73784 0.4273,1.30512 C0.4273,0.8724 0.7882,0.52021 1.2321,0.52021 Z" id="path-19"></path>
        <path d="M1.1771,0.33415 C1.6207,0.33415 1.9819,0.68634 1.9819,1.11906 C1.9819,1.55178 1.6207,1.90396 1.1771,1.90396 C0.7331,1.90396 0.3725,1.55178 0.3725,1.11906 C0.3725,0.68634 0.7331,0.33415 1.1771,0.33415 Z" id="path-21"></path>
        <path d="M1.1771,0.33415 C1.6207,0.33415 1.9819,0.68634 1.9819,1.11906 C1.9819,1.55178 1.6207,1.90396 1.1771,1.90396 C0.7331,1.90396 0.3725,1.55178 0.3725,1.11906 C0.3725,0.68634 0.7331,0.33415 1.1771,0.33415 Z" id="path-23"></path>
        <path d="M0.8741,0.17152 C1.3177,0.17152 1.6789,0.5237 1.6789,0.95642 C1.6789,1.38943 1.3177,1.74133 0.8741,1.74133 C0.4301,1.74133 0.0692,1.38943 0.0692,0.95642 C0.0692,0.5237 0.4301,0.17152 0.8741,0.17152 Z" id="path-25"></path>
        <path d="M2.4855,1.38515 C2.4855,1.81816 2.1246,2.17006 1.6807,2.17006 C1.237,2.17006 0.8761,1.81816 0.8761,1.38515 C0.8761,0.95243 1.237,0.60025 1.6807,0.60025 C2.1246,0.60025 2.4855,0.95243 2.4855,1.38515 Z" id="path-27"></path>
        <path d="M1.4842,1.59086 C1.0405,1.59086 0.6794,1.23896 0.6794,0.80596 C0.6794,0.37324 1.0405,0.02106 1.4842,0.02106 C1.9279,0.02106 2.289,0.37324 2.289,0.80596 C2.289,1.23896 1.9279,1.59086 1.4842,1.59086 Z" id="path-29"></path>
        <path d="M1.5056,0.48971 C1.9493,0.48971 2.3104,0.8419 2.3104,1.27462 C2.3104,1.38434 2.2869,1.48873 2.245,1.58359 L2.245,1.58387 C2.245,1.58387 1.7082,2.85706 1.601,4.62021 C1.6038,4.64687 1.6094,4.67297 1.6094,4.70019 C1.6094,4.76053 1.6007,4.81861 1.5878,4.87474 C1.5875,4.87614 1.5875,4.87755 1.5875,4.87923 L1.5861,4.87951 C1.5025,5.2258 1.1848,5.4851 0.8046,5.4851 C0.3609,5.4851 0.0001,5.13319 0.0001,4.70019 C0.0001,4.70019 0.043,2.85649 0.7288,1.08015 C0.7443,1.0215 0.767,0.96621 0.7953,0.91374 C0.7984,0.90588 0.8015,0.8983 0.8046,0.89045 L0.8074,0.89185 C0.9455,0.65332 1.2051,0.48971 1.5056,0.48971 Z" id="path-31"></path>
        <path d="M7.7785,1.61716 C14.8034,-1.11808 22.8572,3.44402 22.8572,10.81937 C22.8572,13.77771 21.9517,15.8257 19.4317,16.02045 C19.4317,16.02045 19.238,16.02241 19.0756,16.01764 C19.0652,16.01792 19.0556,16.02045 19.0453,16.02045 C19.0164,16.02045 18.9889,16.01484 18.9608,16.01231 C18.9358,16.01035 18.9156,16.00838 18.8988,16.00614 C18.8923,16.00502 18.8853,16.00445 18.8788,16.00333 C18.8777,16.00277 18.8749,16.00249 18.8741,16.00249 C18.855,15.99744 18.8441,15.99351 18.8339,15.9893 C18.493,15.8981 18.2407,15.59699 18.2407,15.23555 C18.2407,14.83818 18.5466,14.51182 18.9403,14.46102 C18.944,14.45766 18.9462,14.45401 18.9498,14.45064 C18.9793,14.45233 19.0093,14.45064 19.0391,14.4512 C19.0413,14.4512 19.0433,14.45064 19.0453,14.45064 C19.0478,14.45064 19.05,14.45148 19.0526,14.45148 C20.587,14.48291 21.4519,13.42777 21.4519,11.31018 C21.4519,5.98816 17.5476,2.45062 11.7415,2.45062 C5.4201,2.45062 1.1123,7.93484 2.3978,14.32857 C2.5137,14.90553 2.6661,15.47632 2.8249,16.04486 C2.8283,16.05805 2.8328,16.07012 2.8356,16.08331 C2.8451,16.13214 2.851,16.18209 2.851,16.23316 C2.851,16.51912 2.6922,16.76719 2.4576,16.90441 C2.3757,16.95212 2.285,16.98748 2.1876,17.00432 C2.1416,17.01217 2.0947,17.01807 2.0465,17.01807 C1.7095,17.01807 1.4213,16.8149 1.3014,16.5281 C1.2815,16.47955 1.2663,16.42876 1.2565,16.376 C-0.5403,10.35213 1.1659,4.19188 7.7785,1.61716 Z" id="path-33"></path>
        <path d="M1.1533,0.51253 C1.1518,0.51253 1.1508,0.51253 1.1498,0.51303 C1.1833,0.50403 1.2158,0.49503 1.2493,0.48653 C1.2168,0.49453 1.1868,0.50703 1.1533,0.51253 Z" id="path-35"></path>
        <path d="M9.7896,1.59485 C9.7991,1.64283 9.805,1.69194 9.805,1.74245 C9.805,2.02392 9.6487,2.26778 9.4178,2.40276 C9.3527,2.44065 9.2808,2.46759 9.2059,2.48639 C9.1868,2.49116 9.1686,2.49649 9.1498,2.50126 C6.3952,3.2132 4.4572,4.53185 2.4516,7.06168 C2.0702,7.54294 1.5269,8.70922 0.6713,8.09213 C0.6713,8.09184 0.671,8.09184 0.671,8.09184 C0.6674,8.08904 0.6637,8.08707 0.6601,8.08427 C0.6261,8.05901 0.5955,8.03376 0.5672,8.00822 C0.5593,8.00064 0.5509,7.99363 0.5433,7.98577 C0.3317,7.784 0.2809,7.56904 0.3253,7.35409 C0.3444,7.18908 0.4145,7.03979 0.5223,6.92192 C0.7364,6.60033 1.0605,6.3009 1.2421,6.07304 C2.5136,4.47713 3.7186,3.47699 5.2323,2.59078 C6.3306,1.94787 7.4012,1.42254 8.6929,1.03725 C8.7524,1.01957 8.8108,1.00105 8.8714,0.98393 C8.9174,0.97579 8.9646,0.9699 9.0131,0.9699 C9.3841,0.9699 9.6936,1.22078 9.7795,1.55724 C9.7826,1.56987 9.7871,1.58194 9.7896,1.59485 Z" id="path-37"></path>
        <path d="M13.6385,6.36612 C13.7006,6.47697 13.739,6.60269 13.739,6.73767 C13.739,7.16899 13.3795,7.52005 12.937,7.52005 C12.6746,7.52005 12.4436,7.39489 12.2972,7.20434 C12.2873,7.19144 12.2761,7.17937 12.2671,7.16562 L12.2666,7.16506 C9.4556,3.56325 5.2976,1.89579 1.1699,2.11018 C0.7262,2.11018 0.365,1.75828 0.365,1.32528 C0.365,0.89256 0.7262,0.54038 1.1699,0.54038 C1.231,0.54038 1.7566,0.54318 1.9646,0.54038 C6.6549,0.63579 10.5688,2.44328 13.4979,6.17979 C13.5546,6.23395 13.6004,6.29765 13.6385,6.36612 Z" id="path-39"></path>
        <path d="M4.5484,6.31223 C4.5773,6.89537 4.611,7.55624 3.7887,7.58233 C3.0644,7.60563 3.0058,7.02389 2.9441,6.45451 C2.7518,4.67956 1.6636,2.91725 0.3758,1.85368 C0.5035,1.93422 0.6545,1.98193 0.8178,1.98193 C0.8669,1.98193 0.9146,1.97604 0.9612,1.9679 C1.0605,1.95078 1.1528,1.91486 1.2365,1.86603 C1.4753,1.72656 1.6369,1.474 1.6369,1.18271 C1.6369,1.13052 1.631,1.07944 1.6215,1.03005 C1.6187,1.01658 1.6136,1.00424 1.6105,0.99077 C1.5673,0.82099 1.468,0.67282 1.3338,0.56506 C2.9037,1.70411 4.0767,3.54192 4.4558,5.57363 C4.5012,5.81749 4.536,6.065 4.5484,6.31223 Z" id="path-41"></path>
        <path d="M1.3026,0.54219 C1.3211,0.55569 1.3396,0.56919 1.3581,0.58269 C1.3401,0.56819 1.3211,0.55569 1.3026,0.54219 Z" id="path-43"></path>
        <path d="M1.4872,0.94349 C1.4027,0.87349 1.3182,0.80499 1.2332,0.73899 C1.3102,0.81599 1.3942,0.88499 1.4872,0.94349 Z" id="path-45"></path>
        <path d="M1.9613,1.96793 C1.9144,1.97606 1.867,1.98196 1.8176,1.98196 C1.6545,1.98196 1.5033,1.93425 1.3756,1.85371 C1.3285,1.81442 1.281,1.77598 1.233,1.73894 C1.1598,1.66541 1.0995,1.57926 1.0591,1.48273 C1.0386,1.43334 1.0234,1.3817 1.0133,1.3281 C1.0041,1.28096 0.9982,1.23269 0.9982,1.18274 C0.9982,0.74188 1.3658,0.38352 1.8176,0.38352 C2,0.38352 2.167,0.4433 2.3025,0.54236 C2.3129,0.54965 2.3233,0.55751 2.3336,0.56509 C2.4681,0.67285 2.5671,0.82102 2.6106,0.99079 C2.6137,1.00426 2.6185,1.01661 2.6213,1.0298 C2.6311,1.07947 2.637,1.13054 2.637,1.18274 C2.637,1.47403 2.4754,1.72659 2.2363,1.86606 C2.1526,1.91489 2.0606,1.95053 1.9613,1.96793 Z" id="path-47"></path>
        <path d="M0.6039,0.75975 L0.6049,0.76075 C0.6024,0.75975 0.5999,0.75925 0.5974,0.75825 C0.5999,0.75875 0.6014,0.75925 0.6039,0.75975 Z" id="path-49"></path>
        <path d="M8.8433,13.613922 C9.3052,13.776684 9.6206,14.063481 9.4817,14.570287 C9.3237,15.14753 8.859,15.175031 8.3452,15.072323 C3.8353,14.172082 -0.064,8.79842 0.541,4.31237 C0.8099,2.32079 2.4583,0.85425 4.5051,0.72572 C4.5228,0.7246 4.5399,0.72039 4.5579,0.72039 C4.5671,0.72039 4.5758,0.72292 4.5851,0.7232 C4.7153,0.72769 4.8363,0.76361 4.9437,0.82198 C5.187,0.95499 5.3537,1.20587 5.3537,1.49659 C5.3537,1.78929 5.1848,2.04157 4.9387,2.17374 C4.859,2.21667 4.7714,2.24726 4.6786,2.26214 L4.6564,2.26971 C3.127,2.32864 2.0328,3.48678 2.1111,5.13712 C2.2865,8.82845 4.1156,11.4997 7.5154,13.132372 C7.9369,13.334702 8.3991,13.457334 8.8433,13.613922 Z" id="path-51"></path>
        <path d="M2.867,3.06848 C2.8712,3.10131 2.874,3.13443 2.874,3.1681 C2.874,3.48016 2.6941,3.74899 2.432,3.88959 C2.3111,3.95469 2.1744,3.99482 2.0265,3.99482 C1.683,3.99482 1.3884,3.79389 1.2554,3.50654 C1.2254,3.44199 1.2049,3.37268 1.1931,3.30028 C0.9759,2.59563 0.7912,2.1399 0.7076,1.94627 C0.6947,1.92073 0.6829,1.89463 0.6728,1.86741 C0.6647,1.84917 0.6599,1.83907 0.6599,1.83907 L0.663,1.83598 C0.6386,1.76134 0.622,1.6836 0.622,1.6011 C0.622,1.16838 0.9829,0.8162 1.4268,0.8162 C1.655,0.8162 1.8601,0.91021 2.0066,1.0595 C2.008,1.0609 2.01,1.06146 2.0111,1.06287 C2.0164,1.06904 2.0212,1.07662 2.0265,1.08307 C2.0577,1.11731 2.086,1.15379 2.1107,1.19279 C2.4424,1.64768 2.6736,2.31894 2.8227,2.89225 C2.8437,2.94866 2.8594,3.00703 2.867,3.06848 Z" id="path-53"></path>
        <path d="M1.2208,0.86468 C1.2498,0.91318 1.2768,0.96218 1.3058,1.01068 C1.2803,0.96018 1.2523,0.91168 1.2208,0.86468 Z" id="path-55"></path>
        <path d="M0.8096,0.61024 C0.8356,0.65374 0.8551,0.68574 0.8591,0.69274 C0.8861,0.74024 0.9156,0.79224 0.9456,0.84374 C0.8926,0.77074 0.8471,0.69274 0.8096,0.61024 Z" id="path-57"></path>
        <path d="M6.8565,0.54631 C7.3001,0.54631 7.661,0.89849 7.661,1.33122 C7.661,1.5313 7.5819,1.71202 7.455,1.85065 C7.4345,1.90678 7.2218,2.04063 7.15,2.06028 C7.1051,2.07768 7.0588,2.09199 7.0105,2.10097 C4.5837,2.82526 2.6867,4.97988 2.6025,7.64216 C2.5301,9.92924 3.0992,11.99379 4.2208,13.86443 C4.2371,13.89165 4.2523,13.91915 4.2686,13.94637 C4.3213,14.05048 4.3525,14.16582 4.3525,14.28957 C4.3525,14.58703 4.1813,14.84296 3.9315,14.97682 C3.8162,15.03884 3.6857,15.07728 3.5451,15.07728 C3.2726,15.07728 3.0318,14.94371 2.8859,14.74138 C2.8691,14.71219 2.8525,14.68329 2.8377,14.65635 C2.8351,14.65242 2.8242,14.63474 2.8096,14.61033 C2.7768,14.55588 2.7234,14.46609 2.6928,14.40463 C2.0325,13.2507 1.0358,10.49133 0.9687,8.22221 C0.9342,4.59459 3.1747,1.60342 6.4939,0.63134 C6.4959,0.63134 6.7277,0.54631 6.8565,0.54631 Z" id="path-59"></path>
        <path d="M8.2916,6.68037 C8.4243,6.68458 8.5472,6.72106 8.6567,6.78083 C8.9047,6.91609 9.0745,7.17174 9.0745,7.4678 C9.0745,7.76638 8.9025,8.02371 8.6516,8.15813 C8.5904,8.19124 8.5248,8.21678 8.456,8.23418 C8.4044,8.24232 8.353,8.24933 8.3017,8.25635 C8.0404,8.29227 7.7791,8.31724 7.5212,8.31724 C3.5538,8.27571 0.2812,5.34011 0.0294,1.54243 C-0.0096,0.9548 -0.0031,0.21255 0.7532,0.15727 C1.5734,0.09778 1.5546,0.77941 1.6063,1.36283 C1.9051,4.72554 4.7069,6.98428 8.1555,6.69159 C8.2006,6.68766 8.2458,6.68486 8.2916,6.68037 Z" id="path-61"></path>
        <path d="M2.1901,9.98256 C2.1901,11.34863 3.4667,12.73155 5.9064,12.73155 C7.6974,12.73155 9.6011,11.76087 9.6011,9.96179 L9.6011,0.11836 L11.0609,0.11836 L11.0609,9.98256 C11.0609,11.99519 9.2546,14.13438 5.9064,14.13438 C3.3971,14.13438 0.7303,12.67205 0.7303,9.96179 L0.7303,0.11836 L2.1901,0.11836 L2.1901,9.98256 Z" id="path-63"></path>
        <path d="M5.7617,0.90985 L6.8539,0.90985 L12.5747,14.98846 L11.0389,14.98846 L9.2434,10.6938 L3.3966,10.6938 L3.3035,10.90847 C2.525,12.71008 1.9646,14.04556 1.5922,14.98846 L0.0409,14.98846 L5.7617,0.90985 Z M3.9371,9.41612 L8.6746,9.41612 L6.3328,2.85682 L3.9371,9.41612 Z" id="path-65"></path>
        <polygon id="path-67" points="1.9289 7.75511 1.9289 12.58576 8.876 12.58576 8.876 13.9886 0.4691 13.9886 0.4691 0.1185 8.8547 0.1185 8.8547 1.52105 1.9289 1.52105 1.9289 6.33122 8.7051 6.33122 8.7051 7.75511"></polygon>
        <path d="M5.2311,0.09756 C8.3176,0.09756 9.723,2.44442 9.723,4.62458 C9.723,6.79493 8.3176,9.13112 5.2311,9.13112 L1.579,9.13112 L1.579,13.98843 L0.1192,13.98843 L0.1192,0.09756 L5.2311,0.09756 Z M5.2311,7.74905 C6.7119,7.74905 8.3061,6.77781 8.3061,4.64535 C8.3061,3.14064 7.3439,1.52117 5.2311,1.52117 L1.579,1.52117 L1.579,7.74905 L5.2311,7.74905 Z" id="path-69"></path>
        <path d="M6.5645,0.90985 L7.6567,0.90985 L13.3772,14.98846 L11.8416,14.98846 L10.0462,10.6938 L4.1997,10.6938 L4.1063,10.90847 C3.3275,12.71008 2.7674,14.04556 2.395,14.98846 L0.8437,14.98846 L6.5645,0.90985 Z M4.7399,9.41612 L9.4774,9.41612 L7.1356,2.85682 L4.7399,9.41612 Z" id="path-71"></path>
        <path d="M6.1735,7.30855 C8.2948,7.56728 10.5305,8.10636 11.032,10.13443 C11.0957,10.44424 11.1321,10.76836 11.1321,11.02401 C11.1321,13.58385 8.4898,15.11353 5.935,15.11353 C2.92,15.11353 1.0948,13.25356 0.9085,11.50612 L0.9065,11.473 L2.3739,11.44466 L2.3829,11.48507 L2.3888,11.48507 C2.6444,12.94459 4.4062,13.73146 5.9563,13.73146 C7.7829,13.73146 9.6723,12.71083 9.6723,11.00324 C9.6723,10.83178 9.6479,10.63759 9.5997,10.42544 C9.2767,9.03523 7.4554,8.85759 5.9925,8.71475 C3.6956,8.48913 1.2273,8.0174 1.0145,5.26477 L1.0078,5.20163 C0.9475,4.29409 1.2045,3.44913 1.7529,2.75347 C2.6309,1.6422 4.258,0.95158 5.9993,0.95158 C7.8141,0.95158 10.1093,1.77802 10.657,4.10102 L9.2166,4.15743 C8.7241,2.79668 7.1608,2.31233 5.9603,2.31233 L5.8845,2.31289 C4.6096,2.33899 3.4913,2.80286 2.893,3.55324 C2.5532,3.97895 2.4014,4.53094 2.4544,5.14859 C2.5846,6.98078 4.6587,7.17048 6.1735,7.30855 Z" id="path-73"></path>
        <path d="M10.7298,10.14125 C10.7923,10.44853 10.8283,10.77041 10.8283,11.02409 C10.8283,13.58394 8.1859,15.11362 5.6311,15.11362 C2.6161,15.11362 0.7909,13.25364 0.6043,11.50648 L0.6026,11.47309 L2.07,11.44474 L2.079,11.48515 L2.0849,11.48515 C2.3405,12.94468 4.1023,13.73155 5.6524,13.73155 C7.479,13.73155 9.3685,12.71092 9.3685,11.00332 C9.3685,10.83186 9.344,10.63767 9.2958,10.42552 C8.9728,9.03531 7.1515,8.85768 5.6886,8.71484 C3.3917,8.48922 0.9234,8.01749 0.7107,5.26485 L0.7039,5.20171 C0.6436,4.29417 0.9006,3.44922 1.449,2.75355 C2.327,1.64228 3.9541,0.95167 5.6954,0.95167 C7.5102,0.95167 9.8054,1.7781 10.3532,4.10111 L8.9127,4.15751 C8.4205,2.79677 6.8569,2.31241 5.6564,2.31241 L5.5809,2.31297 C4.3057,2.33907 3.1874,2.80294 2.5891,3.55333 C2.2493,3.97903 2.0975,4.53102 2.1505,5.14867 C2.281,6.98199 4.3529,7.17029 5.864,7.30779 C7.9853,7.56653 10.2221,8.10532 10.7298,10.14125 Z" id="path-75"></path>
    </defs>
    <g id="UAE_PASS_Login_Button_Green_En" stroke="none" stroke-width="1" fill="none" fill-rule="evenodd">
        <g id="Group-7">
            <g id="Group-3">
                <mask id="mask-2" fill="white">
                    <use xlink:href="#path-1"></use>
                </mask>
                <g id="Clip-2"></g>
                <polygon id="Fill-1" fill="url(#linearGradient-3)" mask="url(#mask-2)" points="0 45 250 45 250 0 0 0"></polygon>
            </g>
            <g id="Group-6">
                <mask id="mask-5" fill="white">
                    <use xlink:href="#path-4"></use>
                </mask>
                <g id="Clip-5"></g>
                <polygon id="Fill-4" fill="url(#linearGradient-6)" mask="url(#mask-5)" points="0 45 250 45 250 0 0 0"></polygon>
            </g>
        </g>
        <g id="Group-10">
            <mask id="mask-8" fill="white">
                <use xlink:href="#path-7"></use>
            </mask>
            <g id="Clip-9"></g>
            <path d="M12,0 L238,0 C244.6274,0 250,5.372583 250,12 L250,33 C250,39.62742 244.6274,45 238,45 L12,45 C5.372583,45 0,39.62742 0,33 L0,12 C0,5.372583 5.372583,0 12,0 Z" id="Stroke-8" stroke="#FFFFFF" stroke-width="2" mask="url(#mask-8)"></path>
        </g>
        <g id="Group-13" transform="translate(14.000000, 16.000000)">
            <mask id="mask-10" fill="white">
                <use xlink:href="#path-9"></use>
            </mask>
            <g id="Clip-12"></g>
            <polygon id="Fill-11" fill="#FFFFFF" mask="url(#mask-10)" points="-4.037109 24.160156 97.349591 24.160156 97.349591 -5.000004 -4.037109 -5.000004"></polygon>
        </g>
        <g id="Group-16" transform="translate(117.000000, 9.000000)">
            <mask id="mask-12" fill="white">
                <use xlink:href="#path-11"></use>
            </mask>
            <g id="Clip-15"></g>
            <polygon id="Fill-14" fill="#FFFFFF" mask="url(#mask-12)" points="-4.813 8.57262 22.43039 8.57262 22.43039 -4.99982 -4.813 -4.99982"></polygon>
        </g>
        <g id="Group-19" transform="translate(116.000000, 33.000000)">
            <mask id="mask-14" fill="white">
                <use xlink:href="#path-13"></use>
            </mask>
            <g id="Clip-18"></g>
            <polygon id="Fill-17" fill="#FFFFFF" mask="url(#mask-14)" points="-4.6961 6.881073 6.91356 6.881073 6.91356 -4.689017 -4.6961 -4.689017"></polygon>
        </g>
        <g id="Group-22" transform="translate(121.000000, 34.000000)">
            <mask id="mask-16" fill="white">
                <use xlink:href="#path-15"></use>
            </mask>
            <g id="Clip-21"></g>
            <polygon id="Fill-20" fill="#FFFFFF" mask="url(#mask-16)" points="-4.5078 9.07403 9.2109 9.07403 9.2109 -4.13577 -4.5078 -4.13577"></polygon>
        </g>
        <g id="Group-25" transform="translate(125.000000, 19.000000)">
            <mask id="mask-18" fill="white">
                <use xlink:href="#path-17"></use>
            </mask>
            <g id="Clip-24"></g>
            <polygon id="Fill-23" fill="#FFFFFF" mask="url(#mask-18)" points="-4.0252 6.89864 7.58418 6.89864 7.58418 -4.67117 -4.0252 -4.67117"></polygon>
        </g>
        <g id="Group-28" transform="translate(135.000000, 31.000000)">
            <mask id="mask-20" fill="white">
                <use xlink:href="#path-19"></use>
            </mask>
            <g id="Clip-27"></g>
            <polygon id="Fill-26" fill="#FFFFFF" mask="url(#mask-20)" points="-4.5727 7.090021 7.03668 7.090021 7.03668 -4.479789 -4.5727 -4.479789"></polygon>
        </g>
        <g id="Group-31" transform="translate(129.000000, 28.000000)">
            <mask id="mask-22" fill="white">
                <use xlink:href="#path-21"></use>
            </mask>
            <g id="Clip-30"></g>
            <polygon id="Fill-29" fill="#FFFFFF" mask="url(#mask-22)" points="-4.6275 6.90396 6.98188 6.90396 6.98188 -4.66585 -4.6275 -4.66585"></polygon>
        </g>
        <g id="Group-34" transform="translate(129.000000, 28.000000)">
            <mask id="mask-24" fill="white">
                <use xlink:href="#path-23"></use>
            </mask>
            <g id="Clip-33"></g>
            <polygon id="Fill-32" fill="#FFFFFF" mask="url(#mask-24)" points="-4.6275 6.90396 6.98188 6.90396 6.98188 -4.66585 -4.6275 -4.66585"></polygon>
        </g>
        <g id="Group-37" transform="translate(139.000000, 23.000000)">
            <mask id="mask-26" fill="white">
                <use xlink:href="#path-25"></use>
            </mask>
            <g id="Clip-36"></g>
            <polygon id="Fill-35" fill="#FFFFFF" mask="url(#mask-26)" points="-4.9308 6.74133 6.67886 6.74133 6.67886 -4.82848 -4.9308 -4.82848"></polygon>
        </g>
        <g id="Group-40" transform="translate(137.000000, 20.000000)">
            <mask id="mask-28" fill="white">
                <use xlink:href="#path-27"></use>
            </mask>
            <g id="Clip-39"></g>
            <polygon id="Fill-38" fill="#FFFFFF" mask="url(#mask-28)" points="-4.1239 7.17006 7.48548 7.17006 7.48548 -4.39975 -4.1239 -4.39975"></polygon>
        </g>
        <g id="Group-43" transform="translate(114.000000, 13.000000)">
            <mask id="mask-30" fill="white">
                <use xlink:href="#path-29"></use>
            </mask>
            <g id="Clip-42"></g>
            <polygon id="Fill-41" fill="#FFFFFF" mask="url(#mask-30)" points="-4.3206 6.59086 7.28906 6.59086 7.28906 -4.97895 -4.3206 -4.97895"></polygon>
        </g>
        <g id="Group-46" transform="translate(111.000000, 21.000000)">
            <mask id="mask-32" fill="white">
                <use xlink:href="#path-31"></use>
            </mask>
            <g id="Clip-45"></g>
            <polygon id="Fill-44" fill="#FFFFFF" mask="url(#mask-32)" points="-4.9999 10.4851 7.31047 10.4851 7.31047 -4.51028 -4.9999 -4.51028"></polygon>
        </g>
        <g id="Group-49" transform="translate(114.000000, 15.000000)">
            <mask id="mask-34" fill="white">
                <use xlink:href="#path-33"></use>
            </mask>
            <g id="Clip-48"></g>
            <polygon id="Fill-47" fill="#FFFFFF" mask="url(#mask-34)" points="-4.4127 22.018067 27.85725 22.018067 27.85725 -4.184173 -4.4127 -4.184173"></polygon>
        </g>
        <g id="Group-52" transform="translate(121.000000, 14.000000)">
            <mask id="mask-36" fill="white">
                <use xlink:href="#path-35"></use>
            </mask>
            <g id="Clip-51"></g>
            <polygon id="Fill-50" fill="#FFFFFF" mask="url(#mask-36)" points="-3.8502 5.51303 6.2493 5.51303 6.2493 -4.51347 -3.8502 -4.51347"></polygon>
        </g>
        <g id="Group-55" transform="translate(113.000000, 12.000000)">
            <mask id="mask-38" fill="white">
                <use xlink:href="#path-37"></use>
            </mask>
            <g id="Clip-54"></g>
            <polygon id="Fill-53" fill="#FFFFFF" mask="url(#mask-38)" points="-4.6895 13.26813 14.805 13.26813 14.805 -4.0301 -4.6895 -4.0301"></polygon>
        </g>
        <g id="Group-58" transform="translate(124.000000, 12.000000)">
            <mask id="mask-40" fill="white">
                <use xlink:href="#path-39"></use>
            </mask>
            <g id="Clip-57"></g>
            <polygon id="Fill-56" fill="#FFFFFF" mask="url(#mask-40)" points="-4.635 12.52005 18.73896 12.52005 18.73896 -4.45962 -4.635 -4.45962"></polygon>
        </g>
        <g id="Group-61" transform="translate(129.000000, 20.000000)">
            <mask id="mask-42" fill="white">
                <use xlink:href="#path-41"></use>
            </mask>
            <g id="Clip-60"></g>
            <polygon id="Fill-59" fill="#FFFFFF" mask="url(#mask-42)" points="-4.6242 12.58301 9.55948 12.58301 9.55948 -4.43494 -4.6242 -4.43494"></polygon>
        </g>
        <g id="Group-64" transform="translate(129.000000, 20.000000)">
            <mask id="mask-44" fill="white">
                <use xlink:href="#path-43"></use>
            </mask>
            <g id="Clip-63"></g>
            <polygon id="Fill-62" fill="#FFFFFF" mask="url(#mask-44)" points="-3.6974 5.58269 6.3581 5.58269 6.3581 -4.45781 -3.6974 -4.45781"></polygon>
        </g>
        <g id="Group-67" transform="translate(128.000000, 21.000000)">
            <mask id="mask-46" fill="white">
                <use xlink:href="#path-45"></use>
            </mask>
            <g id="Clip-66"></g>
            <polygon id="Fill-65" fill="#FFFFFF" mask="url(#mask-46)" points="-3.7668 5.94349 6.4872 5.94349 6.4872 -4.26101 -3.7668 -4.26101"></polygon>
        </g>
        <g id="Group-70" transform="translate(128.000000, 20.000000)">
            <mask id="mask-48" fill="white">
                <use xlink:href="#path-47"></use>
            </mask>
            <g id="Clip-69"></g>
            <polygon id="Fill-68" fill="#FFFFFF" mask="url(#mask-48)" points="-4.0018 6.98196 7.63704 6.98196 7.63704 -4.61647 -4.0018 -4.61647"></polygon>
        </g>
        <g id="Group-73" transform="translate(126.000000, 22.000000)">
            <mask id="mask-50" fill="white">
                <use xlink:href="#path-49"></use>
            </mask>
            <g id="Clip-72"></g>
            <polygon id="Fill-71" fill="#FFFFFF" mask="url(#mask-50)" points="-4.4026 5.76075 5.6049 5.76075 5.6049 -4.24175 -4.4026 -4.24175"></polygon>
        </g>
        <g id="Group-76" transform="translate(121.000000, 22.000000)">
            <mask id="mask-52" fill="white">
                <use xlink:href="#path-51"></use>
            </mask>
            <g id="Clip-75"></g>
            <polygon id="Fill-74" fill="#FFFFFF" mask="url(#mask-52)" points="-4.5211 20.118792 14.5148 20.118792 14.5148 -4.279608 -4.5211 -4.279608"></polygon>
        </g>
        <g id="Group-79" transform="translate(127.000000, 23.000000)">
            <mask id="mask-54" fill="white">
                <use xlink:href="#path-53"></use>
            </mask>
            <g id="Clip-78"></g>
            <polygon id="Fill-77" fill="#FFFFFF" mask="url(#mask-54)" points="-4.378 8.99482 7.874 8.99482 7.874 -4.1838 -4.378 -4.1838"></polygon>
        </g>
        <g id="Group-82" transform="translate(120.000000, 32.000000)">
            <mask id="mask-56" fill="white">
                <use xlink:href="#path-55"></use>
            </mask>
            <g id="Clip-81"></g>
            <polygon id="Fill-80" fill="#FFFFFF" mask="url(#mask-56)" points="-3.7792 6.010681 6.3058 6.010681 6.3058 -4.135319 -3.7792 -4.135319"></polygon>
        </g>
        <g id="Group-85" transform="translate(119.000000, 33.000000)">
            <mask id="mask-58" fill="white">
                <use xlink:href="#path-57"></use>
            </mask>
            <g id="Clip-84"></g>
            <polygon id="Fill-83" fill="#FFFFFF" mask="url(#mask-58)" points="-4.1904 5.843741 5.9456 5.843741 5.9456 -4.389759 -4.1904 -4.389759"></polygon>
        </g>
        <g id="Group-88" transform="translate(117.000000, 19.000000)">
            <mask id="mask-60" fill="white">
                <use xlink:href="#path-59"></use>
            </mask>
            <g id="Clip-87"></g>
            <polygon id="Fill-86" fill="#FFFFFF" mask="url(#mask-60)" points="-4.0317 20.077283 12.66101 20.077283 12.66101 -4.453687 -4.0317 -4.453687"></polygon>
        </g>
        <g id="Group-91" transform="translate(125.000000, 26.000000)">
            <mask id="mask-62" fill="white">
                <use xlink:href="#path-61"></use>
            </mask>
            <g id="Clip-90"></g>
            <polygon id="Fill-89" fill="#FFFFFF" mask="url(#mask-62)" points="-4.9831 13.317245 14.0745 13.317245 14.0745 -4.846365 -4.9831 -4.846365"></polygon>
        </g>
        <g id="Group-94" transform="translate(146.000000, 17.000000)">
            <mask id="mask-64" fill="white">
                <use xlink:href="#path-63"></use>
            </mask>
            <g id="Clip-93"></g>
            <polygon id="Fill-92" fill="#FFFFFF" mask="url(#mask-64)" points="-4.2697 19.134384 16.0609 19.134384 16.0609 -4.881646 -4.2697 -4.881646"></polygon>
        </g>
        <g id="Group-97" transform="translate(159.000000, 16.000000)">
            <mask id="mask-66" fill="white">
                <use xlink:href="#path-65"></use>
            </mask>
            <g id="Clip-96"></g>
            <polygon id="Fill-95" fill="#FFFFFF" mask="url(#mask-66)" points="-4.9591 19.988459 17.57467 19.988459 17.57467 -4.090151 -4.9591 -4.090151"></polygon>
        </g>
        <g id="Group-100" transform="translate(173.000000, 17.000000)">
            <mask id="mask-68" fill="white">
                <use xlink:href="#path-67"></use>
            </mask>
            <g id="Clip-99"></g>
            <polygon id="Fill-98" fill="#FFFFFF" mask="url(#mask-68)" points="-4.5309 18.9886 13.87602 18.9886 13.87602 -4.8815 -4.5309 -4.8815"></polygon>
        </g>
        <g id="Group-103" transform="translate(190.000000, 17.000000)">
            <mask id="mask-70" fill="white">
                <use xlink:href="#path-69"></use>
            </mask>
            <g id="Clip-102"></g>
            <polygon id="Fill-101" fill="#FFFFFF" mask="url(#mask-70)" points="-4.8808 18.988431 14.72298 18.988431 14.72298 -4.902439 -4.8808 -4.902439"></polygon>
        </g>
        <g id="Group-106" transform="translate(199.000000, 16.000000)">
            <mask id="mask-72" fill="white">
                <use xlink:href="#path-71"></use>
            </mask>
            <g id="Clip-105"></g>
            <polygon id="Fill-104" fill="#FFFFFF" mask="url(#mask-72)" points="-4.1563 19.988459 18.37719 19.988459 18.37719 -4.090151 -4.1563 -4.090151"></polygon>
        </g>
        <g id="Group-109" transform="translate(213.000000, 16.000000)">
            <mask id="mask-74" fill="white">
                <use xlink:href="#path-73"></use>
            </mask>
            <g id="Clip-108"></g>
            <polygon id="Fill-107" fill="#FFFFFF" mask="url(#mask-74)" points="-4.0935 20.113533 16.13214 20.113533 16.13214 -4.048417 -4.0935 -4.048417"></polygon>
        </g>
        <g id="Group-112" transform="translate(226.000000, 16.000000)">
            <mask id="mask-76" fill="white">
                <use xlink:href="#path-75"></use>
            </mask>
            <g id="Clip-111"></g>
            <polygon id="Fill-110" fill="#FFFFFF" mask="url(#mask-76)" points="-4.3974 20.113617 15.82824 20.113617 15.82824 -4.048333 -4.3974 -4.048333"></polygon>
        </g>
    </g>
</svg>