<?xml version="1.0" encoding="UTF-8"?>
<svg width="250px" height="45px" viewBox="0 0 250 45" version="1.1" xmlns="http://www.w3.org/2000/svg" xmlns:xlink="http://www.w3.org/1999/xlink">
    <!-- Generator: Sketch 52.6 (67491) - http://www.bohemiancoding.com/sketch -->
    <title>UAE_PASS_Login_Button_Green_Ar</title>
    <desc>Created with Sketch.</desc>
    <defs>
        <path d="M12,0.5 L238,0.5 C244.3513,0.5 249.5,5.64873 249.5,12 L249.5,33 C249.5,39.351275 244.3513,44.5 238,44.5 L12,44.5 C5.648725,44.5 0.5,39.351275 0.5,33 L0.5,12 C0.5,5.64873 5.648725,0.5 12,0.5 Z" id="path-1"></path>
        <linearGradient x1="0%" y1="0%" x2="0%" y2="2275.55556%" id="linearGradient-3">
            <stop stop-color="#42E198" offset="0%"></stop>
            <stop stop-color="#3DBCB1" offset="100%"></stop>
        </linearGradient>
        <path d="M12,0.5 L238,0.5 C244.3513,0.5 249.5,5.64873 249.5,12 L249.5,33 C249.5,39.351275 244.3513,44.5 238,44.5 L12,44.5 C5.648725,44.5 0.5,39.351275 0.5,33 L0.5,12 C0.5,5.64873 5.648725,0.5 12,0.5 Z" id="path-4"></path>
        <linearGradient x1="-25.04928%" y1="-33.528%" x2="100%" y2="100%" id="linearGradient-6">
            <stop stop-color="#42E198" offset="0%"></stop>
            <stop stop-color="#3DBCB1" offset="100%"></stop>
        </linearGradient>
        <path d="M12,0 L238,0 C244.6274,0 250,5.37258 250,12 L250,33 C250,39.627417 244.6274,45 238,45 L12,45 C5.372583,45 0,39.627417 0,33 L0,12 C0,5.37258 5.372583,0 12,0 Z M12,1 C5.924868,1 1,5.92487 1,12 L1,33 C1,39.075132 5.924868,44 12,44 L238,44 C244.0751,44 249,39.075132 249,33 L249,12 C249,5.92487 244.0751,1 238,1 L12,1 Z" id="path-7"></path>
        <linearGradient x1="0%" y1="0%" x2="0%" y2="2275.55556%" id="linearGradient-9">
            <stop stop-color="#FFFFFF" offset="0%"></stop>
            <stop stop-color="#F8F8FB" offset="100%"></stop>
        </linearGradient>
        <path d="M12,0 L238,0 C244.6274,0 250,5.37258 250,12 L250,33 C250,39.627417 244.6274,45 238,45 L12,45 C5.372583,45 0,39.627417 0,33 L0,12 C0,5.37258 5.372583,0 12,0 Z M12,1 C5.924868,1 1,5.92487 1,12 L1,33 C1,39.075132 5.924868,44 12,44 L238,44 C244.0751,44 249,39.075132 249,33 L249,12 C249,5.92487 244.0751,1 238,1 L12,1 Z" id="path-10"></path>
        <linearGradient x1="50%" y1="0%" x2="50%" y2="100%" id="linearGradient-12">
            <stop stop-color="#FFFFFF" offset="0%"></stop>
            <stop stop-color="#F8F8FB" offset="100%"></stop>
        </linearGradient>
        <path d="M1.0023,1.01472 C1.0017,1.01472 1.0008,1.01472 1,1.015 C1.019,1.00991 1.0371,1.00481 1.0555,1 C1.0376,1.00453 1.0204,1.0116 1.0023,1.01472 Z" id="path-13"></path>
        <path d="M1,1 C1.0105,1.00764 1.0207,1.01557 1.0306,1.02321 C1.0209,1.015 1.0105,1.00764 1,1 Z" id="path-15"></path>
        <path d="M1.004,1.00085 L1.0045,1.00142 C1.0031,1.00085 1.0014,1.00057 1,1 C1.0014,1.00028 1.0025,1.00057 1.004,1.00085 Z" id="path-17"></path>
        <path d="M1,1 C1.0164,1.027736 1.0311,1.055755 1.0475,1.083208 C1.0334,1.054623 1.0175,1.026887 1,1 Z" id="path-19"></path>
        <path d="M1,1 C1.0144,1.024906 1.0252,1.043019 1.0277,1.046981 C1.0425,1.074151 1.0592,1.103868 1.0758,1.133585 C1.0464,1.091698 1.0209,1.046981 1,1 Z" id="path-21"></path>
        <path d="M5.88264,4.79701 L5.88264,1.62946 L3.61868,1.62946 C2.2104,1.62946 1.24758,3.0788 1.24758,4.95833 C1.24758,6.7838 2.19292,8.30475 3.58315,8.30475 C5.08025,8.30475 5.84712,7.14125 5.88264,4.79701 Z M10.12553,10.52361 L9.30537,10.52361 C7.54072,10.52361 6.41776,9.64654 5.90069,7.91107 C5.36557,8.82352 4.4566,9.2888 3.17322,9.2888 C1.35471,9.2888 0,7.40956 0,5.02965 C0,2.48871 1.35471,0.69918 3.38693,0.69918 L7.16631,0.69918 L7.16631,6.44361 C7.16631,8.23286 8.00423,9.2888 9.44832,9.2888 L10.12553,9.2888 L10.12553,10.52361 Z" id="path-23"></path>
        <path d="M5.61957,8.52358 L0.24921,8.52358 L0.24921,7.28849 L0.61009,7.28849 C1.37668,7.28849 1.876,7.03802 2.12551,6.55491 C2.30398,6.215 2.39307,5.64245 2.39307,4.81915 L2.39307,0.39896 L3.64093,0.39896 L3.64093,5.37387 C3.64093,6.1434 3.53408,6.78783 3.30204,7.27066 L5.61957,7.27066 L5.61957,8.52358 Z" id="path-25"></path>
        <path d="M8.44941,4.89307 C8.44941,4.08759 8.2887,3.44344 7.96814,2.96033 C7.59373,2.36939 7.04085,2.08325 6.27426,2.08325 C5.47186,2.08325 4.84821,2.40533 4.43799,3.03193 C4.09938,3.55042 3.93896,4.23108 3.93896,5.10759 C3.93896,5.91278 4.09938,6.57505 4.43799,7.07599 C4.84821,7.66693 5.43633,7.95307 6.20293,7.95307 C7.70086,7.95307 8.44941,6.93335 8.44941,4.89307 Z M11.92543,7.52373 L9.19824,7.52373 C8.52046,8.56127 7.52211,9.08061 6.20293,9.08061 C4.83045,9.08061 3.79658,8.56127 3.13713,7.52373 L0.49819,7.52373 L0.49819,6.2708 L2.60201,6.2708 C2.51263,5.89495 2.45935,5.48344 2.45935,5.03627 C2.45935,3.85524 2.79796,2.88844 3.45797,2.1192 C4.13519,1.34967 5.06192,0.97382 6.22069,0.97382 C7.37945,0.97382 8.30675,1.3675 8.9662,2.13703 C9.59041,2.87061 9.91126,3.83741 9.91126,5.01844 C9.91126,5.46533 9.85769,5.87712 9.75056,6.2708 L11.92543,6.2708 L11.92543,7.52373 Z" id="path-27"></path>
        <path d="M9.32675,4.33592 C9.32675,2.5464 8.52436,1.45508 7.06251,1.45508 C5.47604,1.45508 4.65588,2.65366 4.65588,4.55074 C4.65588,6.34026 5.52961,7.48564 6.99146,7.48564 C8.5424,7.48564 9.32675,6.4297 9.32675,4.33592 Z M10.69923,4.46158 C10.69923,6.788 9.25514,8.52347 6.99146,8.52347 L0.66279,8.52347 L0.66279,7.27083 L4.13909,7.27083 C3.55068,6.55479 3.2476,5.62451 3.2476,4.47942 C3.2476,2.153 4.69169,0.41668 7.00894,0.41668 C9.27318,0.41668 10.69923,2.02762 10.69923,4.46158 Z" id="path-29"></path>
        <path d="M7.38582,8.52358 L4.31946,8.52358 C3.98085,10.3666 2.76851,11.33311 0.70078,11.45821 L0.70078,10.25906 C2.35858,10.25906 3.1965,9.34689 3.1965,7.235 L3.1965,0.39896 L4.44436,0.39896 L4.44436,7.27066 L7.38582,7.27066 L7.38582,8.52358 Z" id="path-31"></path>
        <path d="M4.82853,0.94508 L4.82853,9.37395 C4.82853,11.46773 3.95509,12.52339 2.20792,12.52339 L0.65725,12.52339 L0.65725,11.28858 L1.79798,11.28858 C2.56457,11.28858 3.06388,11.03839 3.3134,10.53716 C3.49186,10.21508 3.58096,9.64254 3.58096,8.81924 L3.58096,0.94508 L4.82853,0.94508 Z" id="path-33"></path>
        <polygon id="path-35" points="0.21833 0.94528 1.4659 0.94528 1.4659 12.52358 0.21833 12.52358"></polygon>
        <path d="M6.61047,4.79701 L6.61047,1.62946 L4.3465,1.62946 C2.93822,1.62946 1.9754,3.0788 1.9754,4.95833 C1.9754,6.7838 2.92074,8.30475 4.31098,8.30475 C5.80835,8.30475 6.57494,7.14125 6.61047,4.79701 Z M10.85364,10.52361 L10.0332,10.52361 C8.26883,10.52361 7.14559,9.64654 6.62851,7.91107 C6.09339,8.82352 5.1847,9.2888 3.90076,9.2888 C2.08282,9.2888 0.72811,7.40956 0.72811,5.02965 C0.72811,2.48871 2.08282,0.69918 4.11503,0.69918 L7.89441,0.69918 L7.89441,6.44361 C7.89441,8.23286 8.73177,9.2888 10.17642,9.2888 L10.85364,9.2888 L10.85364,10.52361 Z" id="path-37"></path>
        <path d="M3.4753,0.39893 L3.4753,5.37384 C3.4753,7.4679 2.60157,8.52356 0.85468,8.52356 L0.25105,8.52356 L0.25105,7.28875 L0.44503,7.28875 C1.21133,7.28875 1.71065,7.03827 1.96016,6.53705 C2.13835,6.21525 2.22716,5.64271 2.22716,4.81941 L2.22716,0.39893 L3.4753,0.39893 Z" id="path-39"></path>
        <path d="M7.18,0.39893 L7.18,5.37384 C7.18,7.4679 6.3063,8.52356 4.5594,8.52356 L0.8544,8.52356 L0.8544,7.28875 L4.1497,7.28875 C4.9163,7.28875 5.4154,7.03827 5.6649,6.53705 C5.8433,6.21525 5.9319,5.64271 5.9319,4.81941 L5.9319,0.39893 L7.18,0.39893 Z" id="path-41"></path>
        <path d="M6.42863,7.27072 L6.42863,3.49496 C6.42863,2.97619 6.26793,2.52874 5.94736,2.17072 C5.59071,1.75921 5.0914,1.5444 4.43194,1.5444 C3.75473,1.5444 3.20156,1.86619 2.77415,2.49279 C2.39973,3.04751 2.20379,3.67411 2.20379,4.35392 C2.20379,5.06968 2.36364,5.71383 2.70253,6.26883 C3.11247,6.94892 3.66535,7.28855 4.36061,7.28855 L6.42863,7.27072 Z M10.02955,8.52364 L7.56964,8.52364 C7.21298,10.36666 6.00065,11.33317 3.95039,11.45826 L3.95039,10.25911 L4.1111,10.25911 C5.2521,10.25911 5.98289,9.66874 6.28597,8.52364 L4.34285,8.52364 C3.34479,8.52364 2.52435,8.14779 1.88294,7.37826 C1.24068,6.60874 0.92012,5.64251 0.92012,4.4793 C0.92012,3.31609 1.25873,2.34958 1.93594,1.56223 C2.63177,0.77487 3.48689,0.38091 4.50327,0.38091 C6.48192,0.38091 7.71201,1.59817 7.71201,3.96025 L7.71201,7.28855 L10.02955,7.28855 L10.02955,8.52364 Z" id="path-43"></path>
        <path d="M8.23616,6.72977 C8.23616,5.191 7.57642,4.36742 6.41766,4.36742 C5.13399,4.36742 4.43901,5.29826 4.43901,6.89109 C4.43901,8.28666 5.13399,9.27072 6.34633,9.27072 C7.61223,9.27072 8.23616,8.42958 8.23616,6.72977 Z M13.20589,10.52364 L0.8911,10.52364 L0.8911,9.28883 L3.93942,9.28883 C3.40515,8.64468 3.1373,7.82138 3.1373,6.81921 C3.1373,4.83298 4.40321,3.32958 6.36409,3.32958 C8.27168,3.32958 9.51954,4.70732 9.51954,6.80138 C9.51954,7.80326 9.23394,8.62685 8.68162,9.27072 L11.30224,9.27072 C11.40937,8.806 11.46294,8.3226 11.46294,7.82138 C11.46294,4.83298 9.55535,2.61411 7.27362,1.95157 L7.27362,0.66355 C8.66414,0.91374 10.46432,2.13072 11.40937,3.5444 C12.2473,4.77921 12.67471,6.30015 12.67471,8.07185 C12.67471,8.48336 12.65695,8.87704 12.62143,9.27072 L13.20589,9.27072 L13.20589,10.52364 Z" id="path-45"></path>
        <path d="M4.33114,0.94508 L4.33114,9.37395 C4.33114,11.46773 3.45798,12.52339 1.71053,12.52339 L0.15987,12.52339 L0.15987,11.28858 L1.30087,11.28858 C2.06718,11.28858 2.56677,11.03839 2.81601,10.53716 C2.99447,10.21508 3.08357,9.64254 3.08357,8.81924 L3.08357,0.94508 L4.33114,0.94508 Z" id="path-47"></path>
        <polygon id="path-49" points="0.7209 0.945 1.9687 0.945 1.9687 12.52358 0.7209 12.52358"></polygon>
        <path d="M2.14999,1.58013 C2.14999,2.02532 1.79052,2.38617 1.34731,2.38617 C0.90382,2.38617 0.54435,2.02532 0.54435,1.58013 C0.54435,1.13523 0.90382,0.77438 1.34731,0.77438 C1.79052,0.77438 2.14999,1.13523 2.14999,1.58013 Z" id="path-51"></path>
        <path d="M1.66857,1.58013 C1.66857,2.02532 1.3091,2.38617 0.8659,2.38617 C0.42241,2.38617 0.06294,2.02532 0.06294,1.58013 C0.06294,1.13523 0.42241,0.77438 0.8659,0.77438 C1.3091,0.77438 1.66857,1.13523 1.66857,1.58013 Z" id="path-53"></path>
        <path d="M1.79399,1.58013 C1.79399,2.02532 1.43424,2.38617 0.99132,2.38617 C0.54783,2.38617 0.18836,2.02532 0.18836,1.58013 C0.18836,1.13523 0.54783,0.77438 0.99132,0.77438 C1.43424,0.77438 1.79399,1.13523 1.79399,1.58013 Z" id="path-55"></path>
        <path d="M2.31244,1.58013 C2.31244,2.02532 1.95297,2.38617 1.50976,2.38617 C1.06655,2.38617 0.70652,2.02532 0.70652,1.58013 C0.70652,1.13523 1.06655,0.77438 1.50976,0.77438 C1.95297,0.77438 2.31244,1.13523 2.31244,1.58013 Z" id="path-57"></path>
        <path d="M2.54549,1.39556 C2.54549,1.84075 2.18602,2.20159 1.74253,2.20159 C1.2996,2.20159 0.93985,1.84075 0.93985,1.39556 C0.93985,0.95037 1.2996,0.5898 1.74253,0.5898 C2.18602,0.5898 2.54549,0.95037 2.54549,1.39556 Z" id="path-59"></path>
        <path d="M2.06421,1.39556 C2.06421,1.84075 1.70474,2.20159 1.26153,2.20159 C0.81804,2.20159 0.45857,1.84075 0.45857,1.39556 C0.45857,0.95037 0.81804,0.5898 1.26153,0.5898 C1.70474,0.5898 2.06421,0.95037 2.06421,1.39556 Z" id="path-61"></path>
        <path d="M2.20959,1.45578 C2.20959,1.90069 1.85011,2.26154 1.40663,2.26154 C0.96342,2.26154 0.60395,1.90069 0.60395,1.45578 C0.60395,1.01088 0.96342,0.65003 1.40663,0.65003 C1.85011,0.65003 2.20959,1.01088 2.20959,1.45578 Z" id="path-63"></path>
        <path d="M1.72817,1.45578 C1.72817,1.90069 1.36842,2.26154 0.92549,2.26154 C0.482,2.26154 0.12225,1.90069 0.12225,1.45578 C0.12225,1.01088 0.482,0.65003 0.92549,0.65003 C1.36842,0.65003 1.72817,1.01088 1.72817,1.45578 Z" id="path-65"></path>
        <path d="M1.6136,1.45578 C1.6136,1.90069 1.2539,2.26154 0.811,2.26154 C0.3675,2.26154 0.0077,1.90069 0.0077,1.45578 C0.0077,1.01088 0.3675,0.65003 0.811,0.65003 C1.2539,0.65003 1.6136,1.01088 1.6136,1.45578 Z" id="path-67"></path>
        <path d="M2.28119,1.45578 C2.28119,1.90069 1.92172,2.26154 1.47823,2.26154 C1.03502,2.26154 0.67527,1.90069 0.67527,1.45578 C0.67527,1.01088 1.03502,0.65003 1.47823,0.65003 C1.92172,0.65003 2.28119,1.01088 2.28119,1.45578 Z" id="path-69"></path>
        <path d="M1.79977,1.45578 C1.79977,1.90069 1.4403,2.26154 0.9971,2.26154 C0.55361,2.26154 0.19385,1.90069 0.19385,1.45578 C0.19385,1.01088 0.55361,0.65003 0.9971,0.65003 C1.4403,0.65003 1.79977,1.01088 1.79977,1.45578 Z" id="path-71"></path>
        <path d="M1.654,3.33847 C1.1643,3.59664 0.6617,3.75435 0.3246,3.18946 C-0.0564,2.55076 0.422,2.22018 0.9297,1.94629 C3.3304,0.64925 5.897,-0.02172 8.6477,0.00073 C11.5024,-0.00657 14.1801,0.67619 16.7086,1.95527 C17.2072,2.20755 17.6167,2.52578 17.3422,3.1092 C17.029,3.77512 16.4858,3.59664 15.9559,3.33931 C11.1895,1.02388 6.4203,0.82324 1.654,3.33847 Z" id="path-73"></path>
        <path d="M1.1088,0.31098 C1.5527,0.31098 1.9136,0.66317 1.9136,1.09617 C1.9136,1.52889 1.5527,1.88107 1.1088,1.88107 C0.6651,1.88107 0.3039,1.52889 0.3039,1.09617 C0.3039,0.66317 0.6651,0.31098 1.1088,0.31098 Z" id="path-75"></path>
        <path d="M3.8833,2.733554 C4.1659,2.923256 4.2897,3.284138 4.1586,3.608258 C4.006,3.985697 3.5673,4.171469 3.1804,4.022739 C3.1804,4.022739 1.5968,3.369167 0.5992,2.054726 L0.5891,2.01628 C0.4819,1.82069 0.4575,1.58328 0.5473,1.3613 C0.71,0.95833 1.1784,0.76021 1.5912,0.91904 C1.6627,0.94654 1.725,0.98555 1.7831,1.02933 L1.784,1.02877 C1.7848,1.02961 1.7857,1.03045 1.7865,1.03157 C1.8654,1.09163 3.1043,2.301955 3.8505,2.713349 C3.8589,2.71812 3.8679,2.72261 3.876,2.727942 C3.8788,2.729625 3.8814,2.731029 3.8842,2.732432 L3.8833,2.733554 Z" id="path-77"></path>
        <path d="M2.5842,1.11373 C2.5842,1.54645 2.2233,1.89864 1.7794,1.89864 C1.3357,1.89864 0.9748,1.54645 0.9748,1.11373 C0.9748,0.68101 1.3357,0.32883 1.7794,0.32883 C2.2233,0.32883 2.5842,0.68101 2.5842,1.11373 Z" id="path-79"></path>
        <path d="M1.2321,0.52021 C1.6758,0.52021 2.0367,0.8724 2.0367,1.30512 C2.0367,1.73784 1.6758,2.09002 1.2321,2.09002 C0.7882,2.09002 0.4273,1.73784 0.4273,1.30512 C0.4273,0.8724 0.7882,0.52021 1.2321,0.52021 Z" id="path-81"></path>
        <path d="M1.1771,0.33415 C1.6207,0.33415 1.9819,0.68634 1.9819,1.11906 C1.9819,1.55178 1.6207,1.90396 1.1771,1.90396 C0.7331,1.90396 0.3725,1.55178 0.3725,1.11906 C0.3725,0.68634 0.7331,0.33415 1.1771,0.33415 Z" id="path-83"></path>
        <path d="M1.1771,0.33415 C1.6207,0.33415 1.9819,0.68634 1.9819,1.11906 C1.9819,1.55178 1.6207,1.90396 1.1771,1.90396 C0.7331,1.90396 0.3725,1.55178 0.3725,1.11906 C0.3725,0.68634 0.7331,0.33415 1.1771,0.33415 Z" id="path-85"></path>
        <path d="M0.8741,0.17152 C1.3177,0.17152 1.6789,0.5237 1.6789,0.95642 C1.6789,1.38943 1.3177,1.74133 0.8741,1.74133 C0.4301,1.74133 0.0692,1.38943 0.0692,0.95642 C0.0692,0.5237 0.4301,0.17152 0.8741,0.17152 Z" id="path-87"></path>
        <path d="M2.4855,1.38515 C2.4855,1.81816 2.1246,2.17006 1.6807,2.17006 C1.237,2.17006 0.8761,1.81816 0.8761,1.38515 C0.8761,0.95243 1.237,0.60025 1.6807,0.60025 C2.1246,0.60025 2.4855,0.95243 2.4855,1.38515 Z" id="path-89"></path>
        <path d="M1.4842,1.59086 C1.0405,1.59086 0.6794,1.23896 0.6794,0.80596 C0.6794,0.37324 1.0405,0.02106 1.4842,0.02106 C1.9279,0.02106 2.289,0.37324 2.289,0.80596 C2.289,1.23896 1.9279,1.59086 1.4842,1.59086 Z" id="path-91"></path>
        <path d="M1.5056,0.48971 C1.9493,0.48971 2.3104,0.8419 2.3104,1.27462 C2.3104,1.38434 2.2869,1.48873 2.245,1.58359 L2.245,1.58387 C2.245,1.58387 1.7082,2.85706 1.601,4.62021 C1.6038,4.64687 1.6094,4.67297 1.6094,4.70019 C1.6094,4.76053 1.6007,4.81861 1.5878,4.87474 C1.5875,4.87614 1.5875,4.87755 1.5875,4.87923 L1.5861,4.87951 C1.5025,5.2258 1.1848,5.4851 0.8046,5.4851 C0.3609,5.4851 0.0001,5.13319 0.0001,4.70019 C0.0001,4.70019 0.043,2.85649 0.7288,1.08015 C0.7443,1.0215 0.767,0.96621 0.7953,0.91374 C0.7984,0.90588 0.8015,0.8983 0.8046,0.89045 L0.8074,0.89185 C0.9455,0.65332 1.2051,0.48971 1.5056,0.48971 Z" id="path-93"></path>
        <path d="M7.7785,1.61716 C14.8034,-1.11808 22.8572,3.44402 22.8572,10.81937 C22.8572,13.77771 21.9517,15.8257 19.4317,16.02045 C19.4317,16.02045 19.238,16.02241 19.0756,16.01764 C19.0652,16.01792 19.0556,16.02045 19.0453,16.02045 C19.0164,16.02045 18.9889,16.01484 18.9608,16.01231 C18.9358,16.01035 18.9156,16.00838 18.8988,16.00614 C18.8923,16.00502 18.8853,16.00445 18.8788,16.00333 C18.8777,16.00277 18.8749,16.00249 18.8741,16.00249 C18.855,15.99744 18.8441,15.99351 18.8339,15.9893 C18.493,15.8981 18.2407,15.59699 18.2407,15.23555 C18.2407,14.83818 18.5466,14.51182 18.9403,14.46102 C18.944,14.45766 18.9462,14.45401 18.9498,14.45064 C18.9793,14.45233 19.0093,14.45064 19.0391,14.4512 C19.0413,14.4512 19.0433,14.45064 19.0453,14.45064 C19.0478,14.45064 19.05,14.45148 19.0526,14.45148 C20.587,14.48291 21.4519,13.42777 21.4519,11.31018 C21.4519,5.98816 17.5476,2.45062 11.7415,2.45062 C5.4201,2.45062 1.1123,7.93484 2.3978,14.32857 C2.5137,14.90553 2.6661,15.47632 2.8249,16.04486 C2.8283,16.05805 2.8328,16.07012 2.8356,16.08331 C2.8451,16.13214 2.851,16.18209 2.851,16.23316 C2.851,16.51912 2.6922,16.76719 2.4576,16.90441 C2.3757,16.95212 2.285,16.98748 2.1876,17.00432 C2.1416,17.01217 2.0947,17.01807 2.0465,17.01807 C1.7095,17.01807 1.4213,16.8149 1.3014,16.5281 C1.2815,16.47955 1.2663,16.42876 1.2565,16.376 C-0.5403,10.35213 1.1659,4.19188 7.7785,1.61716 Z" id="path-95"></path>
        <path d="M1.1533,0.51253 C1.1518,0.51253 1.1508,0.51253 1.1498,0.51303 C1.1833,0.50403 1.2158,0.49503 1.2493,0.48653 C1.2168,0.49453 1.1868,0.50703 1.1533,0.51253 Z" id="path-97"></path>
        <path d="M9.7896,1.59485 C9.7991,1.64283 9.805,1.69194 9.805,1.74245 C9.805,2.02392 9.6487,2.26778 9.4178,2.40276 C9.3527,2.44065 9.2808,2.46759 9.2059,2.48639 C9.1868,2.49116 9.1686,2.49649 9.1498,2.50126 C6.3952,3.2132 4.4572,4.53185 2.4516,7.06168 C2.0702,7.54294 1.5269,8.70922 0.6713,8.09213 C0.6713,8.09184 0.671,8.09184 0.671,8.09184 C0.6674,8.08904 0.6637,8.08707 0.6601,8.08427 C0.6261,8.05901 0.5955,8.03376 0.5672,8.00822 C0.5593,8.00064 0.5509,7.99363 0.5433,7.98577 C0.3317,7.784 0.2809,7.56904 0.3253,7.35409 C0.3444,7.18908 0.4145,7.03979 0.5223,6.92192 C0.7364,6.60033 1.0605,6.3009 1.2421,6.07304 C2.5136,4.47713 3.7186,3.47699 5.2323,2.59078 C6.3306,1.94787 7.4012,1.42254 8.6929,1.03725 C8.7524,1.01957 8.8108,1.00105 8.8714,0.98393 C8.9174,0.97579 8.9646,0.9699 9.0131,0.9699 C9.3841,0.9699 9.6936,1.22078 9.7795,1.55724 C9.7826,1.56987 9.7871,1.58194 9.7896,1.59485 Z" id="path-99"></path>
        <path d="M13.6385,6.36612 C13.7006,6.47697 13.739,6.60269 13.739,6.73767 C13.739,7.16899 13.3795,7.52005 12.937,7.52005 C12.6746,7.52005 12.4436,7.39489 12.2972,7.20434 C12.2873,7.19144 12.2761,7.17937 12.2671,7.16562 L12.2666,7.16506 C9.4556,3.56325 5.2976,1.89579 1.1699,2.11018 C0.7262,2.11018 0.365,1.75828 0.365,1.32528 C0.365,0.89256 0.7262,0.54038 1.1699,0.54038 C1.231,0.54038 1.7566,0.54318 1.9646,0.54038 C6.6549,0.63579 10.5688,2.44328 13.4979,6.17979 C13.5546,6.23395 13.6004,6.29765 13.6385,6.36612 Z" id="path-101"></path>
        <path d="M4.5484,6.31223 C4.5773,6.89537 4.611,7.55624 3.7887,7.58233 C3.0644,7.60563 3.0058,7.02389 2.9441,6.45451 C2.7518,4.67956 1.6636,2.91725 0.3758,1.85368 C0.5035,1.93422 0.6545,1.98193 0.8178,1.98193 C0.8669,1.98193 0.9146,1.97604 0.9612,1.9679 C1.0605,1.95078 1.1528,1.91486 1.2365,1.86603 C1.4753,1.72656 1.6369,1.474 1.6369,1.18271 C1.6369,1.13052 1.631,1.07944 1.6215,1.03005 C1.6187,1.01658 1.6136,1.00424 1.6105,0.99077 C1.5673,0.82099 1.468,0.67282 1.3338,0.56506 C2.9037,1.70411 4.0767,3.54192 4.4558,5.57363 C4.5012,5.81749 4.536,6.065 4.5484,6.31223 Z" id="path-103"></path>
        <path d="M1.3026,0.54219 C1.3211,0.55569 1.3396,0.56919 1.3581,0.58269 C1.3401,0.56819 1.3211,0.55569 1.3026,0.54219 Z" id="path-105"></path>
        <path d="M1.4872,0.94349 C1.4027,0.87349 1.3182,0.80499 1.2332,0.73899 C1.3102,0.81599 1.3942,0.88499 1.4872,0.94349 Z" id="path-107"></path>
        <path d="M1.9613,1.96793 C1.9144,1.97606 1.867,1.98196 1.8176,1.98196 C1.6545,1.98196 1.5033,1.93425 1.3756,1.85371 C1.3285,1.81442 1.281,1.77598 1.233,1.73894 C1.1598,1.66541 1.0995,1.57926 1.0591,1.48273 C1.0386,1.43334 1.0234,1.3817 1.0133,1.3281 C1.0041,1.28096 0.9982,1.23269 0.9982,1.18274 C0.9982,0.74188 1.3658,0.38352 1.8176,0.38352 C2,0.38352 2.167,0.4433 2.3025,0.54236 C2.3129,0.54965 2.3233,0.55751 2.3336,0.56509 C2.4681,0.67285 2.5671,0.82102 2.6106,0.99079 C2.6137,1.00426 2.6185,1.01661 2.6213,1.0298 C2.6311,1.07947 2.637,1.13054 2.637,1.18274 C2.637,1.47403 2.4754,1.72659 2.2363,1.86606 C2.1526,1.91489 2.0606,1.95053 1.9613,1.96793 Z" id="path-109"></path>
        <path d="M0.6039,0.75975 L0.6049,0.76075 C0.6024,0.75975 0.5999,0.75925 0.5974,0.75825 C0.5999,0.75875 0.6014,0.75925 0.6039,0.75975 Z" id="path-111"></path>
        <path d="M8.8433,13.61392 C9.3052,13.77668 9.6206,14.063481 9.4817,14.570287 C9.3237,15.14753 8.859,15.175031 8.3452,15.072323 C3.8353,14.172082 -0.064,8.79842 0.541,4.31237 C0.8099,2.32079 2.4583,0.85425 4.5051,0.72572 C4.5228,0.7246 4.5399,0.72039 4.5579,0.72039 C4.5671,0.72039 4.5758,0.72292 4.5851,0.7232 C4.7153,0.72769 4.8363,0.76361 4.9437,0.82198 C5.187,0.95499 5.3537,1.20587 5.3537,1.49659 C5.3537,1.78929 5.1848,2.04157 4.9387,2.17374 C4.859,2.21667 4.7714,2.24726 4.6786,2.26214 L4.6564,2.26971 C3.127,2.32864 2.0328,3.48678 2.1111,5.13712 C2.2865,8.82845 4.1156,11.4997 7.5154,13.13237 C7.9369,13.3347 8.3991,13.45733 8.8433,13.61392 Z" id="path-113"></path>
        <path d="M2.867,3.06848 C2.8712,3.10131 2.874,3.13443 2.874,3.1681 C2.874,3.48016 2.6941,3.74899 2.432,3.88959 C2.3111,3.95469 2.1744,3.99482 2.0265,3.99482 C1.683,3.99482 1.3884,3.79389 1.2554,3.50654 C1.2254,3.44199 1.2049,3.37268 1.1931,3.30028 C0.9759,2.59563 0.7912,2.1399 0.7076,1.94627 C0.6947,1.92073 0.6829,1.89463 0.6728,1.86741 C0.6647,1.84917 0.6599,1.83907 0.6599,1.83907 L0.663,1.83598 C0.6386,1.76134 0.622,1.6836 0.622,1.6011 C0.622,1.16838 0.9829,0.8162 1.4268,0.8162 C1.655,0.8162 1.8601,0.91021 2.0066,1.0595 C2.008,1.0609 2.01,1.06146 2.0111,1.06287 C2.0164,1.06904 2.0212,1.07662 2.0265,1.08307 C2.0577,1.11731 2.086,1.15379 2.1107,1.19279 C2.4424,1.64768 2.6736,2.31894 2.8227,2.89225 C2.8437,2.94866 2.8594,3.00703 2.867,3.06848 Z" id="path-115"></path>
        <path d="M1.2208,0.86468 C1.2498,0.91318 1.2768,0.96218 1.3058,1.01068 C1.2803,0.96018 1.2523,0.91168 1.2208,0.86468 Z" id="path-117"></path>
        <path d="M0.8096,0.61024 C0.8356,0.65374 0.8551,0.68574 0.8591,0.69274 C0.8861,0.74024 0.9156,0.79224 0.9456,0.84374 C0.8926,0.77074 0.8471,0.69274 0.8096,0.61024 Z" id="path-119"></path>
        <path d="M6.8565,0.54631 C7.3001,0.54631 7.661,0.89849 7.661,1.33122 C7.661,1.5313 7.5819,1.71202 7.455,1.85065 C7.4345,1.90678 7.2218,2.04063 7.15,2.06028 C7.1051,2.07768 7.0588,2.09199 7.0105,2.10097 C4.5837,2.82526 2.6867,4.97988 2.6025,7.64216 C2.5301,9.92924 3.0992,11.99379 4.2208,13.86443 C4.2371,13.89165 4.2523,13.91915 4.2686,13.94637 C4.3213,14.05048 4.3525,14.16582 4.3525,14.28957 C4.3525,14.58703 4.1813,14.84296 3.9315,14.97682 C3.8162,15.03884 3.6857,15.07728 3.5451,15.07728 C3.2726,15.07728 3.0318,14.94371 2.8859,14.74138 C2.8691,14.71219 2.8525,14.68329 2.8377,14.65635 C2.8351,14.65242 2.8242,14.63474 2.8096,14.61033 C2.7768,14.55588 2.7234,14.46609 2.6928,14.40463 C2.0325,13.2507 1.0358,10.49133 0.9687,8.22221 C0.9342,4.59459 3.1747,1.60342 6.4939,0.63134 C6.4959,0.63134 6.7277,0.54631 6.8565,0.54631 Z" id="path-121"></path>
        <path d="M8.2916,6.68037 C8.4243,6.68458 8.5472,6.72106 8.6567,6.78083 C8.9047,6.91609 9.0745,7.17174 9.0745,7.4678 C9.0745,7.76638 8.9025,8.02371 8.6516,8.15813 C8.5904,8.19124 8.5248,8.21678 8.456,8.23418 C8.4044,8.24232 8.353,8.24933 8.3017,8.25635 C8.0404,8.29227 7.7791,8.31724 7.5212,8.31724 C3.5538,8.27571 0.2812,5.34011 0.0294,1.54243 C-0.0096,0.9548 -0.0031,0.21255 0.7532,0.15727 C1.5734,0.09778 1.5546,0.77941 1.6063,1.36283 C1.9051,4.72554 4.7069,6.98428 8.1555,6.69159 C8.2006,6.68766 8.2458,6.68486 8.2916,6.68037 Z" id="path-123"></path>
        <path d="M78.632,15 L77.092,15 L77.092,0.766 L78.632,0.766 L78.632,15 Z M74.144,0.766 L74.144,11.128 C74.144,13.702 73.066,15 70.91,15 L68.996,15 L68.996,13.482 L70.404,13.482 C71.35,13.482 71.966,13.174 72.274,12.558 C72.494,12.162 72.604,11.458 72.604,10.446 L72.604,0.766 L74.144,0.766 Z M68.884,15 L64.884,15 L64.884,13.46 L68.884,13.46 L68.884,15 Z M65.102,15 L51.88,15 L51.88,13.46 L60.02,13.46 C60.02,11.502 59.668,9.918 58.942,8.73 C58.062,7.3 56.698,6.552 54.872,6.442 L54.278,6.442 L54.278,4.99 C58.92,4.99 61.362,7.806 61.604,13.46 L65.102,13.46 L65.102,15 Z M43.696,3.428 L42.134,3.428 L42.134,1.558 L43.696,1.558 L43.696,3.428 Z M50.23,12.778 L50.23,15 L34.984,15 L34.984,13.46 L48.36,13.46 C48.382,13.174 48.404,12.91 48.404,12.668 C48.404,8.95 46.446,6.816 42.992,6.816 C41.122,6.816 39.736,7.542 38.856,8.994 C38.636,8.752 38.196,8.312 37.514,7.63 C38.768,6.068 40.572,5.298 42.97,5.298 C47.348,5.298 50.23,8.202 50.23,12.778 Z M34.984,15 L30.884,15 L30.884,13.46 L34.984,13.46 L34.984,15 Z M30.884,15 L25.866,15 L25.866,13.46 L30.884,13.46 L30.884,15 Z M25.866,15 L23.83,15 C23.39,17.266 21.894,18.454 19.364,18.608 L19.364,17.134 L19.562,17.134 C20.97,17.134 21.872,16.408 22.246,15 L19.848,15 C18.616,15 17.604,14.538 16.812,13.592 C16.02,12.646 15.624,11.458 15.624,10.028 C15.624,8.598 16.042,7.41 16.878,6.442 C17.736,5.474 18.792,4.99 20.046,4.99 C22.488,4.99 24.006,6.486 24.006,9.39 L24.006,13.482 L25.866,13.482 L25.866,15 Z M22.422,13.46 L22.422,8.818 C22.422,8.18 22.224,7.63 21.828,7.19 C21.388,6.684 20.772,6.42 19.958,6.42 C19.122,6.42 18.44,6.816 17.912,7.586 C17.45,8.268 17.208,9.038 17.208,9.874 C17.208,10.754 17.406,11.546 17.824,12.228 C18.33,13.064 19.012,13.482 19.87,13.482 L22.422,13.46 Z M2.424,10.776 C2.424,12.514 2.798,13.944 3.48,15.088 C4.316,16.474 5.526,17.156 7.11,17.156 C8.716,17.156 9.926,16.474 10.74,15.088 C11.422,13.944 11.774,12.514 11.774,10.776 L11.774,0.766 L13.314,0.766 L13.314,11.084 C13.314,13.306 12.698,15.132 11.488,16.562 C10.322,17.948 8.87,18.652 7.11,18.652 C5.35,18.652 3.876,17.948 2.666,16.54 C1.478,15.132 0.884,13.306 0.884,11.084 L0.884,8.972 L2.424,8.972 L2.424,10.776 Z" id="path-125"></path>
        <polygon id="path-127" points="0.884 0.46 6 0.46 6 2 0.884 2"></polygon>
    </defs>
    <g id="UAE_PASS_Login_Button_Green_Ar" stroke="none" stroke-width="1" fill="none" fill-rule="evenodd">
        <g id="Group-7">
            <g id="Group-3">
                <mask id="mask-2" fill="white">
                    <use xlink:href="#path-1"></use>
                </mask>
                <g id="Clip-2"></g>
                <polygon id="Fill-1" fill="url(#linearGradient-3)" mask="url(#mask-2)" points="0 45 250 45 250 0 0 0"></polygon>
            </g>
            <g id="Group-6">
                <mask id="mask-5" fill="white">
                    <use xlink:href="#path-4"></use>
                </mask>
                <g id="Clip-5"></g>
                <polygon id="Fill-4" fill="url(#linearGradient-6)" mask="url(#mask-5)" points="0 45 250 45 250 0 0 0"></polygon>
            </g>
        </g>
        <g id="Group-14">
            <g id="Group-10">
                <mask id="mask-8" fill="white">
                    <use xlink:href="#path-7"></use>
                </mask>
                <g id="Clip-9"></g>
                <polygon id="Fill-8" fill="url(#linearGradient-9)" mask="url(#mask-8)" points="0 45 250 45 250 0 0 0"></polygon>
            </g>
            <g id="Group-13">
                <mask id="mask-11" fill="white">
                    <use xlink:href="#path-10"></use>
                </mask>
                <g id="Clip-12"></g>
                <polygon id="Fill-11" fill="url(#linearGradient-12)" mask="url(#mask-11)" points="0 45 250 45 250 0 0 0"></polygon>
            </g>
        </g>
        <g id="Group-17" transform="translate(122.000000, 23.000000)">
            <mask id="mask-14" fill="white">
                <use xlink:href="#path-13"></use>
            </mask>
            <g id="Clip-16"></g>
            <polygon id="Fill-15" fill="#00AEEF" mask="url(#mask-14)" points="-4 6.015 6.05547 6.015 6.05547 -4 -4 -4"></polygon>
        </g>
        <g id="Group-20" transform="translate(131.000000, 29.000000)">
            <mask id="mask-16" fill="white">
                <use xlink:href="#path-15"></use>
            </mask>
            <g id="Clip-19"></g>
            <polygon id="Fill-18" fill="#00AEEF" mask="url(#mask-16)" points="-4 6.023208 6.03057 6.023208 6.03057 -4.000002 -4 -4.000002"></polygon>
        </g>
        <g id="Group-23" transform="translate(127.000000, 31.000000)">
            <mask id="mask-18" fill="white">
                <use xlink:href="#path-17"></use>
            </mask>
            <g id="Clip-22"></g>
            <polygon id="Fill-21" fill="#1D1D1A" mask="url(#mask-18)" points="-4 6.001415 6.00453 6.001415 6.00453 -4.000005 -4 -4.000005"></polygon>
        </g>
        <g id="Group-26" transform="translate(122.000000, 42.000000)">
            <mask id="mask-20" fill="white">
                <use xlink:href="#path-19"></use>
            </mask>
            <g id="Clip-25"></g>
            <polygon id="Fill-24" fill="#E82227" mask="url(#mask-20)" points="-4 6.083208 6.04755 6.083208 6.04755 -4.000002 -4 -4.000002"></polygon>
        </g>
        <g id="Group-29" transform="translate(120.000000, 42.000000)">
            <mask id="mask-22" fill="white">
                <use xlink:href="#path-21"></use>
            </mask>
            <g id="Clip-28"></g>
            <polygon id="Fill-27" fill="#E82227" mask="url(#mask-22)" points="-4 6.133585 6.07585 6.133585 6.07585 -3.999995 -4 -3.999995"></polygon>
        </g>
        <g id="Group-32" transform="translate(14.000000, 17.000000)">
            <mask id="mask-24" fill="white">
                <use xlink:href="#path-23"></use>
            </mask>
            <g id="Clip-31"></g>
            <polygon id="Fill-30" fill="#FFFFFF" mask="url(#mask-24)" points="-5 15.52361 15.12553 15.52361 15.12553 -4.30082 -5 -4.30082"></polygon>
        </g>
        <g id="Group-35" transform="translate(23.000000, 19.000000)">
            <mask id="mask-26" fill="white">
                <use xlink:href="#path-25"></use>
            </mask>
            <g id="Clip-34"></g>
            <polygon id="Fill-33" fill="#FFFFFF" mask="url(#mask-26)" points="-4.75079 13.52358 10.61957 13.52358 10.61957 -4.60104 -4.75079 -4.60104"></polygon>
        </g>
        <g id="Group-38" transform="translate(26.000000, 20.000000)">
            <mask id="mask-28" fill="white">
                <use xlink:href="#path-27"></use>
            </mask>
            <g id="Clip-37"></g>
            <polygon id="Fill-36" fill="#FFFFFF" mask="url(#mask-28)" points="-4.50181 14.08061 16.92543 14.08061 16.92543 -4.02618 -4.50181 -4.02618"></polygon>
        </g>
        <g id="Group-41" transform="translate(35.000000, 19.000000)">
            <mask id="mask-30" fill="white">
                <use xlink:href="#path-29"></use>
            </mask>
            <g id="Clip-40"></g>
            <polygon id="Fill-39" fill="#FFFFFF" mask="url(#mask-30)" points="-4.33721 13.52347 15.69923 13.52347 15.69923 -4.58332 -4.33721 -4.58332"></polygon>
        </g>
        <g id="Group-44" transform="translate(45.000000, 19.000000)">
            <mask id="mask-32" fill="white">
                <use xlink:href="#path-31"></use>
            </mask>
            <g id="Clip-43"></g>
            <polygon id="Fill-42" fill="#FFFFFF" mask="url(#mask-32)" points="-4.29922 16.458208 12.38582 16.458208 12.38582 -4.601042 -4.29922 -4.601042"></polygon>
        </g>
        <g id="Group-47" transform="translate(50.000000, 15.000000)">
            <mask id="mask-34" fill="white">
                <use xlink:href="#path-33"></use>
            </mask>
            <g id="Clip-46"></g>
            <polygon id="Fill-45" fill="#FFFFFF" mask="url(#mask-34)" points="-4.34275 17.52339 9.82853 17.52339 9.82853 -4.05491 -4.34275 -4.05491"></polygon>
        </g>
        <g id="Group-50" transform="translate(57.000000, 15.000000)">
            <mask id="mask-36" fill="white">
                <use xlink:href="#path-35"></use>
            </mask>
            <g id="Clip-49"></g>
            <polygon id="Fill-48" fill="#FFFFFF" mask="url(#mask-36)" points="-4.78167 17.52358 6.46591 17.52358 6.46591 -4.05472 -4.78167 -4.05472"></polygon>
        </g>
        <g id="Group-53" transform="translate(62.000000, 17.000000)">
            <mask id="mask-38" fill="white">
                <use xlink:href="#path-37"></use>
            </mask>
            <g id="Clip-52"></g>
            <polygon id="Fill-51" fill="#FFFFFF" mask="url(#mask-38)" points="-4.27189 15.52361 15.85364 15.52361 15.85364 -4.30082 -4.27189 -4.30082"></polygon>
        </g>
        <g id="Group-56" transform="translate(72.000000, 19.000000)">
            <mask id="mask-40" fill="white">
                <use xlink:href="#path-39"></use>
            </mask>
            <g id="Clip-55"></g>
            <polygon id="Fill-54" fill="#FFFFFF" mask="url(#mask-40)" points="-4.74895 13.52356 8.4753 13.52356 8.4753 -4.60106 -4.74895 -4.60106"></polygon>
        </g>
        <g id="Group-59" transform="translate(101.000000, 19.000000)">
            <mask id="mask-42" fill="white">
                <use xlink:href="#path-41"></use>
            </mask>
            <g id="Clip-58"></g>
            <polygon id="Fill-57" fill="#FFFFFF" mask="url(#mask-42)" points="-4.14556 13.52356 12.18001 13.52356 12.18001 -4.60106 -4.14556 -4.60106"></polygon>
        </g>
        <g id="Group-62" transform="translate(76.000000, 19.000000)">
            <mask id="mask-44" fill="white">
                <use xlink:href="#path-43"></use>
            </mask>
            <g id="Clip-61"></g>
            <polygon id="Fill-60" fill="#FFFFFF" mask="url(#mask-44)" points="-4.07988 16.458264 15.02955 16.458264 15.02955 -4.619096 -4.07988 -4.619096"></polygon>
        </g>
        <g id="Group-65" transform="translate(83.000000, 17.000000)">
            <mask id="mask-46" fill="white">
                <use xlink:href="#path-45"></use>
            </mask>
            <g id="Clip-64"></g>
            <polygon id="Fill-63" fill="#FFFFFF" mask="url(#mask-46)" points="-4.1089 15.52364 18.20588 15.52364 18.20588 -4.33645 -4.1089 -4.33645"></polygon>
        </g>
        <g id="Group-68" transform="translate(95.000000, 15.000000)">
            <mask id="mask-48" fill="white">
                <use xlink:href="#path-47"></use>
            </mask>
            <g id="Clip-67"></g>
            <polygon id="Fill-66" fill="#FFFFFF" mask="url(#mask-48)" points="-4.84013 17.52339 9.33115 17.52339 9.33115 -4.05491 -4.84013 -4.05491"></polygon>
        </g>
        <g id="Group-71" transform="translate(101.000000, 15.000000)">
            <mask id="mask-50" fill="white">
                <use xlink:href="#path-49"></use>
            </mask>
            <g id="Clip-70"></g>
            <polygon id="Fill-69" fill="#FFFFFF" mask="url(#mask-50)" points="-4.27912 17.52358 6.96874 17.52358 6.96874 -4.055 -4.27912 -4.055"></polygon>
        </g>
        <g id="Group-74" transform="translate(16.000000, 14.000000)">
            <mask id="mask-52" fill="white">
                <use xlink:href="#path-51"></use>
            </mask>
            <g id="Clip-73"></g>
            <polygon id="Fill-72" fill="#FFFFFF" mask="url(#mask-52)" points="-4.45565 7.38617 7.14999 7.38617 7.14999 -4.22562 -4.45565 -4.22562"></polygon>
        </g>
        <g id="Group-77" transform="translate(19.000000, 14.000000)">
            <mask id="mask-54" fill="white">
                <use xlink:href="#path-53"></use>
            </mask>
            <g id="Clip-76"></g>
            <polygon id="Fill-75" fill="#FFFFFF" mask="url(#mask-54)" points="-4.93706 7.38617 6.66858 7.38617 6.66858 -4.22562 -4.93706 -4.22562"></polygon>
        </g>
        <g id="Group-80" transform="translate(65.000000, 14.000000)">
            <mask id="mask-56" fill="white">
                <use xlink:href="#path-55"></use>
            </mask>
            <g id="Clip-79"></g>
            <polygon id="Fill-78" fill="#FFFFFF" mask="url(#mask-56)" points="-4.81164 7.38617 6.794 7.38617 6.794 -4.22562 -4.81164 -4.22562"></polygon>
        </g>
        <g id="Group-83" transform="translate(67.000000, 14.000000)">
            <mask id="mask-58" fill="white">
                <use xlink:href="#path-57"></use>
            </mask>
            <g id="Clip-82"></g>
            <polygon id="Fill-81" fill="#FFFFFF" mask="url(#mask-58)" points="-4.29348 7.38617 7.31244 7.38617 7.31244 -4.22562 -4.29348 -4.22562"></polygon>
        </g>
        <g id="Group-86" transform="translate(39.000000, 16.000000)">
            <mask id="mask-60" fill="white">
                <use xlink:href="#path-59"></use>
            </mask>
            <g id="Clip-85"></g>
            <polygon id="Fill-84" fill="#FFFFFF" mask="url(#mask-60)" points="-4.06015 7.20159 7.54549 7.20159 7.54549 -4.4102 -4.06015 -4.4102"></polygon>
        </g>
        <g id="Group-89" transform="translate(42.000000, 16.000000)">
            <mask id="mask-62" fill="white">
                <use xlink:href="#path-61"></use>
            </mask>
            <g id="Clip-88"></g>
            <polygon id="Fill-87" fill="#FFFFFF" mask="url(#mask-62)" points="-4.54143 7.20159 7.06421 7.20159 7.06421 -4.4102 -4.54143 -4.4102"></polygon>
        </g>
        <g id="Group-92" transform="translate(71.000000, 28.000000)">
            <mask id="mask-64" fill="white">
                <use xlink:href="#path-63"></use>
            </mask>
            <g id="Clip-91"></g>
            <polygon id="Fill-90" fill="#FFFFFF" mask="url(#mask-64)" points="-4.39605 7.261538 7.20959 7.261538 7.20959 -4.349972 -4.39605 -4.349972"></polygon>
        </g>
        <g id="Group-95" transform="translate(74.000000, 28.000000)">
            <mask id="mask-66" fill="white">
                <use xlink:href="#path-65"></use>
            </mask>
            <g id="Clip-94"></g>
            <polygon id="Fill-93" fill="#FFFFFF" mask="url(#mask-66)" points="-4.87775 7.261538 6.72817 7.261538 6.72817 -4.349972 -4.87775 -4.349972"></polygon>
        </g>
        <g id="Group-98" transform="translate(104.000000, 28.000000)">
            <mask id="mask-68" fill="white">
                <use xlink:href="#path-67"></use>
            </mask>
            <g id="Clip-97"></g>
            <polygon id="Fill-96" fill="#FFFFFF" mask="url(#mask-68)" points="-4.99229 7.261538 6.61363 7.261538 6.61363 -4.349972 -4.99229 -4.349972"></polygon>
        </g>
        <g id="Group-101" transform="translate(22.000000, 28.000000)">
            <mask id="mask-70" fill="white">
                <use xlink:href="#path-69"></use>
            </mask>
            <g id="Clip-100"></g>
            <polygon id="Fill-99" fill="#FFFFFF" mask="url(#mask-70)" points="-4.32473 7.261538 7.28119 7.261538 7.28119 -4.349972 -4.32473 -4.349972"></polygon>
        </g>
        <g id="Group-104" transform="translate(25.000000, 28.000000)">
            <mask id="mask-72" fill="white">
                <use xlink:href="#path-71"></use>
            </mask>
            <g id="Clip-103"></g>
            <polygon id="Fill-102" fill="#FFFFFF" mask="url(#mask-72)" points="-4.80615 7.261538 6.79977 7.261538 6.79977 -4.349972 -4.80615 -4.349972"></polygon>
        </g>
        <g id="Group-107" transform="translate(118.000000, 8.000000)">
            <mask id="mask-74" fill="white">
                <use xlink:href="#path-73"></use>
            </mask>
            <g id="Clip-106"></g>
            <polygon id="Fill-105" fill="#FFFFFF" mask="url(#mask-74)" points="-4.813 8.57262 22.43039 8.57262 22.43039 -4.99982 -4.813 -4.99982"></polygon>
        </g>
        <g id="Group-110" transform="translate(117.000000, 32.000000)">
            <mask id="mask-76" fill="white">
                <use xlink:href="#path-75"></use>
            </mask>
            <g id="Clip-109"></g>
            <polygon id="Fill-108" fill="#FFFFFF" mask="url(#mask-76)" points="-4.6961 6.881073 6.91356 6.881073 6.91356 -4.689017 -4.6961 -4.689017"></polygon>
        </g>
        <g id="Group-113" transform="translate(122.000000, 33.000000)">
            <mask id="mask-78" fill="white">
                <use xlink:href="#path-77"></use>
            </mask>
            <g id="Clip-112"></g>
            <polygon id="Fill-111" fill="#FFFFFF" mask="url(#mask-78)" points="-4.5078 9.07403 9.2109 9.07403 9.2109 -4.13577 -4.5078 -4.13577"></polygon>
        </g>
        <g id="Group-116" transform="translate(126.000000, 18.000000)">
            <mask id="mask-80" fill="white">
                <use xlink:href="#path-79"></use>
            </mask>
            <g id="Clip-115"></g>
            <polygon id="Fill-114" fill="#FFFFFF" mask="url(#mask-80)" points="-4.0252 6.89864 7.58418 6.89864 7.58418 -4.67117 -4.0252 -4.67117"></polygon>
        </g>
        <g id="Group-119" transform="translate(136.000000, 30.000000)">
            <mask id="mask-82" fill="white">
                <use xlink:href="#path-81"></use>
            </mask>
            <g id="Clip-118"></g>
            <polygon id="Fill-117" fill="#FFFFFF" mask="url(#mask-82)" points="-4.5727 7.090021 7.03668 7.090021 7.03668 -4.479789 -4.5727 -4.479789"></polygon>
        </g>
        <g id="Group-122" transform="translate(130.000000, 27.000000)">
            <mask id="mask-84" fill="white">
                <use xlink:href="#path-83"></use>
            </mask>
            <g id="Clip-121"></g>
            <polygon id="Fill-120" fill="#FFFFFF" mask="url(#mask-84)" points="-4.6275 6.90396 6.98188 6.90396 6.98188 -4.66585 -4.6275 -4.66585"></polygon>
        </g>
        <g id="Group-125" transform="translate(130.000000, 27.000000)">
            <mask id="mask-86" fill="white">
                <use xlink:href="#path-85"></use>
            </mask>
            <g id="Clip-124"></g>
            <polygon id="Fill-123" fill="#FFFFFF" mask="url(#mask-86)" points="-4.6275 6.90396 6.98188 6.90396 6.98188 -4.66585 -4.6275 -4.66585"></polygon>
        </g>
        <g id="Group-128" transform="translate(140.000000, 22.000000)">
            <mask id="mask-88" fill="white">
                <use xlink:href="#path-87"></use>
            </mask>
            <g id="Clip-127"></g>
            <polygon id="Fill-126" fill="#FFFFFF" mask="url(#mask-88)" points="-4.9308 6.74133 6.67886 6.74133 6.67886 -4.82848 -4.9308 -4.82848"></polygon>
        </g>
        <g id="Group-131" transform="translate(138.000000, 19.000000)">
            <mask id="mask-90" fill="white">
                <use xlink:href="#path-89"></use>
            </mask>
            <g id="Clip-130"></g>
            <polygon id="Fill-129" fill="#FFFFFF" mask="url(#mask-90)" points="-4.1239 7.17006 7.48548 7.17006 7.48548 -4.39975 -4.1239 -4.39975"></polygon>
        </g>
        <g id="Group-134" transform="translate(115.000000, 12.000000)">
            <mask id="mask-92" fill="white">
                <use xlink:href="#path-91"></use>
            </mask>
            <g id="Clip-133"></g>
            <polygon id="Fill-132" fill="#FFFFFF" mask="url(#mask-92)" points="-4.3206 6.59086 7.28906 6.59086 7.28906 -4.97895 -4.3206 -4.97895"></polygon>
        </g>
        <g id="Group-137" transform="translate(112.000000, 20.000000)">
            <mask id="mask-94" fill="white">
                <use xlink:href="#path-93"></use>
            </mask>
            <g id="Clip-136"></g>
            <polygon id="Fill-135" fill="#FFFFFF" mask="url(#mask-94)" points="-4.9999 10.4851 7.31047 10.4851 7.31047 -4.51028 -4.9999 -4.51028"></polygon>
        </g>
        <g id="Group-140" transform="translate(115.000000, 14.000000)">
            <mask id="mask-96" fill="white">
                <use xlink:href="#path-95"></use>
            </mask>
            <g id="Clip-139"></g>
            <polygon id="Fill-138" fill="#FFFFFF" mask="url(#mask-96)" points="-4.4127 22.018067 27.85725 22.018067 27.85725 -4.184173 -4.4127 -4.184173"></polygon>
        </g>
        <g id="Group-143" transform="translate(122.000000, 13.000000)">
            <mask id="mask-98" fill="white">
                <use xlink:href="#path-97"></use>
            </mask>
            <g id="Clip-142"></g>
            <polygon id="Fill-141" fill="#FFFFFF" mask="url(#mask-98)" points="-3.8502 5.51303 6.2493 5.51303 6.2493 -4.51347 -3.8502 -4.51347"></polygon>
        </g>
        <g id="Group-146" transform="translate(114.000000, 11.000000)">
            <mask id="mask-100" fill="white">
                <use xlink:href="#path-99"></use>
            </mask>
            <g id="Clip-145"></g>
            <polygon id="Fill-144" fill="#FFFFFF" mask="url(#mask-100)" points="-4.6895 13.26813 14.805 13.26813 14.805 -4.0301 -4.6895 -4.0301"></polygon>
        </g>
        <g id="Group-149" transform="translate(125.000000, 11.000000)">
            <mask id="mask-102" fill="white">
                <use xlink:href="#path-101"></use>
            </mask>
            <g id="Clip-148"></g>
            <polygon id="Fill-147" fill="#FFFFFF" mask="url(#mask-102)" points="-4.635 12.52005 18.73896 12.52005 18.73896 -4.45962 -4.635 -4.45962"></polygon>
        </g>
        <g id="Group-152" transform="translate(130.000000, 19.000000)">
            <mask id="mask-104" fill="white">
                <use xlink:href="#path-103"></use>
            </mask>
            <g id="Clip-151"></g>
            <polygon id="Fill-150" fill="#FFFFFF" mask="url(#mask-104)" points="-4.6242 12.58301 9.55948 12.58301 9.55948 -4.43494 -4.6242 -4.43494"></polygon>
        </g>
        <g id="Group-155" transform="translate(130.000000, 19.000000)">
            <mask id="mask-106" fill="white">
                <use xlink:href="#path-105"></use>
            </mask>
            <g id="Clip-154"></g>
            <polygon id="Fill-153" fill="#FFFFFF" mask="url(#mask-106)" points="-3.6974 5.58269 6.3581 5.58269 6.3581 -4.45781 -3.6974 -4.45781"></polygon>
        </g>
        <g id="Group-158" transform="translate(129.000000, 20.000000)">
            <mask id="mask-108" fill="white">
                <use xlink:href="#path-107"></use>
            </mask>
            <g id="Clip-157"></g>
            <polygon id="Fill-156" fill="#FFFFFF" mask="url(#mask-108)" points="-3.7668 5.94349 6.4872 5.94349 6.4872 -4.26101 -3.7668 -4.26101"></polygon>
        </g>
        <g id="Group-161" transform="translate(129.000000, 19.000000)">
            <mask id="mask-110" fill="white">
                <use xlink:href="#path-109"></use>
            </mask>
            <g id="Clip-160"></g>
            <polygon id="Fill-159" fill="#FFFFFF" mask="url(#mask-110)" points="-4.0018 6.98196 7.63704 6.98196 7.63704 -4.61647 -4.0018 -4.61647"></polygon>
        </g>
        <g id="Group-164" transform="translate(127.000000, 21.000000)">
            <mask id="mask-112" fill="white">
                <use xlink:href="#path-111"></use>
            </mask>
            <g id="Clip-163"></g>
            <polygon id="Fill-162" fill="#FFFFFF" mask="url(#mask-112)" points="-4.4026 5.76075 5.6049 5.76075 5.6049 -4.24175 -4.4026 -4.24175"></polygon>
        </g>
        <g id="Group-167" transform="translate(122.000000, 21.000000)">
            <mask id="mask-114" fill="white">
                <use xlink:href="#path-113"></use>
            </mask>
            <g id="Clip-166"></g>
            <polygon id="Fill-165" fill="#FFFFFF" mask="url(#mask-114)" points="-4.5211 20.118792 14.5148 20.118792 14.5148 -4.279608 -4.5211 -4.279608"></polygon>
        </g>
        <g id="Group-170" transform="translate(128.000000, 22.000000)">
            <mask id="mask-116" fill="white">
                <use xlink:href="#path-115"></use>
            </mask>
            <g id="Clip-169"></g>
            <polygon id="Fill-168" fill="#FFFFFF" mask="url(#mask-116)" points="-4.378 8.99482 7.874 8.99482 7.874 -4.1838 -4.378 -4.1838"></polygon>
        </g>
        <g id="Group-173" transform="translate(121.000000, 31.000000)">
            <mask id="mask-118" fill="white">
                <use xlink:href="#path-117"></use>
            </mask>
            <g id="Clip-172"></g>
            <polygon id="Fill-171" fill="#FFFFFF" mask="url(#mask-118)" points="-3.7792 6.010681 6.3058 6.010681 6.3058 -4.135319 -3.7792 -4.135319"></polygon>
        </g>
        <g id="Group-176" transform="translate(120.000000, 32.000000)">
            <mask id="mask-120" fill="white">
                <use xlink:href="#path-119"></use>
            </mask>
            <g id="Clip-175"></g>
            <polygon id="Fill-174" fill="#FFFFFF" mask="url(#mask-120)" points="-4.1904 5.843741 5.9456 5.843741 5.9456 -4.389759 -4.1904 -4.389759"></polygon>
        </g>
        <g id="Group-179" transform="translate(118.000000, 18.000000)">
            <mask id="mask-122" fill="white">
                <use xlink:href="#path-121"></use>
            </mask>
            <g id="Clip-178"></g>
            <polygon id="Fill-177" fill="#FFFFFF" mask="url(#mask-122)" points="-4.0317 20.077283 12.66101 20.077283 12.66101 -4.453687 -4.0317 -4.453687"></polygon>
        </g>
        <g id="Group-182" transform="translate(126.000000, 25.000000)">
            <mask id="mask-124" fill="white">
                <use xlink:href="#path-123"></use>
            </mask>
            <g id="Clip-181"></g>
            <polygon id="Fill-180" fill="#FFFFFF" mask="url(#mask-124)" points="-4.9831 13.317245 14.0745 13.317245 14.0745 -4.846365 -4.9831 -4.846365"></polygon>
        </g>
        <g id="Group-185" transform="translate(152.000000, 14.000000)">
            <mask id="mask-126" fill="white">
                <use xlink:href="#path-125"></use>
            </mask>
            <g id="Clip-184"></g>
            <polygon id="Fill-183" fill="#FFFFFF" mask="url(#mask-126)" points="-4.116 23.652 83.632 23.652 83.632 -4.234 -4.116 -4.234"></polygon>
        </g>
        <g id="Group-188" transform="translate(216.000000, 27.000000)">
            <mask id="mask-128" fill="white">
                <use xlink:href="#path-127"></use>
            </mask>
            <g id="Clip-187"></g>
            <polygon id="Fill-186" fill="#FFFFFF" mask="url(#mask-128)" points="-4.116 7 11 7 11 -4.54 -4.116 -4.54"></polygon>
        </g>
    </g>
</svg>