<?xml version="1.0" encoding="utf-8"?>
<!-- Generator: Adobe Illustrator 21.0.2, SVG Export Plug-In . SVG Version: 6.00 Build 0)  -->
<svg version="1.1" id="Layer_1" xmlns="http://www.w3.org/2000/svg" xmlns:xlink="http://www.w3.org/1999/xlink" x="0px" y="0px"
	 viewBox="0 0 66 68.8" style="enable-background:new 0 0 66 68.8;" xml:space="preserve">
<style type="text/css">
	.st0{fill:#ED1C24;}
	.st1{fill:none;}
	.st2{fill:#FF0000;}
</style>
<title>phone</title>
<path class="st0" d="M48,2H18.2c-2,0-3.6,1.6-3.6,3.6l0,0v57.8c0,2,1.6,3.6,3.6,3.6H48c2,0,3.6-1.6,3.6-3.6V5.6C51.6,3.6,50,2,48,2
	 M16.6,5.6c0-0.9,0.7-1.6,1.6-1.6l0,0H48c0.9,0,1.6,0.7,1.6,1.6V11h-33V5.6z M49.6,56h-33V13h33V56z M49.6,63.4
	c0,0.9-0.7,1.6-1.6,1.6H18.2c-0.9,0-1.6-0.7-1.6-1.6V58h33V63.4z"/>
<path class="st0" d="M39.6,7h-11c-0.6,0-1,0.4-1,1s0.4,1,1,1h11c0.6,0,1-0.4,1-1S40.1,7,39.6,7"/>
<path class="st0" d="M33.1,63.5c1.2,0,2.2-1,2.2-2.2c0-1.2-1-2.2-2.2-2.2s-2.2,1-2.2,2.2c0,0,0,0,0,0C30.9,62.5,31.9,63.5,33.1,63.5
	"/>
<line class="st1" x1="2.5" y1="2.5" x2="64" y2="64"/>
<path class="st2" d="M2,3l53.8,53.8l7.7,7.7c0.3,0.3,0.8,0.3,1.1,0c0.3-0.3,0.3-0.7,0-1L10.7,9.7L3.1,2C2.8,1.7,2.3,1.7,2,2
	S1.7,2.7,2,3z"/>
</svg>
