<svg id="Layer_1" data-name="Layer 1" xmlns="http://www.w3.org/2000/svg" viewBox="0 0 290.81 119.64"><defs><style>.cls-1{fill:#e92629;}</style></defs><title>dubai-gov</title><path class="cls-1" d="M361.89,386.27c-3.79-.78-7.27,5.07-7.27,5.07s-.55-.39-.67-.34-2.76,3.34-3.17,3.89c-4,5.48-8.1,4.82-8.13,4.85-7.53.1-10-6.59-10.15-6.85-1.69-3.66-1.95-3.4-2.39-3.66s-2.82-.12-6.06,2.64-5.86,10.26-5.91,10.35c-4,13-5.83,12.7-7.29,12.65s-2.66-1.73-3.88-4.07-1.87-8.34-1.85-10.79.23-3.39,0-3.37-.76.93-.88,1.58a33.4,33.4,0,0,0-.11,8.3c.24,4.31,3,12.37,6.87,12.4s5.43-5.69,5.77-6.61c.78-2.1,1.9-7.11,4.24-12.13s6.84-4.93,7.26-4.78,4.69,10,12,10.41,9.79-5.56,10.42-6.66a4.38,4.38,0,0,1,1.38-1.57c.17-.17.62.26.62.25,1.22,2.24,9.84,7,11.62,5.39a12.6,12.6,0,0,0,3-5.82c0-.79-1.62-10.37-5.43-11.14m.5,10.6c-.15-.07-4.62-1.48-5.75-3.38,0,0,3.95-4.7,6.06,3.38,0,.08-.17.08-.31,0" transform="translate(-160.6 -336.18)"/><path class="cls-1" d="M285.32,372.42l-.12-.38h2.17l1,0a2.32,2.32,0,0,0-1-1.17c-.43-.23-6.32-3.83-7.75-4.29-.06,0-1.14,6.59-1.14,6.59s1.46.1,1.81.63a60.8,60.8,0,0,0,4.32,5.63c1.14,1.1,5.72,5.8,15.17,9.62,3.56,1,4.63,3.16,4.63,3.16s-3.92,3.18-7.21,5.39c-1,.7-16.3,10.47-22.79,13.34-.22.09-6.33,2.89-7.86.3-1.31-2.21-1.57-4.5,1-11.23,0,0,.76-1.89.76-1.89l.5-2s-1.57,1.73-3.65,7.92c-1.13,2.83-2.62,10.27.14,12.82s5.53,1.64,10.56-.63c5.83-2.62,26-14.84,28.92-18.8a9.34,9.34,0,0,0,1.56-4.69c.06-.51.56-5.15-1.56-7.2a15.72,15.72,0,0,0-5.08-3.32c-2.83-1.38-10.35-5.14-13.3-8.66,0,0-1.1-1.08-1.1-1.08" transform="translate(-160.6 -336.18)"/><polygon class="cls-1" points="116.5 53.67 119.39 47.93 125.36 52.16 122.44 58.09 116.5 53.67"/><polygon class="cls-1" points="60.76 87.03 63.66 81.3 69.63 85.52 66.7 91.46 60.76 87.03"/><polygon class="cls-1" points="70.29 85.78 73.19 80.05 79.15 84.27 76.23 90.21 70.29 85.78"/><polygon class="cls-1" points="146.13 44.75 149.03 39.03 154.99 43.25 152.07 49.18 146.13 44.75"/><polygon class="cls-1" points="155.66 43.51 158.56 37.77 164.52 42 161.59 47.94 155.66 43.51"/><path class="cls-1" d="M263.73,359.12l-.13-.5,3.16.12a1.56,1.56,0,0,0-.49-1.19c-.42-.48-6.53-6.08-6.53-6.08l-2,6.58s1.37.78,1.48,1.13a46.22,46.22,0,0,0,2.06,5.21c.66,1.1,4.35,7.68,5.06,8.69a5,5,0,0,1,.78,2.67,1.1,1.1,0,0,1-.22.42,22.71,22.71,0,0,1-8.86,3.14l-2.88.07-2.69,5.23s3.1,1.13,3.36,1.36a48.17,48.17,0,0,0,6.7,2.59c2.27.68,5.72,1.44,6.29,1.91a2.41,2.41,0,0,1,1.43,1.79s-8.87,6.93-28.66,11.3c-1.79.28-28.1,5.75-51.47-2.92-.37-.21-11.44-3.84-19.32-10.37-.75-.76-7-6.32-7-6.32l-3.24-3.49,1.51,3.39s9.46,14,9.93,14.42,8.86,7.75,29.51,12.45c9.06,2.07,27,1.23,35.17-.18s28.09-6.83,34.31-14.05c.38-.47,3.48-6.31,3.3-7.92a4,4,0,0,0-2.64-4c-1.13-.29-6.6-1.8-7.16-2,.19.18,5.46-3,5.37-8.86.19-4.62-.94-5.85-1.23-6.5s-4.62-7.41-4.62-7.41Z" transform="translate(-160.6 -336.18)"/><path class="cls-1" d="M228.73,372.09l-3.26,5.41v.16s8.09.08,9.11.43c.82.29,0,.85,0,.85s-6.73,2.85-8.75,3.6a1,1,0,0,0-.53.53s7.56-.52,9.42-1.35c2.33-1.77,5.2-6.36,5.4-6.9s.21-.79,0-.91-1.15-1.9-5.86-2-5.54.17-5.54.17" transform="translate(-160.6 -336.18)"/><path class="cls-1" d="M274.48,337.84s-28.6,9.48-44.23,14.68S191.86,367,191.86,367l-3.29,5.66s39-14.41,40.84-15.09,42.52-14.8,42.52-14.8Z" transform="translate(-160.6 -336.18)"/><path class="cls-1" d="M297.51,344.25c2.7-6.09.58-7.42,0-7.77-1.26-.84-2.86.22-4.3,1.35-1.61,1.27-2.48,2.65-2.24,4.61s3.3,3.76,3.79,4.06l.06,0,.08.05c-1.31,1.77-6.56,6.75-11.87,10.28-3.37,2.22-12.49,8.48-12.49,8.48s2.06-.77,2.35-1c1.27-.6,7.14-3.9,12.09-6.76s10.74-10.38,10.74-10.38.29.2.32.15c1,.44,2.13,2.66,2.13,2.66s0,.25.32-.2a12.37,12.37,0,0,0,.62-3.64c0-.65-1.62-1.95-1.62-1.95m-1.19-.7s-2.53-2.22-2.9-2.46a1.29,1.29,0,0,1-.61-1c2.46-1.68,3.47-.62,3.8.12.6,1.35-.29,3.36-.29,3.36" transform="translate(-160.6 -336.18)"/><path class="cls-1" d="M332.45,345.89c2.7-6.1.58-7.42,0-7.79-1.26-.84-2.86.22-4.29,1.35-1.61,1.27-2.49,2.66-2.26,4.62s3.29,3.75,3.79,4.05l.07,0,.08.06C328.57,350,323.3,355,318,358.47c-3.39,2.24-12.5,8.5-12.5,8.5s2.06-.76,2.35-1c1.26-.6,7.14-3.9,12.09-6.76s10.75-10.38,10.75-10.38.28.2.33.15c1,.46,2.12,2.67,2.12,2.67s0,.24.33-.21a12.72,12.72,0,0,0,.61-3.63c0-.65-1.64-2-1.64-2m-1.17-.7s-2.53-2.23-2.9-2.47a1.3,1.3,0,0,1-.6-1c2.44-1.67,3.45-.61,3.79.12.6,1.37-.28,3.37-.28,3.37" transform="translate(-160.6 -336.18)"/><path class="cls-1" d="M434.51,360.39c2.15-4.87.46-5.94,0-6.21-1-.68-2.29.17-3.45,1.07a3.86,3.86,0,0,0-1.79,3.69c.18,1.45,2.63,3,3,3.24l0,0,.06,0a48.78,48.78,0,0,1-9.49,8.2c-2.7,1.8-10,6.8-10,6.8s1.65-.62,1.87-.77c1-.48,5.72-3.12,9.68-5.41s8.6-8.3,8.6-8.3.22.16.26.14c.81.35,1.7,2.12,1.7,2.12s0,.19.26-.16a10.42,10.42,0,0,0,.49-2.91c0-.52-1.3-1.56-1.3-1.56m-1-.57s-2-1.77-2.33-2a1,1,0,0,1-.48-.82c2-1.33,2.78-.48,3,.1a4,4,0,0,1-.22,2.69" transform="translate(-160.6 -336.18)"/><path class="cls-1" d="M348.06,350.71v.76a8.37,8.37,0,0,0-2.51-1.31s-.35-.15-.35-.21a16,16,0,0,1,.48-2.86,2,2,0,0,1,.89-.5c.17,0,3.19,1.21,4.61,6.8,0,0,.64,2.58.64,2.58l.18-1.49s.66-6.17.78-6.76c.17-.79.77-2.18,1.74-2.19s2.71,1.62,2.71,1.62l-.86,2.25s-1.38-1.24-1.92-1.28c-1.14-.07-1.36,1.83-1.65,5.08s-.49,4-.71,4.47a6.85,6.85,0,0,1-.45.86,16.67,16.67,0,0,0-3.51-7.92" transform="translate(-160.6 -336.18)"/><path class="cls-1" d="M398.66,365.66v.76a8.5,8.5,0,0,0-2.52-1.3s-.35-.15-.35-.21a15.82,15.82,0,0,1,.48-2.86,2.08,2.08,0,0,1,.89-.5c.17,0,3.2,1.2,4.61,6.81,0,0,.64,2.56.64,2.56l.17-1.47s.67-6.18.79-6.76c.17-.79.77-2.16,1.74-2.19s2.71,1.63,2.71,1.63l-.86,2.26s-1.37-1.24-1.93-1.27c-1.14-.08-1.35,1.82-1.64,5.06s-.51,4-.72,4.48a6.45,6.45,0,0,1-.45.86,16.63,16.63,0,0,0-3.52-7.91" transform="translate(-160.6 -336.18)"/><path class="cls-1" d="M349.87,374.82a2.19,2.19,0,0,0-.8.52,17.91,17.91,0,0,0-3,6.72c-1,4.26,1.33,5,1.33,5s1.51.71,2.9-2.69a5.76,5.76,0,0,0,.48-1.71s0-.45-.39-.13c-.7.61-.57,1.39-.81,1.67-.46.52-.48.45-.64.51s-2.37,0-1.67-3.42a31.89,31.89,0,0,1,1.95-4.94s.71-1.55.71-1.55" transform="translate(-160.6 -336.18)"/><path class="cls-1" d="M245.46,385.19a2.38,2.38,0,0,0-.8.52,18,18,0,0,0-3,6.73c-1,4.26,1.33,5,1.33,5s1.52.71,2.88-2.7a5.54,5.54,0,0,0,.49-1.7s0-.46-.39-.14c-.7.61-.57,1.38-.82,1.66-.45.52-.48.46-.63.51s-2.37,0-1.68-3.42a31.85,31.85,0,0,1,2-4.93s.7-1.56.7-1.56" transform="translate(-160.6 -336.18)"/><path class="cls-1" d="M370.1,357.76l-20.91,7.34c-6.45,2.25-18.54,7.49-18.54,7.49l-1.15,3.14s35.44-13.89,38.29-14.41c0-.06,2.32-3.55,2.32-3.55" transform="translate(-160.6 -336.18)"/><path class="cls-1" d="M451.39,390.12l0,0s0,0,0,0m-2-.12a60.4,60.4,0,0,1-17.68-6.05c-8-4.14-12.16-3-12.27-3-7.78,2-7.92,10.63-7.86,11.77S413,399,413,399s-.67-.19-.76-.19c-5.75-2.35-9.43-8.66-10-9.51-4.8-8.11-14.9-18.57-15.83-19.61s-9.62-9.14-9.62-9.14l5.19-2.74c15.93-6.79,31.45-11.19,39.31-12.26,5.54-.76,4.81,3,4.52,3.39s-2.88,4.9-3.27,5.47-3.73,7.35-4.46,9.43c-1.13,3.26-.68,4.08-.68,4.08s1.07-2.09,1.07-2.19a138.2,138.2,0,0,1,7.16-13.48c1.62-2.79,3.64-5.37,3.86-9.8s-12-1.89-12.15-1.79a195.13,195.13,0,0,0-41.76,14.9l-1.9,3.48-1.32,4.25s5.27,6.41,5.37,6.41c7.42,8.93,16.9,24,17,24.32.19.69.63,1.38.25,1.82-.79.93-6.1,2.58-6.1,2.58l-.47-.82c-8-14.51-14.33-2.36-14.51-1.6-2.41,4.8.09,6.93.09,7,3.24,4.36,11.71,1.47,12,1.83a8.53,8.53,0,0,1,.76,1.91c-11.12,12.13-22.83,15-24.87,15.17-11.69.84-11-9-10.64-12.37.35-3.09,2.7-10.28,2.7-10.28l-1.09,1s-.16.31-.52,1C349.69,406.21,349,413,349,413.92c-.19,17.1,13.57,16.82,24.44,9.34,11.16-7.71,12.76-10.44,14.15-12.55,1.11-1.68,1.68-6.9,1.68-6.9l4.27-1.9a9.67,9.67,0,0,0,3.14-6.38c.5-4.35-.78-6.7-.78-6.7l.07-.64a113.41,113.41,0,0,0,8,11.48c5,6.38,10.59,5.85,10.59,5.85l.4,4.11.46-.15s.18,0,.61-1a12.88,12.88,0,0,0,.51-3.28s1.41-.34,1.45-.31c5.34-.88,19.34-8.06,24.82-9a21.71,21.71,0,0,1,5.78.06l2.73-5.72a7,7,0,0,1-2-.14m-72.45,8.48c-.06-.05-.2-.42-.08-.55a2.77,2.77,0,0,1,3.11-1.5s2.67,1,3.57,2.89c0,0-5,.48-6.6-.84M428.16,396a104.85,104.85,0,0,1-11.76,3.2s-2.61-8.38-2.48-9a5.4,5.4,0,0,1,3-3.07,12.79,12.79,0,0,1,9.15,1.08c3.63,1.81,9.42,4.33,10,4.46l.85.22s-7.87,2.79-8.73,3.11" transform="translate(-160.6 -336.18)"/><path class="cls-1" d="M173.22,441.05a5.58,5.58,0,0,0-2.78-.66,5.48,5.48,0,0,0-2.17.48,5.59,5.59,0,0,0-1.93,1.39,6.84,6.84,0,0,0-1.35,2.28,9.1,9.1,0,0,0-.52,3.26,8.48,8.48,0,0,0,.39,2.63,6.2,6.2,0,0,0,1.13,2.09,5,5,0,0,0,1.8,1.38,5.58,5.58,0,0,0,2.44.51,6.47,6.47,0,0,0,.7,0l.76-.08a4,4,0,0,0,.68-.14,1.52,1.52,0,0,0,.46-.18c0-.18,0-.42.05-.71s0-.59,0-.94c0-1.28,0-2.22-.08-2.82s-.08-1-.09-1.25a4.83,4.83,0,0,0,.63.08,11.05,11.05,0,0,0,1.13,0c.57,0,1,0,1.27,0a5,5,0,0,0,.66-.08,3.82,3.82,0,0,0-.08.61c0,.29-.05.62-.06,1s0,.76,0,1.18,0,.83,0,1.2V453c0,.39,0,.75,0,1.1a3.6,3.6,0,0,0,.05.72,31.66,31.66,0,0,1-3.16.72,22.53,22.53,0,0,1-3.17.25,12.74,12.74,0,0,1-3.76-.53,8.48,8.48,0,0,1-3-1.56,7.42,7.42,0,0,1-1.95-2.49,7.72,7.72,0,0,1-.69-3.29,9.72,9.72,0,0,1,.74-4,7.68,7.68,0,0,1,2.07-2.81,8.69,8.69,0,0,1,3.11-1.71,13,13,0,0,1,3.89-.56,11.89,11.89,0,0,1,3.12.36,13.4,13.4,0,0,1,2.59,1.07c-.12.41-.25.81-.38,1.2a12.43,12.43,0,0,0-.28,1.21h-.34a5.91,5.91,0,0,0-1.89-1.72" transform="translate(-160.6 -336.18)"/><path class="cls-1" d="M180.07,444.11a8.24,8.24,0,0,1,4.69-4.52,10.15,10.15,0,0,1,3.74-.66,11.55,11.55,0,0,1,3.52.52,7.93,7.93,0,0,1,2.83,1.56,7.21,7.21,0,0,1,1.9,2.65,9.12,9.12,0,0,1,.71,3.72,8.1,8.1,0,0,1-.68,3.32,8.3,8.3,0,0,1-1.86,2.69,8.68,8.68,0,0,1-2.85,1.79,10.12,10.12,0,0,1-3.65.63,12.7,12.7,0,0,1-3.51-.46,7.35,7.35,0,0,1-2.86-1.5,7.08,7.08,0,0,1-1.94-2.62,9.52,9.52,0,0,1-.71-3.84,8.27,8.27,0,0,1,.66-3.3m13.14,0a6.48,6.48,0,0,0-1.05-2.06,4.83,4.83,0,0,0-1.64-1.33,4.89,4.89,0,0,0-2.09-.46,4.11,4.11,0,0,0-2.17.58,5,5,0,0,0-1.62,1.58,7.3,7.3,0,0,0-1,2.33,11.24,11.24,0,0,0-.35,2.85,10.72,10.72,0,0,0,.41,3.19,5.54,5.54,0,0,0,1.09,2.1,4,4,0,0,0,1.59,1.15,5,5,0,0,0,1.9.36,4.74,4.74,0,0,0,2-.45,4.43,4.43,0,0,0,1.69-1.37,7.18,7.18,0,0,0,1.16-2.35,11.43,11.43,0,0,0,.44-3.37,9.24,9.24,0,0,0-.38-2.77" transform="translate(-160.6 -336.18)"/><path class="cls-1" d="M209.95,445.06c.78-2,1.48-4,2.1-5.83a8.56,8.56,0,0,0,1,.1,8.75,8.75,0,0,0,1-.1c-.4.93-.87,2-1.42,3.35s-1.14,2.7-1.73,4.17-1.19,2.95-1.78,4.47-1.11,2.93-1.57,4.27a9.34,9.34,0,0,0-1,0,9.46,9.46,0,0,0-1,0c-.23-.64-.53-1.4-.86-2.3l-1.09-2.86c-.39-1-.8-2-1.23-3.11l-1.23-3.06c-.39-1-.76-1.91-1.12-2.76s-.64-1.59-.9-2.17l1.09.07c.35,0,.7,0,1,0s.69,0,1,0l1-.07c.26.88.57,1.81.91,2.78s.69,2,1.06,3,.74,2,1.13,3.07.76,2,1.12,3c.82-2,1.62-4,2.39-6" transform="translate(-160.6 -336.18)"/><path class="cls-1" d="M216.93,442.29c0-1-.07-2-.13-3.06.71,0,1.41,0,2.1.05s1.4,0,2.1,0c1.17,0,2.21,0,3.12,0s1.52,0,1.83-.07a4.37,4.37,0,0,0-.09,1,5.32,5.32,0,0,0,0,.6c0,.14,0,.3.07.47l-1.5-.09-1.59-.1-1.39-.07c-.41,0-.71,0-.88,0,0,.87-.08,1.73-.09,2.57s0,1.72,0,2.59l2.77-.08,2.6-.13c-.05.27-.08.48-.1.62a3.57,3.57,0,0,0,0,.44,2.55,2.55,0,0,0,0,.4c0,.14.05.34.08.58-1.81-.13-3.6-.2-5.38-.2,0,.5,0,1,0,1.51s0,1,0,1.53c0,1,0,2,.07,3,.89,0,1.8,0,2.69-.08s1.81-.14,2.73-.26c0,.17-.05.33-.06.48a4.94,4.94,0,0,0,0,.59,5.29,5.29,0,0,0,0,.61,1.88,1.88,0,0,0,.06.35c-.43,0-1,0-1.57,0h-7.13a3,3,0,0,0-.46,0c.06-1,.09-2,.13-3s0-2.18,0-3.48v-3.23c0-1.3,0-2.47,0-3.48" transform="translate(-160.6 -336.18)"/><path class="cls-1" d="M233.74,448v1c0,1.32,0,2.48,0,3.49s.08,2,.13,3a6.66,6.66,0,0,0-.88,0h-2.13a6.57,6.57,0,0,0-.87,0c.07-1,.12-2,.15-3s.06-2.18.06-3.48v-3.23c0-1.31,0-2.47-.06-3.48s-.07-2-.15-3.06l.88.07c.31,0,.67,0,1.07,0s.92,0,1.47-.05,1.21,0,2,0c.59,0,1.11,0,1.54,0a6.94,6.94,0,0,1,1.1.14,4,4,0,0,1,.81.24,7,7,0,0,1,.65.37,3.94,3.94,0,0,1,1.13,1.3,3.78,3.78,0,0,1,.42,1.83,4.15,4.15,0,0,1-.94,2.81,5.09,5.09,0,0,1-2.73,1.53c.76,1.35,1.57,2.68,2.44,4s1.73,2.66,2.61,4c-.37,0-.72,0-1.07,0h-2.14c-.35,0-.72,0-1.08,0L234,448Zm3.52-6a1.93,1.93,0,0,0-.65-.93,2.52,2.52,0,0,0-1.14-.42,15.21,15.21,0,0,0-1.66-.09q-.07,3.23-.07,6.45l.27,0h.25a3.27,3.27,0,0,0,2.39-.84,3.52,3.52,0,0,0,.83-2.55,5.32,5.32,0,0,0-.21-1.67" transform="translate(-160.6 -336.18)"/><path class="cls-1" d="M245,441.19c0-.75-.07-1.39-.09-2a10,10,0,0,0,1.07.1,9.79,9.79,0,0,0,1.06-.1l5.12,5.63c1.68,1.85,3.41,3.72,5.18,5.63v-4.35c0-.78,0-1.53,0-2.29s0-1.43,0-2.07,0-1.16-.05-1.62a8.29,8.29,0,0,0-.1-.92,10,10,0,0,0,1.07.1,9.78,9.78,0,0,0,1.07-.1c-.07,1.42-.14,2.73-.19,3.89s-.08,2.26-.11,3.28,0,2-.06,3,0,2.07,0,3.21v2.85a8.09,8.09,0,0,0-1,0,6.83,6.83,0,0,0-.93,0q-4.88-5.71-10.35-11.44c0,.45,0,.92,0,1.38V452c0,.66,0,1.22,0,1.69s0,.83,0,1.11,0,.54,0,.71a2.76,2.76,0,0,0-.57,0h-.54a10.11,10.11,0,0,0-1.08,0,10.75,10.75,0,0,0,.12-1.34c.05-.79.1-1.72.16-2.85s.09-2.31.14-3.62.06-2.54.06-3.74,0-2-.06-2.76" transform="translate(-160.6 -336.18)"/><path class="cls-1" d="M265.77,450.19c-.12,1.77-.25,3.53-.38,5.31a2.76,2.76,0,0,0-.57,0h-1.1a2.66,2.66,0,0,0-.56,0c.5-2.72,1-5.42,1.35-8.1s.76-5.4,1.08-8.16l.48.07.5,0,.45,0,.5-.07c.43.95.87,1.91,1.34,2.88s.94,2,1.39,2.93.94,1.92,1.4,2.84.91,1.82,1.34,2.65c.95-1.77,1.89-3.63,2.83-5.55s1.83-3.86,2.69-5.76a8,8,0,0,0,1,.1,7.87,7.87,0,0,0,1-.1c.16,1.36.33,2.83.51,4.38s.36,3.08.53,4.58.35,2.89.53,4.18.32,2.33.48,3.13a8.12,8.12,0,0,0-1,0h-1.93a8.43,8.43,0,0,0-1,0c-.08-1.63-.21-3.4-.39-5.28s-.36-3.78-.56-5.64h0c-.9,1.86-1.79,3.69-2.66,5.5s-1.73,3.6-2.58,5.42a1,1,0,0,0-.22,0h-.45a.93.93,0,0,0-.22,0c-.85-1.78-1.71-3.54-2.55-5.31s-1.72-3.56-2.62-5.37h0c-.26,1.81-.45,3.6-.58,5.37" transform="translate(-160.6 -336.18)"/><path class="cls-1" d="M286.44,442.29c0-1-.08-2-.13-3.06.72,0,1.41,0,2.1.05s1.4,0,2.11,0c1.17,0,2.21,0,3.12,0s1.52,0,1.83-.07a4.26,4.26,0,0,0-.09,1,4.58,4.58,0,0,0,0,.6c0,.14,0,.3.06.47l-1.5-.09-1.6-.1L291,441c-.4,0-.7,0-.87,0-.06.87-.09,1.73-.09,2.57s0,1.72,0,2.59l2.79-.08,2.59-.13c0,.27-.07.48-.1.62s0,.29,0,.44a1.83,1.83,0,0,0,0,.4c0,.14,0,.34.07.58-1.8-.13-3.6-.2-5.39-.2,0,.5,0,1,0,1.51s0,1,0,1.53c0,1,0,2,.06,3,.9,0,1.81,0,2.71-.08s1.81-.14,2.73-.26c0,.17-.06.33-.07.48a4.72,4.72,0,0,0,0,.59,5,5,0,0,0,0,.61,1.69,1.69,0,0,0,.07.35c-.42,0-1,0-1.58,0h-7.13a3.18,3.18,0,0,0-.46,0c.05-1,.11-2,.13-3s0-2.18,0-3.48v-3.23c0-1.3,0-2.47,0-3.48" transform="translate(-160.6 -336.18)"/><path class="cls-1" d="M299.9,441.19c0-.75-.06-1.39-.08-2a10.17,10.17,0,0,0,1.07.1,9.94,9.94,0,0,0,1.06-.1l5.11,5.63c1.69,1.85,3.41,3.72,5.18,5.63v-4.35c0-.78,0-1.53,0-2.29s0-1.43,0-2.07,0-1.16-.06-1.62a6,6,0,0,0-.08-.92,9.73,9.73,0,0,0,1.06.1,10,10,0,0,0,1.07-.1c-.08,1.42-.14,2.73-.19,3.89s-.09,2.26-.12,3.28,0,2-.05,3,0,2.07,0,3.21v2.85a8.09,8.09,0,0,0-1,0,6.75,6.75,0,0,0-.93,0q-4.88-5.71-10.35-11.44c0,.45,0,.92,0,1.38s0,.92,0,1.39v2.75c0,1,0,1.74,0,2.42s0,1.22,0,1.69,0,.83,0,1.11,0,.54,0,.71a2.67,2.67,0,0,0-.56,0h-.54a10.14,10.14,0,0,0-1.08,0c0-.14.07-.59.12-1.34s.09-1.72.15-2.85.1-2.31.14-3.62.06-2.54.06-3.74,0-2-.05-2.76" transform="translate(-160.6 -336.18)"/><path class="cls-1" d="M321.63,441.8c0-.37,0-.66-.06-.83l-.87,0-1.12.07c-.4,0-.8,0-1.21.1s-.79.09-1.13.14c0-.17.05-.35.08-.52a4.61,4.61,0,0,0,0-1c0-.18,0-.35-.08-.52l1.45,0,1.33,0h1.48c.53,0,1.16,0,1.9,0s1.37,0,1.9,0h1.46l1.3,0,1.36,0-.09.52c0,.18,0,.34,0,.52s0,.35,0,.52l.09.52c-.31-.05-.66-.09-1.07-.14s-.78-.07-1.17-.1l-1.1-.07-.87,0a2.21,2.21,0,0,0-.05.33c0,.14,0,.32,0,.5V449c0,1.32,0,2.49,0,3.5s.07,2,.12,3a7.88,7.88,0,0,0-.87,0H322.3a8.06,8.06,0,0,0-.86,0c.06-1,.11-2,.15-3s0-2.18,0-3.5v-5.93c0-.45,0-.87,0-1.25" transform="translate(-160.6 -336.18)"/><path class="cls-1" d="M340.35,444.11a8.29,8.29,0,0,1,1.83-2.69,8.42,8.42,0,0,1,2.87-1.83,10.17,10.17,0,0,1,3.75-.66,11.59,11.59,0,0,1,3.52.52,8.1,8.1,0,0,1,2.84,1.56,7.33,7.33,0,0,1,1.9,2.65,9.18,9.18,0,0,1,.71,3.72,8.16,8.16,0,0,1-.68,3.32,8.39,8.39,0,0,1-1.87,2.69,8.68,8.68,0,0,1-2.85,1.79,10.12,10.12,0,0,1-3.65.63,12.79,12.79,0,0,1-3.52-.46,7.46,7.46,0,0,1-2.85-1.5,7.23,7.23,0,0,1-1.94-2.62,9.58,9.58,0,0,1-.7-3.84,8.46,8.46,0,0,1,.65-3.3m13.15,0a6.5,6.5,0,0,0-1.06-2.06,4.72,4.72,0,0,0-1.63-1.33,4.89,4.89,0,0,0-2.1-.46,4.06,4.06,0,0,0-2.16.58,5.13,5.13,0,0,0-1.63,1.58,7.5,7.5,0,0,0-1,2.33,11,11,0,0,0-.35,2.85,10.6,10.6,0,0,0,.4,3.19,5.57,5.57,0,0,0,1.08,2.1,4.12,4.12,0,0,0,1.58,1.15,5.08,5.08,0,0,0,1.91.36,4.75,4.75,0,0,0,2-.45,4.38,4.38,0,0,0,1.69-1.37,7.4,7.4,0,0,0,1.17-2.35,12,12,0,0,0,.42-3.37,9.21,9.21,0,0,0-.37-2.77" transform="translate(-160.6 -336.18)"/><path class="cls-1" d="M360.55,442.29c0-1-.08-2-.13-3.06.72,0,1.41,0,2.11.05s1.4,0,2.1,0c1.17,0,2.21,0,3.12,0s1.51,0,1.83-.07a4.3,4.3,0,0,0-.08,1c0,.26,0,.45,0,.6a4.36,4.36,0,0,0,.07.47l-1.5-.09-1.59-.1-1.38-.07c-.42,0-.71,0-.89,0-.05.87-.09,1.73-.1,2.57s0,1.72,0,2.59l2.79-.08,2.6-.13c-.06.27-.08.48-.11.62s0,.29,0,.44,0,.27,0,.4.05.34.1.58c-1.81-.13-3.61-.2-5.39-.2V449c0,1.3,0,2.46,0,3.47s.07,2,.14,3a6.08,6.08,0,0,0-.86,0H361.3a6.24,6.24,0,0,0-.87,0c.05-1,.1-2,.13-3s0-2.18,0-3.48v-3.23c0-1.3,0-2.47,0-3.48" transform="translate(-160.6 -336.18)"/><path class="cls-1" d="M382.68,442.29c0-1-.1-2-.16-3.06l.88.07c.31,0,.66,0,1.05,0s1.11,0,1.77-.05,1.49,0,2.53,0a17.63,17.63,0,0,1,3.71.36,7.64,7.64,0,0,1,2.87,1.23,5.8,5.8,0,0,1,1.87,2.36,10.26,10.26,0,0,1,0,7.28,8.13,8.13,0,0,1-1.78,2.71,7.6,7.6,0,0,1-2.59,1.71,8.45,8.45,0,0,1-3.17.6c-1.18,0-2.19,0-3,0H383.4a7.45,7.45,0,0,0-.88,0c.06-1,.12-2,.16-3s0-2.18,0-3.48v-3.23c0-1.31,0-2.47,0-3.49m3.55,8.44v1.42c0,.45,0,.89,0,1.26s0,.62,0,.74l.85,0c.33,0,.75,0,1.23,0a5.29,5.29,0,0,0,4.24-1.83c1-1.21,1.55-3,1.55-5.52a8.44,8.44,0,0,0-.38-2.62,5.49,5.49,0,0,0-1.1-2,4.74,4.74,0,0,0-1.7-1.26,5.35,5.35,0,0,0-2.23-.44c-.57,0-1,0-1.38,0s-.72,0-1.08.08c0,.1,0,.34,0,.72s0,.81,0,1.28v8Z" transform="translate(-160.6 -336.18)"/><path class="cls-1" d="M405.13,455.5a6,6,0,0,1-2.29-1.06,5.31,5.31,0,0,1-1.53-1.92,6.71,6.71,0,0,1-.55-2.85v-3.09c0-.42,0-.83,0-1.23s0-.8,0-1.23c0-1.28,0-2.32,0-3.1a17.69,17.69,0,0,0-.08-1.77l1,.07,1,0,1,0,1-.07c-.16,1.53-.25,3-.27,4.27s-.07,2.66-.07,4a16.24,16.24,0,0,0,.32,3.49,4.78,4.78,0,0,0,.91,2,2.83,2.83,0,0,0,1.48,1,7.26,7.26,0,0,0,2,.25,3.27,3.27,0,0,0,2.23-.72,4.43,4.43,0,0,0,1.22-1.89A10,10,0,0,0,413,449c.06-1,.1-2.1.1-3.2s0-2.19-.06-3.26-.08-2.18-.14-3.26l.63.07.56,0,.61,0,.59-.07c0,.34-.06.8-.1,1.39s-.05,1.25-.1,2-.05,1.61-.07,2.54,0,1.91,0,2.93q0,4.14-1.77,5.92a7,7,0,0,1-5.2,1.79,11.75,11.75,0,0,1-2.83-.32" transform="translate(-160.6 -336.18)"/><path class="cls-1" d="M418.17,442.29c0-1-.09-2-.18-3.06l.89.07c.31,0,.67,0,1.07,0,.67,0,1.39,0,2.13,0s1.45,0,2.14,0a8.7,8.7,0,0,1,1.95.2,4.82,4.82,0,0,1,1.5.66,2.69,2.69,0,0,1,1,1.15,3.8,3.8,0,0,1,.35,1.66,3.38,3.38,0,0,1-.41,1.67,3.92,3.92,0,0,1-1,1.16,4.3,4.3,0,0,1-1.26.72,6,6,0,0,1-1.21.35v.06a5.83,5.83,0,0,1,1.28.24,4.83,4.83,0,0,1,1.39.7A4.43,4.43,0,0,1,429,449a3.33,3.33,0,0,1,.46,1.79A4.73,4.73,0,0,1,429,453a3.91,3.91,0,0,1-1.24,1.45,4.25,4.25,0,0,1-1.75.81,9.4,9.4,0,0,1-2.08.23c-.62,0-1.21,0-1.77,0h-3c-.44,0-.8,0-1.08,0,.09-1,.14-2,.18-3s.07-2.18.07-3.48v-3.22c0-1.31,0-2.48-.07-3.5m7.21,0a2.32,2.32,0,0,0-.44-.87,2.2,2.2,0,0,0-.79-.58,2.78,2.78,0,0,0-1.18-.23c-.35,0-.61,0-.72,0l-.44.05c0,.59-.06,1.18-.08,1.78s0,1.1,0,1.52,0,.84,0,1.21,0,.8,0,1.2h1.08a2.84,2.84,0,0,0,1-.19,2.57,2.57,0,0,0,.87-.55,2.77,2.77,0,0,0,.62-.94,3.34,3.34,0,0,0,.23-1.33,4.13,4.13,0,0,0-.12-1.09m-.45,6.27a2.75,2.75,0,0,0-2.18-.82h-.57a3.89,3.89,0,0,1-.45,0c0,.34,0,.68,0,1s0,.76,0,1.27,0,.76,0,1.15,0,.79,0,1.16,0,.72,0,1,0,.58,0,.78l.62,0h.68a2.33,2.33,0,0,0,1.82-.84,3.27,3.27,0,0,0,.59-1,4.39,4.39,0,0,0,.19-1.37,3.55,3.55,0,0,0-.74-2.46" transform="translate(-160.6 -336.18)"/><path class="cls-1" d="M445.28,455.49c-.39,0-.74,0-1.08,0h-2c-.35,0-.67,0-1,0-.26-.77-.52-1.56-.79-2.37s-.55-1.61-.85-2.41l-1.53,0h-2.74l-1.24,0c-.32.8-.6,1.61-.87,2.41s-.51,1.6-.73,2.38a3.73,3.73,0,0,0-.56,0h-1.12a4.57,4.57,0,0,0-.62,0l.75-1.71c.32-.72.67-1.55,1-2.46s.8-1.91,1.23-3l1.3-3.18c.43-1.08.87-2.14,1.28-3.19s.8-2,1.15-2.91l.45.09a2.28,2.28,0,0,0,.45.05,2.34,2.34,0,0,0,.45-.05l.44-.09c.5,1.34,1.06,2.78,1.63,4.31s1.16,3,1.75,4.52,1.15,2.87,1.71,4.2,1.06,2.46,1.52,3.37m-8.4-11.83c-.4.95-.79,1.87-1.15,2.8s-.72,1.87-1.07,2.83H439c-.35-1-.7-1.9-1-2.83s-.7-1.86-1.09-2.8" transform="translate(-160.6 -336.18)"/><path class="cls-1" d="M447.34,442.29c0-1-.08-2-.14-3.06l.87.07c.32,0,.66,0,1.07,0s.74,0,1.06,0,.61,0,.88-.07c-.06,1-.1,2.05-.13,3.06s0,2.18,0,3.48V449c0,1.3,0,2.47,0,3.48s.06,2,.13,3a6.25,6.25,0,0,0-.87,0h-2.12a6.17,6.17,0,0,0-.87,0c.06-1,.11-2,.14-3s.06-2.18.06-3.48v-3.23c0-1.3,0-2.47-.06-3.48" transform="translate(-160.6 -336.18)"/></svg>